<svg id="Livello_1" data-name="Livello 1" xmlns="http://www.w3.org/2000/svg" viewBox="0 0 450 353.26"><defs><style>.cls-1{fill:#e2ccba;}.cls-1,.cls-3,.cls-4,.cls-5,.cls-6{fill-rule:evenodd;}.cls-2{fill:#111;}.cls-3{fill:#a7856c;}.cls-4{fill:#f0e6da;}.cls-5{fill:#775a41;}.cls-6{fill:#492d12;}</style></defs><path class="cls-1" d="M.41,256.87a3.72,3.72,0,0,1,.67-4.32c.42-.47.77-.82.77-.82S15.17,238.44,43.17,242c11.28,1.41,24.8-1.07,33.82-7.07a3.73,3.73,0,0,1,5.72,3.85C80.47,249.88,73,267.1,50.07,273.27,29.19,278.87,8.32,271.58.41,256.87Z"/><path class="cls-2" d="M114.26,244.94a10.75,10.75,0,0,1,4.13.75,8.87,8.87,0,0,1,3.07,2.08,9.14,9.14,0,0,1,1.92,3.1,10.52,10.52,0,0,1,.67,3.78,10.69,10.69,0,0,1-.67,3.82,9.37,9.37,0,0,1-1.92,3.13,8.92,8.92,0,0,1-3.07,2.1,10.56,10.56,0,0,1-4.13.77h-4.72a.39.39,0,0,1-.29-.13.4.4,0,0,1-.12-.29V245.36a.44.44,0,0,1,.12-.3.42.42,0,0,1,.29-.12Zm0,16.93a7.24,7.24,0,0,0,3-.58,6.78,6.78,0,0,0,2.23-1.56,6.45,6.45,0,0,0,1.4-2.31,8.52,8.52,0,0,0,0-5.58,6.51,6.51,0,0,0-1.4-2.26,6.36,6.36,0,0,0-2.23-1.5,7.76,7.76,0,0,0-3-.55h-2.51v14.34Z"/><path class="cls-2" d="M138.9,250.52a.42.42,0,0,1,.29.12.44.44,0,0,1,.12.3v13.11a.4.4,0,0,1-.12.29.39.39,0,0,1-.29.13h-1.79a.45.45,0,0,1-.42-.42v-1.53a4.85,4.85,0,0,1-4.21,2.23,5.05,5.05,0,0,1-2-.39,4.94,4.94,0,0,1-1.66-1.16,5.69,5.69,0,0,1-1.16-1.94,8.06,8.06,0,0,1-.43-2.73v-7.59a.41.41,0,0,1,.13-.3.4.4,0,0,1,.29-.12h1.79a.42.42,0,0,1,.29.12.44.44,0,0,1,.12.3v7.2a4.61,4.61,0,0,0,1,3.15,3.36,3.36,0,0,0,4.9,0,4.57,4.57,0,0,0,1-3.15v-7.2a.41.41,0,0,1,.13-.3.4.4,0,0,1,.29-.12Z"/><path class="cls-2" d="M147.43,264.69a6.37,6.37,0,0,1-2.52-.53,6.81,6.81,0,0,1-2.16-1.39.4.4,0,0,1,0-.56l1.11-1.34a.41.41,0,0,1,.62,0,7.06,7.06,0,0,0,1.4.92,3.6,3.6,0,0,0,1.64.39,2.47,2.47,0,0,0,1.46-.41,1.33,1.33,0,0,0,.57-1.12,1.38,1.38,0,0,0-.48-1.09,5.14,5.14,0,0,0-1.23-.74c-.5-.21-1-.43-1.61-.64a7.51,7.51,0,0,1-1.6-.81,4.28,4.28,0,0,1-1.23-1.24,3.52,3.52,0,0,1-.49-1.93,3.57,3.57,0,0,1,.32-1.5,3.79,3.79,0,0,1,.91-1.23,4.48,4.48,0,0,1,1.41-.84,5.42,5.42,0,0,1,1.86-.3,5.22,5.22,0,0,1,2.44.51,6.63,6.63,0,0,1,1.77,1.22c.18.14.19.32,0,.53l-1,1.28a.46.46,0,0,1-.29.17.37.37,0,0,1-.32-.09,6.84,6.84,0,0,0-1.16-.74,3.06,3.06,0,0,0-1.41-.35,2.14,2.14,0,0,0-1.31.38,1.28,1.28,0,0,0,0,2,4.73,4.73,0,0,0,1.23.7c.49.21,1,.42,1.6.64a8.37,8.37,0,0,1,1.6.84,4.49,4.49,0,0,1,1.25,1.28,3.66,3.66,0,0,1,.5,2,3.58,3.58,0,0,1-.36,1.6,4.19,4.19,0,0,1-1,1.26,4.4,4.4,0,0,1-1.52.86A6.14,6.14,0,0,1,147.43,264.69Z"/><path class="cls-2" d="M161.13,252.61a.4.4,0,0,1-.12.29.39.39,0,0,1-.3.13h-2.45v11a.45.45,0,0,1-.42.42h-1.79a.39.39,0,0,1-.29-.13.4.4,0,0,1-.12-.29V253h-1.37a.45.45,0,0,1-.42-.42v-1.67a.41.41,0,0,1,.13-.3.4.4,0,0,1,.29-.12h1.37V247.2a.4.4,0,0,1,.12-.29.39.39,0,0,1,.29-.13h1.79a.45.45,0,0,1,.42.42v3.32h2.45a.42.42,0,0,1,.3.12.44.44,0,0,1,.12.3Z"/><path class="cls-2" d="M178.32,264.75a7.05,7.05,0,0,1-3.49-.89,8,8,0,0,1-2.57-2.24.37.37,0,0,1,.06-.53l1.31-1.22c.23-.23.45-.21.67.05a6.76,6.76,0,0,0,1.88,1.63,4.51,4.51,0,0,0,2.31.63,3.36,3.36,0,0,0,2.35-.79,2.54,2.54,0,0,0,.88-2,2.72,2.72,0,0,0-.67-1.91,6.39,6.39,0,0,0-1.68-1.29c-.68-.36-1.42-.7-2.21-1A11.88,11.88,0,0,1,175,254a6.29,6.29,0,0,1-1.69-1.72,4.64,4.64,0,0,1-.67-2.61,4.58,4.58,0,0,1,.43-2,5,5,0,0,1,1.19-1.59,5.65,5.65,0,0,1,1.78-1.06,6.35,6.35,0,0,1,2.26-.39,6.45,6.45,0,0,1,3.14.75,8.63,8.63,0,0,1,2.28,1.76.39.39,0,0,1,0,.56l-1.18,1.2c-.18.2-.39.19-.61,0a7.1,7.1,0,0,0-1.62-1.2,4,4,0,0,0-2-.5,3.28,3.28,0,0,0-2.18.71,2.24,2.24,0,0,0-.83,1.8,2.33,2.33,0,0,0,.67,1.73,6.72,6.72,0,0,0,1.68,1.21,24,24,0,0,0,2.21,1,11,11,0,0,1,2.2,1.24,6.44,6.44,0,0,1,1.69,1.8,4.8,4.8,0,0,1,.64,2.71,5.16,5.16,0,0,1-.42,2.06,4.83,4.83,0,0,1-1.2,1.69,5.79,5.79,0,0,1-1.91,1.13A7.25,7.25,0,0,1,178.32,264.75Z"/><path class="cls-2" d="M193.69,252.61a.4.4,0,0,1-.12.29.39.39,0,0,1-.3.13h-2.45v11a.45.45,0,0,1-.42.42h-1.79a.37.37,0,0,1-.29-.13.4.4,0,0,1-.12-.29V253h-1.37a.45.45,0,0,1-.42-.42v-1.67a.41.41,0,0,1,.13-.3.4.4,0,0,1,.29-.12h1.37V247.2a.4.4,0,0,1,.12-.29.37.37,0,0,1,.29-.13h1.79a.45.45,0,0,1,.42.42v3.32h2.45a.42.42,0,0,1,.3.12.44.44,0,0,1,.12.3Z"/><path class="cls-2" d="M201.87,264.69a6.94,6.94,0,0,1-2.89-.58,7.17,7.17,0,0,1-2.25-1.57,6.8,6.8,0,0,1-1.46-2.28,7.61,7.61,0,0,1,0-5.53,7,7,0,0,1,1.46-2.29,7.31,7.31,0,0,1,2.25-1.56,7.47,7.47,0,0,1,5.77,0,7,7,0,0,1,3.72,3.85,7.75,7.75,0,0,1,0,5.53,7,7,0,0,1-1.47,2.28,7.06,7.06,0,0,1-2.25,1.57A6.89,6.89,0,0,1,201.87,264.69Zm0-2.62a4.25,4.25,0,0,0,1.81-.38,4.26,4.26,0,0,0,2.29-2.47,5.09,5.09,0,0,0,0-3.5,4.4,4.4,0,0,0-.89-1.45,4.24,4.24,0,0,0-1.4-1,4.4,4.4,0,0,0-1.81-.36,4.45,4.45,0,0,0-1.8.36,4.18,4.18,0,0,0-1.41,1,4.62,4.62,0,0,0-.91,1.45,4.95,4.95,0,0,0,0,3.5,4.61,4.61,0,0,0,.91,1.47,4.35,4.35,0,0,0,1.41,1A4.3,4.3,0,0,0,201.87,262.07Z"/><path class="cls-2" d="M214.87,252.92a6.09,6.09,0,0,1,1.44-1.75,3.89,3.89,0,0,1,2.16-.9.33.33,0,0,1,.32.1.44.44,0,0,1,.12.32v2.14a.42.42,0,0,1-.14.35.4.4,0,0,1-.36.1,3.45,3.45,0,0,0-1.77.35,2.89,2.89,0,0,0-1.3,1.35c-.07.17-.14.37-.21.59s-.11.44-.15.65-.07.47-.11.74v7.09a.45.45,0,0,1-.42.42h-1.79a.39.39,0,0,1-.29-.13.4.4,0,0,1-.12-.29V250.94a.44.44,0,0,1,.12-.3.42.42,0,0,1,.29-.12h1.79a.4.4,0,0,1,.29.12.41.41,0,0,1,.13.3Z"/><path class="cls-2" d="M237.19,250.24a5.19,5.19,0,0,1,2,.39,4.52,4.52,0,0,1,1.62,1.16,5.62,5.62,0,0,1,1.09,1.91,7.94,7.94,0,0,1,.4,2.65l0,7.7a.4.4,0,0,1-.12.29.37.37,0,0,1-.29.13h-1.79a.45.45,0,0,1-.42-.42V256.8a4.86,4.86,0,0,0-.86-3,3.09,3.09,0,0,0-4.76,0,4.86,4.86,0,0,0-.88,3.08v7.17a.4.4,0,0,1-.12.29.41.41,0,0,1-.3.13H231a.41.41,0,0,1-.3-.13.4.4,0,0,1-.12-.29V256.8a4.74,4.74,0,0,0-.88-3,2.89,2.89,0,0,0-2.39-1.11,2.84,2.84,0,0,0-2.65,1.56,3.67,3.67,0,0,0-.25.68c-.07.29-.14.58-.19.85s-.11.63-.17,1v7.25a.45.45,0,0,1-.42.42h-1.78a.39.39,0,0,1-.3-.13.4.4,0,0,1-.12-.29V250.94a.44.44,0,0,1,.12-.3.42.42,0,0,1,.3-.12h1.78a.4.4,0,0,1,.29.12.41.41,0,0,1,.13.3v1.48a4.82,4.82,0,0,1,1.62-1.55,4.6,4.6,0,0,1,2.45-.63,4.93,4.93,0,0,1,2.56.7,4.61,4.61,0,0,1,1.85,2.12,5.87,5.87,0,0,1,1.82-2A4.84,4.84,0,0,1,237.19,250.24Z"/><path class="cls-2" d="M382.89,253.43l-.42,2.66h2.06a.27.27,0,0,1,.28.28v.72a.3.3,0,0,1-.08.2.26.26,0,0,1-.2.08h-2.25L381.7,261c0,.15-.1.22-.26.22h-.68a.33.33,0,0,1-.25-.1.25.25,0,0,1-.05-.25l.56-3.5H378.8l-.57,3.63a.23.23,0,0,1-.26.22h-.69a.3.3,0,0,1-.24-.1.23.23,0,0,1-.06-.25l.56-3.5h-1.36a.27.27,0,0,1-.2-.08.3.3,0,0,1-.08-.2v-.72a.3.3,0,0,1,.08-.2.32.32,0,0,1,.2-.08h1.54l.43-2.66h-2a.32.32,0,0,1-.2-.08.3.3,0,0,1-.08-.2v-.72a.3.3,0,0,1,.08-.2.27.27,0,0,1,.2-.08h2.18l.57-3.72a.26.26,0,0,1,.28-.23h.67a.3.3,0,0,1,.24.11.25.25,0,0,1,.06.25l-.56,3.59h2.21l.58-3.72a.26.26,0,0,1,.28-.23h.67a.3.3,0,0,1,.24.11.27.27,0,0,1,.06.25l-.56,3.59h1.43a.26.26,0,0,1,.2.08.3.3,0,0,1,.08.2v.72a.27.27,0,0,1-.28.28Zm-1.26,0h-2.21l-.43,2.66h2.21Z"/><path class="cls-2" d="M389.05,249.91v3.84h3.87a.27.27,0,0,1,.2.08.3.3,0,0,1,.08.2v1.13a.27.27,0,0,1-.28.28h-3.87v4.07h5.1a.31.31,0,0,1,.28.28v1.15a.27.27,0,0,1-.09.2.24.24,0,0,1-.19.08h-6.59a.24.24,0,0,1-.19-.08.27.27,0,0,1-.09-.2V248.48a.31.31,0,0,1,.28-.28h6.59a.31.31,0,0,1,.28.28v1.16a.25.25,0,0,1-.09.19.24.24,0,0,1-.19.08Z"/><path class="cls-2" d="M396.27,261.09a.21.21,0,0,1,.05-.13c.71-.86,1.4-1.73,2.08-2.6l2.07-2.66.72-.9a6.4,6.4,0,0,0,.6-.9,4.29,4.29,0,0,0,.42-.93,2.94,2.94,0,0,0,.16-1,2.24,2.24,0,0,0-.16-.84,2.11,2.11,0,0,0-.46-.72,2.44,2.44,0,0,0-.74-.51,2.3,2.3,0,0,0-1-.2,2.25,2.25,0,0,0-1.67.67,3,3,0,0,0-.84,1.71.34.34,0,0,1-.14.22.27.27,0,0,1-.25,0l-1.08-.31a.44.44,0,0,1-.15-.12.22.22,0,0,1,0-.16,4.84,4.84,0,0,1,.41-1.44,4.24,4.24,0,0,1,.84-1.21,4.3,4.3,0,0,1,1.27-.83,4.39,4.39,0,0,1,3.34,0,4,4,0,0,1,1.3.88,4.06,4.06,0,0,1,.83,1.26,4,4,0,0,1,.28,1.48,4.6,4.6,0,0,1-.15,1.18,7,7,0,0,1-.42,1.07,8.21,8.21,0,0,1-.62,1c-.23.33-.48.66-.74,1-.43.56-.88,1.12-1.33,1.68l-1.35,1.67H404a.27.27,0,0,1,.2.09.24.24,0,0,1,.08.19v1.15a.27.27,0,0,1-.28.28h-7.47a.6.6,0,0,1-.2,0C396.3,261.16,396.27,261.13,396.27,261.09Z"/><path class="cls-2" d="M412.82,261.45a6.78,6.78,0,0,1-2.75-.55,6.42,6.42,0,0,1-3.43-3.61,7.15,7.15,0,0,1,0-5.15A6.41,6.41,0,0,1,408,250a6.17,6.17,0,0,1,2.09-1.47,6.62,6.62,0,0,1,2.75-.55,7,7,0,0,1,1.57.16,6.87,6.87,0,0,1,1.37.45.28.28,0,0,1,.13.23V250a.36.36,0,0,1-.18.34.41.41,0,0,1-.4,0,4.67,4.67,0,0,0-1.09-.42,5.34,5.34,0,0,0-1.38-.16,4.79,4.79,0,0,0-2,.41,4.72,4.72,0,0,0-1.53,1.1,5,5,0,0,0-1,1.6,5.35,5.35,0,0,0-.35,1.91,5.4,5.4,0,0,0,.35,1.92,5,5,0,0,0,1,1.6,4.87,4.87,0,0,0,1.53,1.1,4.79,4.79,0,0,0,2,.41,5.81,5.81,0,0,0,1.38-.16,5.16,5.16,0,0,0,1.09-.42.39.39,0,0,1,.4,0,.35.35,0,0,1,.18.34v1.15a.2.2,0,0,1-.11.2,5.78,5.78,0,0,1-1.38.48A7.75,7.75,0,0,1,412.82,261.45Z"/><path class="cls-2" d="M424,261.45a6.8,6.8,0,0,1-2.76-.55,6.42,6.42,0,0,1-3.43-3.61,7.29,7.29,0,0,1,0-5.15A6.57,6.57,0,0,1,419.1,250a6.27,6.27,0,0,1,2.09-1.47A6.64,6.64,0,0,1,424,248a6.92,6.92,0,0,1,2.93.61.28.28,0,0,1,.13.23V250a.36.36,0,0,1-.18.34.39.39,0,0,1-.39,0,4.75,4.75,0,0,0-1.1-.42,5.34,5.34,0,0,0-1.38-.16,4.7,4.7,0,0,0-3.52,1.51,5,5,0,0,0-1,1.6,5.35,5.35,0,0,0-.35,1.91,5.4,5.4,0,0,0,.35,1.92,4.88,4.88,0,0,0,2.53,2.7,4.79,4.79,0,0,0,2,.41,5.81,5.81,0,0,0,1.38-.16,5.25,5.25,0,0,0,1.1-.42.37.37,0,0,1,.39,0,.35.35,0,0,1,.18.34v1.15c0,.1,0,.17-.11.2a5.86,5.86,0,0,1-1.37.48A7.83,7.83,0,0,1,424,261.45Z"/><path class="cls-2" d="M435.48,254.16a3.49,3.49,0,0,1,1.59,1.29,3.54,3.54,0,0,1,.58,2,3.67,3.67,0,0,1-.26,1.38,3.48,3.48,0,0,1-.77,1.2,3.76,3.76,0,0,1-1.26.84,4.57,4.57,0,0,1-1.76.31h-4a.26.26,0,0,1-.2-.08.3.3,0,0,1-.08-.2V248.48a.27.27,0,0,1,.08-.19.27.27,0,0,1,.2-.09h3.31a4.73,4.73,0,0,1,1.68.28,3.46,3.46,0,0,1,1.19.75,3,3,0,0,1,.71,1.07,3.58,3.58,0,0,1,.23,1.27,3.25,3.25,0,0,1-.33,1.48A3.33,3.33,0,0,1,435.48,254.16Zm-4.37-4.23v3.69h1.69a2.57,2.57,0,0,0,.9-.15,2.09,2.09,0,0,0,.68-.41,1.79,1.79,0,0,0,.43-.6,1.72,1.72,0,0,0,.15-.72,1.63,1.63,0,0,0-.57-1.3,2.26,2.26,0,0,0-1.57-.51Zm2.36,9.56a2.38,2.38,0,0,0,1.73-.6,2,2,0,0,0,.61-1.48,1.93,1.93,0,0,0-.61-1.46,2.42,2.42,0,0,0-1.73-.59h-2.36v4.13Z"/><path class="cls-2" d="M447.08,258.45H441.5l-1.08,2.62a.22.22,0,0,1-.24.15H438.9a.32.32,0,0,1-.3-.46l5.47-12.59a.21.21,0,0,1,.21-.15.21.21,0,0,1,.2.15L450,260.76a.32.32,0,0,1-.3.46H448.4a.23.23,0,0,1-.24-.15Zm-.7-1.71-2.09-5-2.08,5Z"/><path class="cls-3" d="M.41,178.78a3.74,3.74,0,0,1,.67-4.33c.42-.46.77-.82.77-.82s13.32-13.28,41.32-9.78c11.28,1.42,24.8-1.07,33.82-7.07a3.73,3.73,0,0,1,5.72,3.85C80.47,171.79,73,189,50.07,195.17,29.19,200.78,8.32,193.48.41,178.78Z"/><path class="cls-2" d="M118.33,175.66a5.22,5.22,0,0,1,3.27,5,5.77,5.77,0,0,1-.39,2.08,5.21,5.21,0,0,1-1.16,1.8,5.73,5.73,0,0,1-1.9,1.26,6.86,6.86,0,0,1-2.63.47h-6a.42.42,0,0,1-.29-.12.42.42,0,0,1-.12-.3V167.15a.4.4,0,0,1,.12-.29.39.39,0,0,1,.29-.13h5a7,7,0,0,1,2.53.42,5.16,5.16,0,0,1,1.78,1.12,4.35,4.35,0,0,1,1.06,1.6,5.35,5.35,0,0,1,.35,1.91,4.9,4.9,0,0,1-.5,2.22A4.77,4.77,0,0,1,118.33,175.66Zm-6.55-6.33v5.52h2.54a3.82,3.82,0,0,0,1.35-.22,3.06,3.06,0,0,0,1-.62,2.66,2.66,0,0,0,.64-.89,2.62,2.62,0,0,0,.22-1.09,2.47,2.47,0,0,0-.85-1.95,3.45,3.45,0,0,0-2.36-.75Zm3.54,14.34a3.5,3.5,0,0,0,2.59-.91,3,3,0,0,0,.93-2.22,2.9,2.9,0,0,0-.93-2.19,3.61,3.61,0,0,0-2.59-.88h-3.54v6.2Z"/><path class="cls-2" d="M130.41,172.12a6.34,6.34,0,0,1,2.84.62,6,6,0,0,1,2.07,1.71,7.42,7.42,0,0,1,1.27,2.49,9.11,9.11,0,0,1,.38,3,.4.4,0,0,1-.42.39H126.28a4.23,4.23,0,0,0,1.53,2.63,4.64,4.64,0,0,0,3,1,7.25,7.25,0,0,0,3.77-1,.56.56,0,0,1,.57,0,.51.51,0,0,1,.27.49v1.48a.42.42,0,0,1-.14.3,7,7,0,0,1-2.07,1,9.34,9.34,0,0,1-2.54.34,7.4,7.4,0,0,1-3-.58,6.5,6.5,0,0,1-2.23-1.56,6.71,6.71,0,0,1-1.41-2.3,7.75,7.75,0,0,1-.49-2.76,7.62,7.62,0,0,1,.49-2.75,6.93,6.93,0,0,1,1.39-2.29,6.55,6.55,0,0,1,5-2.13Zm0,2.62a3.87,3.87,0,0,0-2.67,1,4.47,4.47,0,0,0-1.38,2.47h7.87a4.49,4.49,0,0,0-1.31-2.48A3.53,3.53,0,0,0,130.36,174.74Z"/><path class="cls-2" d="M152.79,172.31a.45.45,0,0,1,.42.42v13.11a.39.39,0,0,1-.13.3.4.4,0,0,1-.29.12H151a.4.4,0,0,1-.29-.12.42.42,0,0,1-.12-.3V184a6.3,6.3,0,0,1-2,1.76,5.65,5.65,0,0,1-2.77.67,6.26,6.26,0,0,1-2.65-.56,6.35,6.35,0,0,1-2.06-1.52,6.86,6.86,0,0,1-1.34-2.27,8.7,8.7,0,0,1,0-5.64,6.86,6.86,0,0,1,1.34-2.27,6.37,6.37,0,0,1,2.06-1.53,6.26,6.26,0,0,1,2.65-.55,5.54,5.54,0,0,1,2.77.67,6.27,6.27,0,0,1,2,1.75v-1.81a.4.4,0,0,1,.12-.29.37.37,0,0,1,.29-.13Zm-6.53,11.61a4,4,0,0,0,1.74-.38,4.2,4.2,0,0,0,1.37-1,4.6,4.6,0,0,0,.89-1.48,4.69,4.69,0,0,0,.33-1.75,4.74,4.74,0,0,0-.33-1.76,4.56,4.56,0,0,0-.89-1.47,4.45,4.45,0,0,0-1.37-1,4,4,0,0,0-1.74-.38,4.09,4.09,0,0,0-1.73.37,4,4,0,0,0-1.34,1,4.86,4.86,0,0,0-.88,1.46,5.07,5.07,0,0,0-.32,1.79,5.17,5.17,0,0,0,.32,1.8,5,5,0,0,0,.88,1.48,4.29,4.29,0,0,0,1.34,1A4.09,4.09,0,0,0,146.26,183.92Z"/><path class="cls-2" d="M168.72,172.31a.44.44,0,0,1,.43.23.49.49,0,0,1,0,.47l-5.69,13.08a.36.36,0,0,1-.37.23h-1.17a.34.34,0,0,1-.36-.23L155.83,173a.52.52,0,0,1,0-.47.47.47,0,0,1,.44-.23h1.84a.32.32,0,0,1,.33.23l4.08,9.9,4-9.88a.34.34,0,0,1,.34-.25Z"/><path class="cls-2" d="M177,172.12a6.3,6.3,0,0,1,2.83.62,6.16,6.16,0,0,1,2.08,1.71,7.59,7.59,0,0,1,1.26,2.49,9.11,9.11,0,0,1,.38,3,.4.4,0,0,1-.42.39H172.91a4.17,4.17,0,0,0,1.52,2.63,4.66,4.66,0,0,0,3,1,7.25,7.25,0,0,0,3.77-1,.56.56,0,0,1,.57,0,.51.51,0,0,1,.27.49v1.48a.42.42,0,0,1-.14.3,7,7,0,0,1-2.07,1,9.29,9.29,0,0,1-2.54.34,7.4,7.4,0,0,1-3-.58,6.5,6.5,0,0,1-2.23-1.56,6.71,6.71,0,0,1-1.41-2.3,7.75,7.75,0,0,1-.49-2.76,7.62,7.62,0,0,1,.49-2.75,6.93,6.93,0,0,1,1.39-2.29,6.59,6.59,0,0,1,5-2.13Zm-.06,2.62a3.87,3.87,0,0,0-2.67,1,4.47,4.47,0,0,0-1.38,2.47h7.87a4.49,4.49,0,0,0-1.31-2.48A3.53,3.53,0,0,0,177,174.74Z"/><path class="cls-2" d="M189.39,174.71a6.25,6.25,0,0,1,1.44-1.74,4,4,0,0,1,2.16-.91.33.33,0,0,1,.32.1.41.41,0,0,1,.13.32v2.15a.47.47,0,0,1-.14.35.43.43,0,0,1-.36.09,3.54,3.54,0,0,0-1.77.35,2.83,2.83,0,0,0-1.3,1.36,3.23,3.23,0,0,0-.21.58,4.16,4.16,0,0,0-.15.66c0,.21-.08.46-.12.74v7.08a.42.42,0,0,1-.12.3.4.4,0,0,1-.29.12h-1.79a.4.4,0,0,1-.29-.12.39.39,0,0,1-.13-.3V172.73a.45.45,0,0,1,.42-.42H189a.37.37,0,0,1,.29.13.4.4,0,0,1,.12.29Z"/><path class="cls-2" d="M385.11,175.33l-.43,2.66h2.06a.26.26,0,0,1,.2.08.27.27,0,0,1,.08.19V179a.27.27,0,0,1-.08.19.27.27,0,0,1-.2.09h-2.25l-.57,3.63a.23.23,0,0,1-.26.22H383a.33.33,0,0,1-.24-.1.24.24,0,0,1-.06-.25l.56-3.5H381l-.57,3.63a.23.23,0,0,1-.26.22h-.69a.33.33,0,0,1-.24-.1.26.26,0,0,1-.06-.25l.56-3.5h-1.36a.31.31,0,0,1-.28-.28v-.73a.25.25,0,0,1,.09-.19.24.24,0,0,1,.19-.08h1.55l.42-2.66h-2a.31.31,0,0,1-.28-.28v-.73a.31.31,0,0,1,.28-.28h2.18l.57-3.72a.25.25,0,0,1,.28-.22h.67a.3.3,0,0,1,.24.1.23.23,0,0,1,.06.25l-.56,3.59h2.22l.57-3.72a.25.25,0,0,1,.28-.22h.67a.3.3,0,0,1,.24.1.28.28,0,0,1,.06.25l-.56,3.59h1.43a.27.27,0,0,1,.2.09.27.27,0,0,1,.08.19v.73a.27.27,0,0,1-.08.19.27.27,0,0,1-.2.09Zm-1.27,0h-2.21L381.2,178h2.21Z"/><path class="cls-2" d="M396.45,180.35h-5.58L389.79,183a.22.22,0,0,1-.24.15h-1.28A.3.3,0,0,1,388,183a.33.33,0,0,1,0-.32l5.47-12.59a.2.2,0,0,1,.2-.15.21.21,0,0,1,.21.15l5.49,12.59a.36.36,0,0,1,0,.32.32.32,0,0,1-.28.15h-1.27a.23.23,0,0,1-.24-.15Zm-.7-1.71-2.09-5-2.08,5Z"/><path class="cls-2" d="M406.53,170.25a0,0,0,0,1,0,0v0l-4.12,12.61a.22.22,0,0,1-.24.19h-1.24a.28.28,0,0,1-.26-.13.29.29,0,0,1,0-.3l3.7-10.88h-5.43a.27.27,0,0,1-.28-.28v-1.15a.27.27,0,0,1,.28-.28h7.36a.42.42,0,0,1,.2,0A.11.11,0,0,1,406.53,170.25Z"/><path class="cls-2" d="M413.68,175.85a4,4,0,0,1,1.36,1.43,3.75,3.75,0,0,1,.5,1.88,4.4,4.4,0,0,1-.31,1.62,4.21,4.21,0,0,1-.87,1.32A4.37,4.37,0,0,1,413,183a4.56,4.56,0,0,1-1.76.32,4.49,4.49,0,0,1-1.74-.32,4.25,4.25,0,0,1-1.36-.88,3.89,3.89,0,0,1-.87-1.32,4.21,4.21,0,0,1-.31-1.62,3.85,3.85,0,0,1,.49-1.88,4.07,4.07,0,0,1,1.37-1.43,3.08,3.08,0,0,1-.86-1.1,3.25,3.25,0,0,1-.31-1.43,3.33,3.33,0,0,1,1-2.37,3.61,3.61,0,0,1,1.14-.76,4,4,0,0,1,2.94,0,3.46,3.46,0,0,1,1.13.76,3.29,3.29,0,0,1,1,2.37,3.25,3.25,0,0,1-.31,1.43A3.08,3.08,0,0,1,413.68,175.85Zm-2.44,5.74a2.61,2.61,0,0,0,1-.19,2.48,2.48,0,0,0,.8-.53,2.37,2.37,0,0,0,.52-.78,2.31,2.31,0,0,0,.19-.93,2.2,2.2,0,0,0-.19-.92,2.27,2.27,0,0,0-.52-.78,2.68,2.68,0,0,0-.8-.54,2.61,2.61,0,0,0-1-.2,2.53,2.53,0,0,0-1,.2,2.63,2.63,0,0,0-.79.54,2.45,2.45,0,0,0-.53.78,2.36,2.36,0,0,0-.18.92,2.48,2.48,0,0,0,.18.93,2.57,2.57,0,0,0,.53.78,2.44,2.44,0,0,0,.79.53A2.53,2.53,0,0,0,411.24,181.59Zm-1.82-8.18a1.75,1.75,0,0,0,.13.68,1.65,1.65,0,0,0,.37.57,1.83,1.83,0,0,0,.58.38,2,2,0,0,0,.74.14A2,2,0,0,0,412,175a1.67,1.67,0,0,0,.95-.95,1.79,1.79,0,0,0-.37-1.91,1.77,1.77,0,0,0-1.34-.52,2,2,0,0,0-.74.14,1.67,1.67,0,0,0-.58.38,1.61,1.61,0,0,0-.37.56A1.67,1.67,0,0,0,409.42,173.41Z"/><path class="cls-2" d="M421.45,174.54a4.29,4.29,0,0,1,1.82.38,4.11,4.11,0,0,1,1.39,1,4.47,4.47,0,0,1,.88,1.41,4.33,4.33,0,0,1,.32,1.62,4.49,4.49,0,0,1-.31,1.66,4,4,0,0,1-.88,1.39,4.36,4.36,0,0,1-1.4,1,4.79,4.79,0,0,1-3.29.13,4.19,4.19,0,0,1-1.24-.65,4.33,4.33,0,0,1-.93-1,4.47,4.47,0,0,1-.6-1.22.26.26,0,0,1,.15-.32l1.1-.48a.31.31,0,0,1,.25,0,.26.26,0,0,1,.16.19,3.12,3.12,0,0,0,1,1.4,2.47,2.47,0,0,0,1.62.56,2.52,2.52,0,0,0,1.05-.21,2.49,2.49,0,0,0,1.36-1.37,2.8,2.8,0,0,0,.2-1,2.84,2.84,0,0,0-.2-1.05,2.47,2.47,0,0,0-.56-.85,2.69,2.69,0,0,0-.86-.57,2.9,2.9,0,0,0-1.12-.2,2.86,2.86,0,0,0-1.37.31,3.76,3.76,0,0,0-1,.8.22.22,0,0,1-.24.08l-.6-.12c-.2-.05-.28-.16-.24-.35l1.47-6.68a.24.24,0,0,1,.26-.2h4.84a.27.27,0,0,1,.19.08.27.27,0,0,1,.09.2v1.15a.27.27,0,0,1-.09.2.27.27,0,0,1-.19.08h-3.72l-.6,3a5.8,5.8,0,0,1,.63-.16A3.79,3.79,0,0,1,421.45,174.54Z"/><path class="cls-2" d="M431.81,174.6a4.68,4.68,0,0,1,1.79.33,4.22,4.22,0,0,1,2.27,2.3,4.84,4.84,0,0,1,0,3.41A4.09,4.09,0,0,1,435,182a4.15,4.15,0,0,1-1.37.93,4.55,4.55,0,0,1-1.8.34A4.47,4.47,0,0,1,430,183a4.26,4.26,0,0,1-1.37-.93,4.12,4.12,0,0,1-.9-1.39,4.6,4.6,0,0,1-.31-1.71v0a4.57,4.57,0,0,1,.18-1.26,8.7,8.7,0,0,1,.43-1.21c.18-.39.37-.77.57-1.15s.4-.74.59-1.09c.37-.72.72-1.38,1.06-2s.67-1.27,1-2a.26.26,0,0,1,.22-.13h1.27a.31.31,0,0,1,.29.16.3.3,0,0,1,0,.34l-2.23,4.09.46-.06A3.79,3.79,0,0,1,431.81,174.6Zm0,7a2.52,2.52,0,0,0,1.05-.21,2.25,2.25,0,0,0,.82-.57,2.7,2.7,0,0,0,.54-.83,2.62,2.62,0,0,0,.2-1,2.79,2.79,0,0,0-.19-1,2.45,2.45,0,0,0-.53-.84,2.56,2.56,0,0,0-.83-.57,2.64,2.64,0,0,0-2.11,0,2.52,2.52,0,0,0-.82.57,2.61,2.61,0,0,0-.53.84,2.79,2.79,0,0,0-.18,1,2.62,2.62,0,0,0,.19,1,2.7,2.7,0,0,0,.54.83,2.25,2.25,0,0,0,.82.57A2.53,2.53,0,0,0,431.81,181.56Z"/><path class="cls-2" d="M444.72,183.34a6.59,6.59,0,0,1-2.75-.55,6.31,6.31,0,0,1-2.1-1.47,6.63,6.63,0,0,1-1.34-2.14,7.29,7.29,0,0,1,0-5.15,6.85,6.85,0,0,1,1.34-2.14,6.61,6.61,0,0,1,2.1-1.47,6.75,6.75,0,0,1,2.75-.54,7.68,7.68,0,0,1,1.57.15,7.12,7.12,0,0,1,1.37.46.26.26,0,0,1,.13.22v1.16a.33.33,0,0,1-.19.33.37.37,0,0,1-.39,0,5.25,5.25,0,0,0-1.1-.42,5.69,5.69,0,0,0-1.37-.15,4.6,4.6,0,0,0-2,.41,4.73,4.73,0,0,0-1.54,1.09,5.06,5.06,0,0,0-1,1.6,5.2,5.2,0,0,0-.36,1.92,5.11,5.11,0,0,0,.36,1.91,4.85,4.85,0,0,0,1,1.6,4.74,4.74,0,0,0,3.53,1.51,5.21,5.21,0,0,0,1.37-.16,4.34,4.34,0,0,0,1.1-.42.39.39,0,0,1,.39,0,.33.33,0,0,1,.19.33v1.15a.22.22,0,0,1-.11.21,6.08,6.08,0,0,1-1.38.47A7.11,7.11,0,0,1,444.72,183.34Z"/><path class="cls-4" d="M.41,335a3.74,3.74,0,0,1,.67-4.33c.42-.46.77-.82.77-.82s13.32-13.28,41.32-9.78C54.45,321.47,68,319,77,313a3.73,3.73,0,0,1,5.72,3.85C80.47,328,73,345.21,50.07,351.37,29.19,357,8.32,349.68.41,335Z"/><path class="cls-2" d="M134.46,324.22a.5.5,0,0,1,.45.22.5.5,0,0,1,0,.5l-9.16,19a.32.32,0,0,1-.3.22.33.33,0,0,1-.34-.22l-4-8.62L117,344a.32.32,0,0,1-.33.22.36.36,0,0,1-.34-.22l-9.15-19a.5.5,0,0,1,0-.5.48.48,0,0,1,.45-.22l1.87,0a.35.35,0,0,1,.36.22l6.83,14.73,3-6.36-3.65-7.87a.41.41,0,0,1,0-.47.47.47,0,0,1,.44-.22l1.73,0a.33.33,0,0,1,.36.22l2.49,5.72,2.48-5.72a.35.35,0,0,1,.36-.22l1.76,0a.49.49,0,0,1,.45.22.44.44,0,0,1,0,.47l-3.69,7.9,3,6.36,6.84-14.76a.33.33,0,0,1,.36-.22Z"/><path class="cls-2" d="M143.33,329.52a5.05,5.05,0,0,1,2,.39,4.91,4.91,0,0,1,1.66,1.15,5.79,5.79,0,0,1,1.16,1.94,8.12,8.12,0,0,1,.43,2.74v7.59a.37.37,0,0,1-.13.29.41.41,0,0,1-.29.13h-1.78a.43.43,0,0,1-.3-.13.4.4,0,0,1-.12-.29v-7.2a4.58,4.58,0,0,0-1-3.15,3.13,3.13,0,0,0-2.46-1.06,3.29,3.29,0,0,0-1.69.43,3.12,3.12,0,0,0-1.18,1.3,3.47,3.47,0,0,0-.22.65c-.08.27-.14.54-.19.8s-.09.56-.15.92v7.31a.4.4,0,0,1-.12.29.45.45,0,0,1-.3.13h-1.78a.45.45,0,0,1-.3-.13.4.4,0,0,1-.12-.29V321.84a.4.4,0,0,1,.12-.29.45.45,0,0,1,.3-.13h1.78a.45.45,0,0,1,.3.13.4.4,0,0,1,.12.29v9.94a5,5,0,0,1,1.69-1.62A4.85,4.85,0,0,1,143.33,329.52Z"/><path class="cls-2" d="M154.24,327.17a1.71,1.71,0,0,1-1.28-.51,1.78,1.78,0,0,1-.5-1.3,1.79,1.79,0,0,1,3.57,0,1.79,1.79,0,0,1-.51,1.3A1.71,1.71,0,0,1,154.24,327.17Zm-1.31,3a.37.37,0,0,1,.13-.29.4.4,0,0,1,.29-.12h1.78a.42.42,0,0,1,.3.12.4.4,0,0,1,.12.29v13.12a.4.4,0,0,1-.12.29.43.43,0,0,1-.3.13h-1.78a.41.41,0,0,1-.29-.13.37.37,0,0,1-.13-.29Z"/><path class="cls-2" d="M166.24,331.89a.37.37,0,0,1-.13.29.41.41,0,0,1-.29.13h-2.46v11a.4.4,0,0,1-.12.29.43.43,0,0,1-.29.13h-1.79a.41.41,0,0,1-.29-.13.37.37,0,0,1-.13-.29v-11h-1.37a.41.41,0,0,1-.29-.13.4.4,0,0,1-.12-.29v-1.68a.41.41,0,0,1,.41-.41h1.37v-3.32a.39.39,0,0,1,.13-.3.4.4,0,0,1,.29-.12H163a.42.42,0,0,1,.29.12.42.42,0,0,1,.12.3v3.32h2.46a.4.4,0,0,1,.29.12.37.37,0,0,1,.13.29Z"/><path class="cls-2" d="M174.13,329.6a6.21,6.21,0,0,1,2.84.63,6,6,0,0,1,2.07,1.7,7.47,7.47,0,0,1,1.27,2.5,9.05,9.05,0,0,1,.38,3,.4.4,0,0,1-.42.39H170a4.22,4.22,0,0,0,1.53,2.64,4.69,4.69,0,0,0,3,1,7.2,7.2,0,0,0,2-.27,7.55,7.55,0,0,0,1.73-.73.54.54,0,0,1,.57,0,.52.52,0,0,1,.27.49v1.48a.46.46,0,0,1-.14.31,7.27,7.27,0,0,1-2.07.94,9,9,0,0,1-2.54.34,7.4,7.4,0,0,1-3-.57,6.52,6.52,0,0,1-2.23-1.57,6.61,6.61,0,0,1-1.41-2.3,8,8,0,0,1,0-5.51,7,7,0,0,1,1.39-2.29,6.55,6.55,0,0,1,4.95-2.13Zm0,2.62a3.87,3.87,0,0,0-2.67,1,4.51,4.51,0,0,0-1.38,2.47h7.87a4.49,4.49,0,0,0-1.31-2.48A3.53,3.53,0,0,0,174.08,332.22Z"/><path class="cls-2" d="M202.79,344.08a10,10,0,0,1-4.13-.82,9.64,9.64,0,0,1-5.15-5.42,10.85,10.85,0,0,1,0-7.72,9.64,9.64,0,0,1,5.15-5.42,10,10,0,0,1,4.13-.82,10.74,10.74,0,0,1,2.35.24,10.37,10.37,0,0,1,2.06.68.4.4,0,0,1,.19.34v1.73a.51.51,0,0,1-.28.5.56.56,0,0,1-.58-.06,7.65,7.65,0,0,0-1.65-.63,8.65,8.65,0,0,0-2.06-.23,7.07,7.07,0,0,0-3,.61,7.23,7.23,0,0,0-2.3,1.65,7.41,7.41,0,0,0-1.49,2.4,8,8,0,0,0,0,5.74,7.24,7.24,0,0,0,3.79,4,7.07,7.07,0,0,0,3,.61,8.65,8.65,0,0,0,2.06-.23,7.65,7.65,0,0,0,1.65-.63.56.56,0,0,1,.58-.06.51.51,0,0,1,.28.5v1.73a.3.3,0,0,1-.17.31,8.66,8.66,0,0,1-2.06.71A11.06,11.06,0,0,1,202.79,344.08Z"/><path class="cls-2" d="M217.49,329.52a5.09,5.09,0,0,1,2,.39,4.91,4.91,0,0,1,1.66,1.15,5.79,5.79,0,0,1,1.16,1.94,8.12,8.12,0,0,1,.43,2.74v7.59a.37.37,0,0,1-.13.29.41.41,0,0,1-.29.13H220.5a.41.41,0,0,1-.29-.13.4.4,0,0,1-.12-.29v-7.2a4.58,4.58,0,0,0-1-3.15,3.14,3.14,0,0,0-2.46-1.06,3.29,3.29,0,0,0-1.69.43,3.12,3.12,0,0,0-1.18,1.3,4.27,4.27,0,0,0-.23.65c-.07.27-.13.54-.18.8s-.09.56-.15.92v7.31a.37.37,0,0,1-.13.29.41.41,0,0,1-.29.13h-1.78a.43.43,0,0,1-.3-.13.4.4,0,0,1-.12-.29V321.84a.4.4,0,0,1,.12-.29.43.43,0,0,1,.3-.13h1.78a.41.41,0,0,1,.29.13.37.37,0,0,1,.13.29v9.94a5,5,0,0,1,1.69-1.62A4.83,4.83,0,0,1,217.49,329.52Z"/><path class="cls-2" d="M232.7,344a6.94,6.94,0,0,1-2.89-.59,7.2,7.2,0,0,1-2.25-1.56,6.75,6.75,0,0,1-1.46-2.29,7.58,7.58,0,0,1,0-5.52,6.75,6.75,0,0,1,1.46-2.29,7.2,7.2,0,0,1,2.25-1.56,7.35,7.35,0,0,1,5.77,0,7.2,7.2,0,0,1,2.25,1.56,6.75,6.75,0,0,1,1.46,2.29,7.58,7.58,0,0,1,0,5.52,6.75,6.75,0,0,1-1.46,2.29,7.2,7.2,0,0,1-2.25,1.56A6.9,6.9,0,0,1,232.7,344Zm0-2.62a4.25,4.25,0,0,0,1.81-.38,4.56,4.56,0,0,0,1.4-1,4.25,4.25,0,0,0,.89-1.46,5.17,5.17,0,0,0,.3-1.76,5.05,5.05,0,0,0-.3-1.74,4.4,4.4,0,0,0-.89-1.45,4.34,4.34,0,0,0-1.4-1,4.4,4.4,0,0,0-1.81-.37,4.46,4.46,0,0,0-1.8.37,4.18,4.18,0,0,0-1.41,1,4.45,4.45,0,0,0-.91,1.45,4.84,4.84,0,0,0-.32,1.74,5,5,0,0,0,.32,1.76,4.29,4.29,0,0,0,.91,1.46,4.38,4.38,0,0,0,1.41,1A4.3,4.3,0,0,0,232.7,341.35Z"/><path class="cls-2" d="M249.32,344a7.08,7.08,0,0,1-2.92-.59,7,7,0,0,1-2.25-1.56,6.85,6.85,0,0,1-1.44-2.29,7.87,7.87,0,0,1,0-5.52,6.85,6.85,0,0,1,1.44-2.29,7,7,0,0,1,2.25-1.56,7.08,7.08,0,0,1,2.92-.59,7.43,7.43,0,0,1,2.4.34,6.19,6.19,0,0,1,1.82.95.4.4,0,0,1,.14.27v1.57a.54.54,0,0,1-.32.55.61.61,0,0,1-.66-.11,6.37,6.37,0,0,0-1.44-.68,5.28,5.28,0,0,0-1.71-.27,4.91,4.91,0,0,0-1.9.37,4.3,4.3,0,0,0-2.43,2.42,4.86,4.86,0,0,0-.33,1.79,4.72,4.72,0,0,0,.33,1.77,4.56,4.56,0,0,0,.95,1.45,4.37,4.37,0,0,0,1.48,1,4.74,4.74,0,0,0,1.9.37,5.28,5.28,0,0,0,1.71-.27,6.37,6.37,0,0,0,1.44-.68.61.61,0,0,1,.66-.11.54.54,0,0,1,.32.55v1.57a.31.31,0,0,1-.11.25,6.46,6.46,0,0,1-1.82,1A7.52,7.52,0,0,1,249.32,344Z"/><path class="cls-2" d="M263.44,344a7,7,0,0,1-2.89-.59,7.27,7.27,0,0,1-2.24-1.56,6.93,6.93,0,0,1-1.47-2.29,7.72,7.72,0,0,1,0-5.52,6.93,6.93,0,0,1,1.47-2.29,7.27,7.27,0,0,1,2.24-1.56,7.37,7.37,0,0,1,5.78,0,7.31,7.31,0,0,1,2.25,1.56A6.75,6.75,0,0,1,270,334a7.58,7.58,0,0,1,0,5.52,6.75,6.75,0,0,1-1.46,2.29,7.31,7.31,0,0,1-2.25,1.56A6.94,6.94,0,0,1,263.44,344Zm0-2.62a4.29,4.29,0,0,0,1.82-.38,4.4,4.4,0,0,0,1.39-1,4.1,4.1,0,0,0,.89-1.46,4.94,4.94,0,0,0,.31-1.76,4.83,4.83,0,0,0-.31-1.74,4.27,4.27,0,0,0-2.28-2.44,4.61,4.61,0,0,0-3.62,0,4.18,4.18,0,0,0-1.41,1,4.42,4.42,0,0,0-.9,1.45,4.63,4.63,0,0,0-.32,1.74,4.74,4.74,0,0,0,.32,1.76,4.27,4.27,0,0,0,.9,1.46,4.38,4.38,0,0,0,1.41,1A4.3,4.3,0,0,0,263.44,341.35Z"/><path class="cls-2" d="M273.82,321.84a.37.37,0,0,1,.13-.29.41.41,0,0,1,.29-.13H276a.43.43,0,0,1,.29.13.4.4,0,0,1,.12.29v21.49a.4.4,0,0,1-.12.29.43.43,0,0,1-.29.13h-1.79a.41.41,0,0,1-.29-.13.37.37,0,0,1-.13-.29Z"/><path class="cls-2" d="M293.24,329.8a.4.4,0,0,1,.29.12.37.37,0,0,1,.13.29v13.12a.37.37,0,0,1-.13.29.41.41,0,0,1-.29.13h-1.79a.41.41,0,0,1-.29-.13.4.4,0,0,1-.12-.29v-1.82a6.3,6.3,0,0,1-2,1.76,5.54,5.54,0,0,1-2.77.67,6.26,6.26,0,0,1-2.65-.56,6.35,6.35,0,0,1-2.06-1.52,6.86,6.86,0,0,1-1.34-2.27,8.7,8.7,0,0,1,0-5.64,6.86,6.86,0,0,1,1.34-2.27,6.35,6.35,0,0,1,2.06-1.52,6.26,6.26,0,0,1,2.65-.56,5.54,5.54,0,0,1,2.77.67,6.3,6.3,0,0,1,2,1.76v-1.82a.41.41,0,0,1,.41-.41Zm-6.53,11.6a4,4,0,0,0,1.74-.37,4.38,4.38,0,0,0,1.37-1,4.71,4.71,0,0,0,.89-1.48,4.86,4.86,0,0,0,0-3.52,4.51,4.51,0,0,0-.89-1.46,4.21,4.21,0,0,0-1.37-1,4,4,0,0,0-1.74-.37,4.09,4.09,0,0,0-1.73.36,4,4,0,0,0-1.34,1,5,5,0,0,0-.88,1.46,5.07,5.07,0,0,0-.32,1.79,5.17,5.17,0,0,0,.32,1.8,4.84,4.84,0,0,0,.88,1.48,4,4,0,0,0,1.34,1A4.09,4.09,0,0,0,286.71,341.4Z"/><path class="cls-2" d="M303.87,331.89a.37.37,0,0,1-.13.29.41.41,0,0,1-.29.13H301v11a.45.45,0,0,1-.42.42h-1.79a.41.41,0,0,1-.29-.13.37.37,0,0,1-.13-.29v-11H297a.43.43,0,0,1-.3-.13.4.4,0,0,1-.12-.29v-1.68a.4.4,0,0,1,.12-.29.42.42,0,0,1,.3-.12h1.36v-3.32a.39.39,0,0,1,.13-.3.4.4,0,0,1,.29-.12h1.79a.4.4,0,0,1,.29.12.43.43,0,0,1,.13.3v3.32h2.45a.4.4,0,0,1,.29.12.37.37,0,0,1,.13.29Z"/><path class="cls-2" d="M311.77,329.6a6.17,6.17,0,0,1,2.83.63,6,6,0,0,1,2.08,1.7,7.86,7.86,0,0,1,1.27,2.5,9.32,9.32,0,0,1,.37,3c0,.26-.17.39-.42.39H307.64a4.17,4.17,0,0,0,1.52,2.64,4.73,4.73,0,0,0,3,1,7.2,7.2,0,0,0,2-.27,7.55,7.55,0,0,0,1.73-.73.54.54,0,0,1,.57,0,.52.52,0,0,1,.27.49v1.48a.46.46,0,0,1-.14.31,7.14,7.14,0,0,1-2.07.94A8.92,8.92,0,0,1,312,344a7.4,7.4,0,0,1-3-.57,6.7,6.7,0,0,1-3.64-3.87,8,8,0,0,1,0-5.51,7,7,0,0,1,1.39-2.29,6.59,6.59,0,0,1,5-2.13Zm-.06,2.62a3.83,3.83,0,0,0-2.66,1,4.46,4.46,0,0,0-1.39,2.47h7.87a4.49,4.49,0,0,0-1.31-2.48A3.53,3.53,0,0,0,311.71,332.22Z"/><path class="cls-2" d="M384,331.52l-.43,2.66h2.07a.25.25,0,0,1,.19.09.24.24,0,0,1,.08.19v.73a.24.24,0,0,1-.08.19.25.25,0,0,1-.19.09h-2.26l-.57,3.63a.23.23,0,0,1-.26.22h-.69a.33.33,0,0,1-.24-.1.28.28,0,0,1-.06-.25l.56-3.5H380l-.58,3.63a.23.23,0,0,1-.26.22h-.69a.33.33,0,0,1-.24-.1.28.28,0,0,1-.06-.25l.56-3.5h-1.36a.31.31,0,0,1-.28-.28v-.73a.31.31,0,0,1,.28-.28h1.55l.43-2.66h-2a.24.24,0,0,1-.19-.08.25.25,0,0,1-.09-.19v-.73a.31.31,0,0,1,.28-.28h2.18l.58-3.72c0-.15.11-.22.28-.22H381a.33.33,0,0,1,.24.1.25.25,0,0,1,.05.25l-.56,3.59H383l.57-3.72a.25.25,0,0,1,.28-.22h.67a.33.33,0,0,1,.25.1.25.25,0,0,1,.05.25l-.56,3.59h1.44a.25.25,0,0,1,.19.09.24.24,0,0,1,.08.19v.73a.27.27,0,0,1-.27.27Zm-1.27,0h-2.21l-.43,2.66h2.22Z"/><path class="cls-2" d="M390.2,328v4.3h3.42a.24.24,0,0,1,.19.08.27.27,0,0,1,.09.2v1.15a.31.31,0,0,1-.28.28H390.2v5a.31.31,0,0,1-.28.28h-1.21a.27.27,0,0,1-.2-.09.27.27,0,0,1-.08-.19V326.58a.27.27,0,0,1,.28-.28h6.41a.3.3,0,0,1,.2.08.26.26,0,0,1,.08.2v1.15a.27.27,0,0,1-.08.2.3.3,0,0,1-.2.08Z"/><path class="cls-2" d="M400.61,339.5a3.57,3.57,0,0,1-2-.53,4,4,0,0,1-1.31-1.46,6.76,6.76,0,0,1-.73-2.13,15.12,15.12,0,0,1,0-5.14,7.13,7.13,0,0,1,.73-2.13,4,4,0,0,1,1.31-1.46,3.49,3.49,0,0,1,2-.54,3.43,3.43,0,0,1,2,.54,4,4,0,0,1,1.3,1.46,7.13,7.13,0,0,1,.73,2.13,15.12,15.12,0,0,1,0,5.14,6.76,6.76,0,0,1-.73,2.13,4,4,0,0,1-1.3,1.46A3.51,3.51,0,0,1,400.61,339.5Zm0-1.74a1.76,1.76,0,0,0,1.2-.43,3,3,0,0,0,.76-1.13,5.61,5.61,0,0,0,.4-1.59,13.39,13.39,0,0,0,.11-1.8A13.64,13.64,0,0,0,403,331a5.79,5.79,0,0,0-.4-1.59,3,3,0,0,0-.76-1.12,1.72,1.72,0,0,0-1.2-.43,1.79,1.79,0,0,0-1.23.43,3,3,0,0,0-.76,1.12,6.17,6.17,0,0,0-.39,1.59,15.57,15.57,0,0,0-.11,1.81,15.26,15.26,0,0,0,.11,1.8,6,6,0,0,0,.39,1.59,3,3,0,0,0,.76,1.13A1.84,1.84,0,0,0,400.61,337.76Z"/><path class="cls-2" d="M409,328v3.83h3.87a.3.3,0,0,1,.2.08.32.32,0,0,1,.08.2v1.13a.3.3,0,0,1-.08.2.26.26,0,0,1-.2.08H409v4.08h5.1a.27.27,0,0,1,.19.08.27.27,0,0,1,.09.2V339a.31.31,0,0,1-.28.28h-6.59a.26.26,0,0,1-.19-.09.24.24,0,0,1-.08-.19V326.58a.26.26,0,0,1,.08-.2.29.29,0,0,1,.19-.08h6.59a.27.27,0,0,1,.19.08.27.27,0,0,1,.09.2v1.15a.28.28,0,0,1-.09.2.27.27,0,0,1-.19.08Z"/><path class="cls-2" d="M420.22,330.8a4.63,4.63,0,0,1,1.78.33,4.39,4.39,0,0,1,1.38.92,4.25,4.25,0,0,1,.89,1.38,4.7,4.7,0,0,1,0,3.41,4.07,4.07,0,0,1-.88,1.39,4.2,4.2,0,0,1-1.38.93,4.53,4.53,0,0,1-1.79.34,4.33,4.33,0,0,1-3.15-1.27,4.09,4.09,0,0,1-.89-1.39,4.6,4.6,0,0,1-.32-1.71v0a4.51,4.51,0,0,1,.18-1.26,8.75,8.75,0,0,1,.44-1.21c.17-.39.36-.77.56-1.15l.59-1.09c.37-.72.73-1.39,1.06-2s.68-1.27,1-2a.28.28,0,0,1,.23-.13h1.26a.31.31,0,0,1,.3.16.34.34,0,0,1,0,.34l-2.23,4.09.45-.06A4,4,0,0,1,420.22,330.8Zm0,7a2.59,2.59,0,0,0,1-.21,2.33,2.33,0,0,0,.82-.57,2.87,2.87,0,0,0,.53-.83,2.62,2.62,0,0,0,.2-1,2.59,2.59,0,0,0-.19-1,2.45,2.45,0,0,0-.53-.84,2.7,2.7,0,0,0-.82-.58,2.67,2.67,0,0,0-1.06-.21,2.52,2.52,0,0,0-1.05.21,2.7,2.7,0,0,0-.82.58,2.45,2.45,0,0,0-.53.84,2.59,2.59,0,0,0-.19,1,2.62,2.62,0,0,0,.2,1,2.7,2.7,0,0,0,.54.83,2.21,2.21,0,0,0,.81.57A2.54,2.54,0,0,0,420.22,337.76Z"/><path class="cls-2" d="M430.35,326.3a7.26,7.26,0,0,1,2.76.5,6,6,0,0,1,2,1.39,6.09,6.09,0,0,1,1.29,2.06,7.26,7.26,0,0,1,.44,2.52,7.34,7.34,0,0,1-.44,2.55,6.18,6.18,0,0,1-1.29,2.08,5.92,5.92,0,0,1-2,1.41,7.07,7.07,0,0,1-2.76.51h-3.14a.28.28,0,0,1-.2-.09.27.27,0,0,1-.08-.19V326.58a.3.3,0,0,1,.08-.2.32.32,0,0,1,.2-.08Zm0,11.29a4.81,4.81,0,0,0,2-.39,4.69,4.69,0,0,0,1.49-1,4.38,4.38,0,0,0,.93-1.54,5.57,5.57,0,0,0,0-3.72,4.22,4.22,0,0,0-.93-1.5,4.32,4.32,0,0,0-1.49-1,5.16,5.16,0,0,0-2-.36H428.7v9.56Z"/><path class="cls-2" d="M445.94,336.55h-5.58l-1.08,2.62a.23.23,0,0,1-.24.15h-1.28a.3.3,0,0,1-.28-.15.31.31,0,0,1,0-.32l5.47-12.59a.19.19,0,0,1,.2-.15.21.21,0,0,1,.21.15l5.48,12.59a.31.31,0,0,1,0,.32.29.29,0,0,1-.27.15h-1.27a.23.23,0,0,1-.24-.15Zm-.71-1.71-2.08-5-2.08,5Z"/><path class="cls-5" d="M.41,100.72a3.72,3.72,0,0,1,.67-4.32c.42-.47.77-.82.77-.82S15.17,82.3,43.17,85.8C54.45,87.21,68,84.73,77,78.73a3.73,3.73,0,0,1,5.72,3.85C80.47,93.74,73,111,50.07,117.12,29.19,122.73,8.32,115.43.41,100.72Z"/><path class="cls-2" d="M126.79,109.58a.35.35,0,0,1-.39-.31l-2.65-12.22-5.36,12.53a.29.29,0,0,1-.28.22.31.31,0,0,1-.31-.22l-5.27-12.39-2.48,12a.36.36,0,0,1-.39.34h-1.85a.46.46,0,0,1-.36-.17.42.42,0,0,1-.08-.39l4.13-19c0-.21.12-.31.25-.31a.31.31,0,0,1,.31.22l6,14.62,6-14.62a.29.29,0,0,1,.28-.22c.15,0,.24.1.28.31L129,109a.42.42,0,0,1-.08.39.48.48,0,0,1-.37.17Z"/><path class="cls-2" d="M143.08,95.63a.4.4,0,0,1,.29.12.39.39,0,0,1,.13.3v13.11a.37.37,0,0,1-.13.29.41.41,0,0,1-.29.13H141.3a.43.43,0,0,1-.3-.13.4.4,0,0,1-.12-.29v-1.54a4.84,4.84,0,0,1-1.69,1.61,4.92,4.92,0,0,1-2.53.63,5,5,0,0,1-2-.39,4.89,4.89,0,0,1-1.66-1.16,5.54,5.54,0,0,1-1.16-1.94,7.84,7.84,0,0,1-.43-2.74V96.05a.42.42,0,0,1,.12-.3.42.42,0,0,1,.29-.12h1.79a.4.4,0,0,1,.29.12.39.39,0,0,1,.13.3v7.19a4.58,4.58,0,0,0,1,3.16,3.35,3.35,0,0,0,4.89,0,4.53,4.53,0,0,0,1-3.16V96.05a.41.41,0,0,1,.42-.42Z"/><path class="cls-2" d="M160.27,87.26a.4.4,0,0,1,.29.12.43.43,0,0,1,.13.29v21.49a.45.45,0,0,1-.42.42h-1.79a.41.41,0,0,1-.29-.13.37.37,0,0,1-.13-.29v-1.82a6.18,6.18,0,0,1-2,1.76,5.53,5.53,0,0,1-2.76.67,6.21,6.21,0,0,1-4.71-2.08,6.69,6.69,0,0,1-1.34-2.27,8.52,8.52,0,0,1,0-5.64,6.69,6.69,0,0,1,1.34-2.27,6.21,6.21,0,0,1,4.71-2.08,5.53,5.53,0,0,1,2.76.67,6.3,6.3,0,0,1,2,1.76V87.67a.39.39,0,0,1,.13-.29.4.4,0,0,1,.29-.12Zm-6.53,20a4,4,0,0,0,1.74-.37,4.2,4.2,0,0,0,1.37-1,4.89,4.89,0,0,0,1.21-3.24,4.77,4.77,0,0,0-.32-1.76,4.62,4.62,0,0,0-.89-1.46,4.47,4.47,0,0,0-1.37-1,4,4,0,0,0-1.74-.37,4.09,4.09,0,0,0-1.73.36,4,4,0,0,0-1.34,1,4.72,4.72,0,0,0-.88,1.47,5,5,0,0,0-.32,1.78,5.17,5.17,0,0,0,.32,1.8,4.65,4.65,0,0,0,.88,1.48,4,4,0,0,0,1.34,1A4.09,4.09,0,0,0,153.74,107.23Z"/><path class="cls-2" d="M389.09,97.28l-.43,2.66h2.06a.27.27,0,0,1,.2.09.27.27,0,0,1,.08.19V101a.27.27,0,0,1-.08.19.27.27,0,0,1-.2.09h-2.25l-.57,3.62a.23.23,0,0,1-.26.23H387a.3.3,0,0,1-.24-.11.23.23,0,0,1-.06-.25l.56-3.49H385l-.57,3.62a.23.23,0,0,1-.26.23h-.69a.3.3,0,0,1-.24-.11.27.27,0,0,1-.06-.25l.56-3.49h-1.36a.31.31,0,0,1-.28-.28v-.73a.31.31,0,0,1,.28-.28h1.55l.42-2.66h-2a.27.27,0,0,1-.19-.08.27.27,0,0,1-.09-.2v-.72a.27.27,0,0,1,.09-.2.27.27,0,0,1,.19-.08h2.18l.57-3.72a.25.25,0,0,1,.28-.22h.67a.33.33,0,0,1,.25.1.25.25,0,0,1,.05.25L385.81,96H388l.57-3.72a.25.25,0,0,1,.28-.22h.67a.3.3,0,0,1,.24.1.25.25,0,0,1,.06.25L389.29,96h1.43a.27.27,0,0,1,.28.28V97a.27.27,0,0,1-.28.28Zm-1.27,0h-2.21l-.43,2.66h2.21Z"/><path class="cls-2" d="M399.76,92.2s0,0,0,0,0,0,0,0l-4.11,12.61a.23.23,0,0,1-.24.19h-1.24a.3.3,0,0,1-.26-.13.29.29,0,0,1,0-.3l3.7-10.88h-5.43a.27.27,0,0,1-.2-.09.27.27,0,0,1-.08-.19V92.33a.27.27,0,0,1,.08-.19.26.26,0,0,1,.2-.08h7.36a.6.6,0,0,1,.2,0C399.74,92.12,399.76,92.15,399.76,92.2Z"/><path class="cls-2" d="M408,92.2s0,0,0,0,0,0,0,0l-4.11,12.61a.23.23,0,0,1-.24.19h-1.24a.3.3,0,0,1-.26-.13.29.29,0,0,1,0-.3l3.7-10.88h-5.43a.27.27,0,0,1-.2-.09.27.27,0,0,1-.08-.19V92.33a.27.27,0,0,1,.08-.19.26.26,0,0,1,.2-.08h7.36a.6.6,0,0,1,.2,0C408,92.12,408,92.15,408,92.2Z"/><path class="cls-2" d="M412.65,96.5a4.25,4.25,0,0,1,3.21,1.36,4.76,4.76,0,0,1,.89,1.4,4.37,4.37,0,0,1,.31,1.63,4.52,4.52,0,0,1-.31,1.66,4.11,4.11,0,0,1-.88,1.39,4.31,4.31,0,0,1-1.39,1,4.53,4.53,0,0,1-1.83.36,4.71,4.71,0,0,1-1.47-.23,4.25,4.25,0,0,1-1.23-.65,4.41,4.41,0,0,1-1.54-2.21.24.24,0,0,1,.15-.31l1.1-.49a.36.36,0,0,1,.25,0,.3.3,0,0,1,.16.2,3.17,3.17,0,0,0,1,1.39,2.42,2.42,0,0,0,1.62.56,2.52,2.52,0,0,0,1.05-.2,2.62,2.62,0,0,0,.82-.55,2.48,2.48,0,0,0,.54-.83,2.75,2.75,0,0,0,.2-1,2.84,2.84,0,0,0-.2-1,2.46,2.46,0,0,0-.56-.86,2.51,2.51,0,0,0-.86-.56,2.9,2.9,0,0,0-1.12-.21,2.82,2.82,0,0,0-1.36.32,3.66,3.66,0,0,0-1,.8.21.21,0,0,1-.24.07l-.6-.11a.28.28,0,0,1-.24-.35l1.47-6.68a.23.23,0,0,1,.26-.2h4.84a.24.24,0,0,1,.19.08.25.25,0,0,1,.09.19v1.16a.31.31,0,0,1-.28.28h-3.72l-.6,3a5.81,5.81,0,0,1,.63-.15A3.11,3.11,0,0,1,412.65,96.5Z"/><path class="cls-2" d="M426.62,102.3H421L420,104.93a.23.23,0,0,1-.24.15h-1.28a.3.3,0,0,1-.28-.15.33.33,0,0,1,0-.32L423.61,92a.2.2,0,0,1,.2-.15A.21.21,0,0,1,424,92l5.48,12.59a.33.33,0,0,1,0,.32.32.32,0,0,1-.28.15h-1.27a.23.23,0,0,1-.24-.15Zm-.71-1.71-2.08-5-2.08,5Z"/><path class="cls-2" d="M438.53,102.53a.31.31,0,0,1-.28.28h-1.1v2a.27.27,0,0,1-.08.19.28.28,0,0,1-.2.09h-1.19a.28.28,0,0,1-.2-.09.27.27,0,0,1-.08-.19v-2h-5.24a.27.27,0,0,1-.2-.09.24.24,0,0,1-.08-.19v-.93a.16.16,0,0,1,0-.11l5.34-9.34a.25.25,0,0,1,.23-.13h1.39a.32.32,0,0,1,.2.08.3.3,0,0,1,.08.2v8.83h1.1a.31.31,0,0,1,.28.28Zm-3.13-1.4V95L432,101.13Z"/><path class="cls-2" d="M443.72,91.85s0,0,.06.08a.64.64,0,0,1,0,.2V104.8a.31.31,0,0,1-.28.28h-1.19a.27.27,0,0,1-.2-.09.27.27,0,0,1-.08-.19v-10l-1.47.91a.27.27,0,0,1-.23,0,.34.34,0,0,1-.18-.15l-.52-1a.27.27,0,0,1,.09-.37l3.82-2.38a.21.21,0,0,1,.11,0Z"/><path class="cls-6" d="M.41,22.62a3.72,3.72,0,0,1,.67-4.32c.42-.47.77-.82.77-.82S15.17,4.19,43.17,7.7C54.45,9.11,68,6.63,77,.63a3.72,3.72,0,0,1,5.72,3.84C80.47,15.63,73,32.85,50.07,39,29.19,44.62,8.32,37.33.41,22.62Z"/><path class="cls-2" d="M118.42,31.85a10.15,10.15,0,0,1-4.13-.82,9.64,9.64,0,0,1-5.15-5.42,10.87,10.87,0,0,1,0-7.73,9.75,9.75,0,0,1,2-3.2,9.63,9.63,0,0,1,3.14-2.21,10,10,0,0,1,4.13-.82,10.74,10.74,0,0,1,2.35.24,9.49,9.49,0,0,1,2,.68.38.38,0,0,1,.2.33v1.73a.52.52,0,0,1-.28.51.56.56,0,0,1-.58-.06,7.65,7.65,0,0,0-1.65-.63,8.68,8.68,0,0,0-2.07-.23,7.06,7.06,0,0,0-3,.61,7.23,7.23,0,0,0-2.3,1.65,7.39,7.39,0,0,0-1.5,2.4,8,8,0,0,0,0,5.74,7.61,7.61,0,0,0,1.5,2.4,7.23,7.23,0,0,0,2.3,1.65,7.06,7.06,0,0,0,3,.61,8.68,8.68,0,0,0,2.07-.23,7.65,7.65,0,0,0,1.65-.63.56.56,0,0,1,.58-.06.5.5,0,0,1,.28.5v1.73a.32.32,0,0,1-.17.31,9.12,9.12,0,0,1-2.06.71A11.06,11.06,0,0,1,118.42,31.85Z"/><path class="cls-2" d="M138.34,17.56a.45.45,0,0,1,.42.42V31.1a.41.41,0,0,1-.13.29.4.4,0,0,1-.29.12h-1.79a.4.4,0,0,1-.29-.12.41.41,0,0,1-.13-.29V29.28a6.3,6.3,0,0,1-2,1.76,5.53,5.53,0,0,1-2.76.67,6.21,6.21,0,0,1-4.71-2.08,6.69,6.69,0,0,1-1.34-2.27,8.52,8.52,0,0,1,0-5.64,6.69,6.69,0,0,1,1.34-2.27,6.24,6.24,0,0,1,2.06-1.52,6.11,6.11,0,0,1,2.65-.56,5.53,5.53,0,0,1,2.76.67,6.18,6.18,0,0,1,2,1.76V18a.45.45,0,0,1,.42-.42Zm-6.53,11.61a3.89,3.89,0,0,0,1.74-.38,4.32,4.32,0,0,0,1.37-1,4.83,4.83,0,0,0,.89-1.48,5,5,0,0,0,0-3.52,4.51,4.51,0,0,0-.89-1.46,4.32,4.32,0,0,0-1.37-1,4,4,0,0,0-1.74-.37,4.09,4.09,0,0,0-1.73.36,4,4,0,0,0-1.34,1,4.78,4.78,0,0,0-.88,1.46,5.07,5.07,0,0,0-.32,1.79,5.17,5.17,0,0,0,.32,1.8,4.65,4.65,0,0,0,.88,1.48,4,4,0,0,0,1.34,1A4.09,4.09,0,0,0,131.81,29.17Z"/><path class="cls-2" d="M147.27,11.84a1.12,1.12,0,0,0-.83.33,1.31,1.31,0,0,0-.32,1v4.43h2.43a.41.41,0,0,1,.29.13A.37.37,0,0,1,149,18v1.68a.37.37,0,0,1-.13.29.41.41,0,0,1-.29.13h-2.43v11a.4.4,0,0,1-.12.29.44.44,0,0,1-.3.12h-1.81a.4.4,0,0,1-.29-.12.37.37,0,0,1-.13-.29v-11H142.1a.41.41,0,0,1-.29-.13.4.4,0,0,1-.12-.29V18a.4.4,0,0,1,.12-.29.41.41,0,0,1,.29-.13h1.37V12.49a3.64,3.64,0,0,1,.82-2.54,2.9,2.9,0,0,1,2.25-.9,4.72,4.72,0,0,1,1.21.16,7.73,7.73,0,0,1,1,.32.41.41,0,0,1,.23.36v1.68a.46.46,0,0,1-.64.47A3.1,3.1,0,0,0,147.27,11.84Z"/><path class="cls-2" d="M156.86,17.37a6.21,6.21,0,0,1,2.84.63,5.9,5.9,0,0,1,2.07,1.7A7.56,7.56,0,0,1,163,22.2a9,9,0,0,1,.38,3,.4.4,0,0,1-.42.39H152.73a4.28,4.28,0,0,0,1.52,2.64,4.74,4.74,0,0,0,3,1,7.25,7.25,0,0,0,3.77-1,.56.56,0,0,1,.57,0,.52.52,0,0,1,.27.49v1.48a.42.42,0,0,1-.14.3,7,7,0,0,1-2.07.95,9,9,0,0,1-2.54.34,7.4,7.4,0,0,1-3-.57,6.7,6.7,0,0,1-3.64-3.87,8,8,0,0,1,0-5.51,7,7,0,0,1,1.39-2.29,6.55,6.55,0,0,1,5-2.13ZM156.81,20a3.87,3.87,0,0,0-2.67,1,4.51,4.51,0,0,0-1.38,2.47h7.87a4.49,4.49,0,0,0-1.31-2.48A3.53,3.53,0,0,0,156.81,20Zm1.11-4.71a.29.29,0,0,1-.3.16h-1.17a.52.52,0,0,1-.47-.25.53.53,0,0,1,0-.53l2.12-3.76a.38.38,0,0,1,.34-.2H160a.53.53,0,0,1,.52.28.52.52,0,0,1-.07.59Z"/><path class="cls-2" d="M191.71,12a.41.41,0,0,1,.29.13.37.37,0,0,1,.13.29v19a.65.65,0,0,1-.06.29c0,.09-.07.13-.11.13h-.05a.28.28,0,0,1-.25-.11L178.85,18.09v13a.37.37,0,0,1-.13.29.4.4,0,0,1-.29.12h-1.79a.42.42,0,0,1-.29-.12.4.4,0,0,1-.12-.29v-19a.58.58,0,0,1,.07-.3q.06-.12.12-.12a.32.32,0,0,1,.28.11l12.81,13.89V12.4a.4.4,0,0,1,.12-.29.43.43,0,0,1,.3-.13Z"/><path class="cls-2" d="M202.48,31.74a7,7,0,0,1-2.89-.59,7.27,7.27,0,0,1-2.24-1.56,6.77,6.77,0,0,1-1.47-2.29,7.72,7.72,0,0,1,0-5.52,6.77,6.77,0,0,1,1.47-2.29,7.27,7.27,0,0,1,2.24-1.56,7.37,7.37,0,0,1,5.78,0,7.27,7.27,0,0,1,2.24,1.56,6.77,6.77,0,0,1,1.47,2.29,7.58,7.58,0,0,1,0,5.52,6.77,6.77,0,0,1-1.47,2.29,7.27,7.27,0,0,1-2.24,1.56A7,7,0,0,1,202.48,31.74Zm0-2.63a4.25,4.25,0,0,0,1.81-.37,4.44,4.44,0,0,0,1.4-1,4.1,4.1,0,0,0,.89-1.46,4.94,4.94,0,0,0,.31-1.76,4.83,4.83,0,0,0-.31-1.74,4.3,4.3,0,0,0-4.1-2.81,4.3,4.3,0,0,0-1.8.37,4.18,4.18,0,0,0-1.41,1,4.42,4.42,0,0,0-.9,1.45,4.64,4.64,0,0,0-.33,1.74,4.74,4.74,0,0,0,.33,1.76,4.27,4.27,0,0,0,.9,1.46,4.38,4.38,0,0,0,1.41,1A4.3,4.3,0,0,0,202.48,29.11Z"/><path class="cls-2" d="M214.64,14.94a1.73,1.73,0,0,1-1.28-.51,1.82,1.82,0,0,1-.5-1.3,1.71,1.71,0,0,1,.5-1.24,1.85,1.85,0,0,1,2.57,0,1.71,1.71,0,0,1,.5,1.24,1.82,1.82,0,0,1-.5,1.3A1.73,1.73,0,0,1,214.64,14.94Zm-1.31,3a.45.45,0,0,1,.42-.42h1.79A.45.45,0,0,1,216,18V31.1a.41.41,0,0,1-.13.29.4.4,0,0,1-.29.12h-1.79a.4.4,0,0,1-.29-.12.41.41,0,0,1-.13-.29Z"/><path class="cls-2" d="M223.21,20a5.92,5.92,0,0,1,1.44-1.74,4,4,0,0,1,2.16-.91.36.36,0,0,1,.32.1.44.44,0,0,1,.13.32v2.15a.43.43,0,0,1-.51.45,3.55,3.55,0,0,0-1.77.34,2.92,2.92,0,0,0-1.3,1.36,4.86,4.86,0,0,0-.2.58,6.29,6.29,0,0,0-.16.66c0,.21-.07.46-.11.74V31.1a.37.37,0,0,1-.13.29.4.4,0,0,1-.29.12H221a.42.42,0,0,1-.3-.12.4.4,0,0,1-.12-.29V18a.4.4,0,0,1,.12-.29.43.43,0,0,1,.3-.13h1.78a.41.41,0,0,1,.29.13.37.37,0,0,1,.13.29Z"/><path class="cls-2" d="M386.83,19.29,386.4,22h2.06a.27.27,0,0,1,.28.28V23a.27.27,0,0,1-.28.28h-2.25l-.57,3.63a.23.23,0,0,1-.26.22h-.69a.3.3,0,0,1-.24-.1.23.23,0,0,1-.06-.25l.56-3.5h-2.22l-.57,3.63c0,.15-.1.22-.26.22h-.69A.3.3,0,0,1,381,27a.28.28,0,0,1-.06-.25l.56-3.5h-1.36a.27.27,0,0,1-.19-.08.27.27,0,0,1-.09-.2v-.72a.27.27,0,0,1,.09-.2.27.27,0,0,1,.19-.08h1.55l.42-2.66h-2a.27.27,0,0,1-.19-.08.28.28,0,0,1-.09-.2v-.73a.26.26,0,0,1,.09-.19.24.24,0,0,1,.19-.08h2.18l.57-3.72a.26.26,0,0,1,.28-.23h.67a.34.34,0,0,1,.25.11.24.24,0,0,1,.05.25L383.55,18h2.22l.57-3.72a.26.26,0,0,1,.28-.23h.67a.3.3,0,0,1,.24.11.25.25,0,0,1,.06.25L387,18h1.43a.26.26,0,0,1,.2.08.29.29,0,0,1,.08.19V19a.32.32,0,0,1-.08.2.3.3,0,0,1-.2.08Zm-1.27,0h-2.21L382.92,22h2.21Z"/><path class="cls-2" d="M398.4,24.53a.27.27,0,0,1-.09.2.24.24,0,0,1-.19.08H397v2a.27.27,0,0,1-.28.28h-1.19a.32.32,0,0,1-.2-.08.3.3,0,0,1-.08-.2v-2H390a.27.27,0,0,1-.28-.28V23.6a.2.2,0,0,1,0-.11l5.34-9.33a.25.25,0,0,1,.23-.13h1.39a.26.26,0,0,1,.2.08.29.29,0,0,1,.08.19v8.84h1.1a.27.27,0,0,1,.19.08.27.27,0,0,1,.09.2Zm-3.13-1.39V17l-3.38,6.18Z"/><path class="cls-2" d="M408.22,18.28a4.46,4.46,0,0,1-.18,1.26,8.3,8.3,0,0,1-.44,1.21c-.17.39-.36.77-.56,1.15L406.45,23c-.37.72-.72,1.39-1.05,2s-.67,1.27-1,2a.28.28,0,0,1-.23.13h-1.26a.31.31,0,0,1-.3-.16.34.34,0,0,1,0-.34l2.23-4.09-.45.06a4,4,0,0,1-.5,0,4.65,4.65,0,0,1-1.77-.33,4.32,4.32,0,0,1-1.39-.92,4.15,4.15,0,0,1-.89-1.38,4.55,4.55,0,0,1-.32-1.7,4.6,4.6,0,0,1,.32-1.71,4.07,4.07,0,0,1,.88-1.39,4.2,4.2,0,0,1,1.38-.93,4.53,4.53,0,0,1,1.79-.34A4.33,4.33,0,0,1,407,15.15a4.09,4.09,0,0,1,.89,1.39,4.6,4.6,0,0,1,.32,1.71Zm-7-.05a2.59,2.59,0,0,0,.19,1,2.45,2.45,0,0,0,.53.84,2.7,2.7,0,0,0,.82.58,2.67,2.67,0,0,0,1.06.21,2.61,2.61,0,0,0,1.06-.21,2.78,2.78,0,0,0,.81-.58,2.45,2.45,0,0,0,.53-.84,2.71,2.71,0,0,0,0-2,2.82,2.82,0,0,0-.53-.82,2.63,2.63,0,0,0-.82-.57,2.54,2.54,0,0,0-1-.2,2.59,2.59,0,0,0-1.05.2,2.47,2.47,0,0,0-.81.57,2.66,2.66,0,0,0-.54.82A2.6,2.6,0,0,0,401.26,18.23Z"/><path class="cls-2" d="M409.48,27a.18.18,0,0,1,.06-.13c.7-.87,1.4-1.73,2.07-2.6l2.08-2.66.71-.9a7.5,7.5,0,0,0,.61-.9,4.79,4.79,0,0,0,.41-.93,2.94,2.94,0,0,0,.16-1,2.2,2.2,0,0,0-.16-.84,2.11,2.11,0,0,0-.46-.72,2.47,2.47,0,0,0-.74-.52,2.47,2.47,0,0,0-2.64.48,3.07,3.07,0,0,0-.83,1.71.44.44,0,0,1-.14.22.28.28,0,0,1-.25,0l-1.08-.32a.28.28,0,0,1-.15-.11.19.19,0,0,1,0-.16,4.84,4.84,0,0,1,.41-1.44,4,4,0,0,1,.85-1.21,4.11,4.11,0,0,1,2.91-1.15,4.05,4.05,0,0,1,1.69.34,4,4,0,0,1,1.3.88,3.89,3.89,0,0,1,.83,1.26,4,4,0,0,1,.29,1.48,4.08,4.08,0,0,1-.16,1.17,6.26,6.26,0,0,1-.42,1.07,7.53,7.53,0,0,1-.61,1q-.36.49-.75,1c-.43.56-.87,1.12-1.33,1.68s-.9,1.11-1.34,1.67h4.48a.31.31,0,0,1,.28.28V26.8a.27.27,0,0,1-.09.2.27.27,0,0,1-.19.08h-7.48a.54.54,0,0,1-.19,0C409.51,27,409.48,27,409.48,27Z"/><path class="cls-2" d="M423.26,14.06a7.26,7.26,0,0,1,2.76.5,5.91,5.91,0,0,1,2,1.39A6.14,6.14,0,0,1,429.35,18a7.18,7.18,0,0,1,.44,2.52,7.33,7.33,0,0,1-.44,2.54,6.22,6.22,0,0,1-1.29,2.09,5.93,5.93,0,0,1-2,1.4,7.07,7.07,0,0,1-2.76.51h-3.14a.27.27,0,0,1-.19-.08.27.27,0,0,1-.09-.2V14.34a.31.31,0,0,1,.28-.28Zm0,11.29a4.81,4.81,0,0,0,2-.39,4.58,4.58,0,0,0,1.49-1,4.25,4.25,0,0,0,.93-1.53,5.49,5.49,0,0,0,.32-1.85,5.4,5.4,0,0,0-.32-1.87,4.26,4.26,0,0,0-.93-1.51,4.21,4.21,0,0,0-1.49-1,5,5,0,0,0-2-.37h-1.67v9.56Z"/><path class="cls-2" d="M435.61,13.86s.05,0,.07.08a.6.6,0,0,1,0,.2V26.8a.27.27,0,0,1-.09.2.27.27,0,0,1-.19.08h-1.19a.27.27,0,0,1-.28-.28v-10l-1.47.91a.24.24,0,0,1-.23,0,.28.28,0,0,1-.18-.14l-.52-1a.27.27,0,0,1,.09-.37l3.82-2.38a.21.21,0,0,1,.11,0Z"/><path class="cls-2" d="M438,27a.18.18,0,0,1,.06-.13c.71-.87,1.4-1.73,2.07-2.6l2.08-2.66.71-.9a7.5,7.5,0,0,0,.61-.9,5.53,5.53,0,0,0,.42-.93,3.21,3.21,0,0,0,.15-1A2.4,2.4,0,0,0,444,17a2.14,2.14,0,0,0-.47-.72,2.42,2.42,0,0,0-.73-.52,2.33,2.33,0,0,0-1-.19,2.28,2.28,0,0,0-1.68.67A3.07,3.07,0,0,0,439.3,18a.38.38,0,0,1-.14.22.27.27,0,0,1-.25,0l-1.08-.32a.33.33,0,0,1-.15-.11.19.19,0,0,1,0-.16,4.84,4.84,0,0,1,.41-1.44A4,4,0,0,1,438.9,15a4.11,4.11,0,0,1,2.91-1.15,4.05,4.05,0,0,1,1.69.34,4,4,0,0,1,1.3.88,3.89,3.89,0,0,1,.83,1.26,4,4,0,0,1,.29,1.48,4.08,4.08,0,0,1-.16,1.17,5,5,0,0,1-.42,1.07,7.53,7.53,0,0,1-.61,1c-.24.33-.48.66-.75,1-.43.56-.87,1.12-1.33,1.68s-.9,1.11-1.34,1.67h4.48a.31.31,0,0,1,.28.28V26.8a.27.27,0,0,1-.09.2.27.27,0,0,1-.19.08h-7.48a.54.54,0,0,1-.19,0C438.06,27,438,27,438,27Z"/></svg>