<?xml version="1.0" encoding="utf-8"?>
<!-- Generator: Adobe Illustrator 26.1.0, SVG Export Plug-In . SVG Version: 6.00 Build 0)  -->
<svg version="1.1" id="Livello_1" xmlns="http://www.w3.org/2000/svg" xmlns:xlink="http://www.w3.org/1999/xlink" x="0px" y="0px"
	 viewBox="0 0 255 500" style="enable-background:new 0 0 255 500;" xml:space="preserve">
<style type="text/css">
	.st0{fill-rule:evenodd;clip-rule:evenodd;fill:#FFFFFF;}
	.st1{fill:none;}
</style>
<g>
	<path d="M176.3,0.2L77.8,49.6v37.5c32.8-16.4,65.7-32.9,98.5-49.3V0.2z"/>
	<polygon points="183.2,55.6 83.1,105.7 149.2,188.5 249.3,138.4 	"/>
	<polygon points="65.8,114.4 30.4,132.1 30.4,132.1 	"/>
	<polyline points="-0.4,448.5 137.2,500.2 137.2,207 -0.4,155.3 	"/>
	<path d="M254.6,157c-32.8,16.4-65.7,32.9-98.5,49.3v292.3l98.5-49.3V157z"/>
	<g id="Icons1_00000161596637981705054170000016545198900909909175_">
		<g id="Strike_00000033332791571903804330000001095101127174071962_">
		</g>
		<g id="H1_00000072238939389712210600000014429842215850911886_">
		</g>
		<g id="H2_00000089536404318541936440000001804701036339595685_">
		</g>
		<g id="H3_00000105418454728968404080000008894713017185604029_">
		</g>
		<g id="list-ul_00000065063880855393676460000007342064789494697900_">
		</g>
		<g id="hamburger-1_00000021097048906555926460000014420608775629383309_">
		</g>
		<g id="hamburger-2_00000070098876459756380960000016689198243306952108_">
		</g>
		<g id="list-ol_00000139264237552483331620000008916839078638482305_">
		</g>
		<g id="list-task_00000039817824239340524230000009130658608776059036_">
		</g>
		<g id="trash_00000060713515433431975580000001486061904671574692_">
		</g>
		<g id="vertical-menu_00000012472842489453300540000016465186804431228081_">
		</g>
		<g id="horizontal-menu_00000018956162314601604300000002921506888879049100_">
		</g>
		<g id="sidebar-2_00000045612659046876262080000001849622447913257385_">
		</g>
		<g id="Pen_00000108269042223151405850000003749673484626363044_">
		</g>
		<g id="Pen1_00000096755812635512767510000011538259237883521699_">
		</g>
		<g id="clock_00000134949119663721986750000011601963703972001949_">
		</g>
		<g id="external-link_00000064313791324801246140000017623145696911160204_">
		</g>
		<g id="hr_00000046301953860673689720000011763982721999791248_">
		</g>
		<g id="info_00000042697771312620587870000011180023595427100803_">
		</g>
		<g id="warning_00000051360191402095712470000008004005793785913472_">
		</g>
		<g id="plus-circle_00000096779057659790580750000010830097922135991442_">
		</g>
		<g id="minus-circle_00000130626829548868927370000004068956033396609929_">
		</g>
		<g id="vue_00000134939675189922642130000002096373574421101985_">
		</g>
		<g id="cog_00000118374703042185986480000005706270979942517675_">
		</g>
		<g id="logo_00000000911203141647156600000010743595771580021179_">
		</g>
		<g id="radio-check_00000037689460459688818270000001134304604333882246_">
		</g>
		<g id="eye-slash_00000009569789079072921230000013552297011288276907_">
		</g>
		<g id="eye_00000139256723486928974430000016716650292434740619_">
		</g>
		<g id="toggle-off_00000183211947946427010290000001504870648673955995_">
		</g>
		<g id="shredder_00000111876049834299548660000012225758953094537357_">
		</g>
		<g id="spinner--loading--dots-_00000028314598189478264340000018096055027221385642_">
		</g>
		<g id="react_00000051352672452474318900000017051939087314186409_">
		</g>
		<g id="check-selected_00000148625529631173205030000017339663986017627542_">
		</g>
		<g id="turn-off_00000120524664055015621500000004043968291745934475_">
		</g>
		<g id="code-block_00000172426504523150271560000002894822079942859177_">
		</g>
		<g id="user_00000021840452077103618940000012169505939544027530_">
		</g>
		<g id="coffee-bean_00000034775130897080529890000006137517828510280073_">
		</g>
		<g transform="matrix(0.638317,0.368532,-0.368532,0.638317,785.021,-208.975)">
			<g id="coffee-beans_00000122713132052822553090000013167542148284198842_">
				<g id="coffee-bean1_00000079469604236595416200000000328151188437641395_">
				</g>
			</g>
		</g>
		
			<g id="coffee-bean-filled_00000160190447790864475680000012449573613544323484_" transform="matrix(0.866025,0.5,-0.5,0.866025,717.879,-387.292)">
			<g transform="matrix(1,0,0,1,0,-0.699553)">
				<path class="st0" d="M-232.9,910.5c1.2-0.2,2.7,0.4,3.7,1.4c0.5,0.4,0.8,0.8,0.8,0.8s12.6,12.4,11,31.3
					c-0.6,7.7,2.4,17.9,8.3,25.7c0.8,1,0.9,2.2,0.3,2.8c-0.6,0.7-1.9,0.8-3.2,0.3c-10.1-4-26.1-13.1-33-30.9
					C-251,925.9-245.6,912.8-232.9,910.5z"/>
			</g>
			<g transform="matrix(-1,0,0,-1,1483.03,703.293)">
				<g>
					<path class="st0" d="M1678.9-271.7c1.2-0.2,2.8,0.4,3.9,1.4c0.4,0.4,0.8,0.7,0.8,0.7s12.6,12.4,11,31.3
						c-0.6,7.7,2.3,17.7,8.2,25.5c0.8,1.1,0.9,2.2,0.2,2.9c-0.7,0.7-2,0.8-3.3,0.3c-10.1-4.1-25.9-13.1-32.6-30.7
						C1660.9-256.2,1666.2-269.3,1678.9-271.7z"/>
				</g>
			</g>
		</g>
		<g transform="matrix(0.638317,0.368532,-0.368532,0.638317,913.062,-208.975)">
			<g id="coffee-beans-filled_00000169545944551604361990000008178965512067400889_">
				<g id="coffee-bean2_00000039111277605252608750000011541309804080653725_">
				</g>
			</g>
		</g>
		<g id="clipboard_00000167388668033200856900000001708057044115310997_">
		</g>
		<g transform="matrix(1,0,0,1,128.011,1.35415)">
			<g id="clipboard-paste_00000127041893549573839910000011211039783708875709_">
			</g>
		</g>
		<g id="clipboard-copy_00000055688626452983072410000014487508876757294752_">
		</g>
		<g id="Layer1_00000075850180213162220860000008499045381632360845_">
		</g>
	</g>
	<line class="st1" x1="116.4" y1="178.5" x2="49.6" y2="153.8"/>
	<polygon points="117.7,179.4 49.6,153.8 13.6,140.5 30.4,132.1 65.8,114.4 79.9,132.1 95.2,151.2 	"/>
</g>
</svg>
