<?xml version="1.0" encoding="utf-8"?>
<!-- Generator: Adobe Illustrator 26.1.0, SVG Export Plug-In . SVG Version: 6.00 Build 0)  -->
<svg version="1.1" id="Livello_1" xmlns="http://www.w3.org/2000/svg" xmlns:xlink="http://www.w3.org/1999/xlink" x="0px" y="0px"
	 viewBox="0 0 500 150" style="enable-background:new 0 0 500 150;" xml:space="preserve">
<style type="text/css">
	.st0{fill-rule:evenodd;clip-rule:evenodd;fill:#492D12;}
	.st1{fill:#492D12;}
</style>
<g>
	<g id="Icons1-5">
		<g id="coffee-bean-filled-5">
			<path class="st0" d="M92.3,2.2c2.6,0.9,4.3,3.2,4.3,5.9c0,1.2,0,2.2,0,2.2s0,33-38.6,63.4C42.3,86.1,28.7,106.2,25.2,125
				c-0.5,2.5-2.4,4.5-4.9,5c-2.5,0.5-5-0.5-6.4-2.7C2.9,110.8-9.6,80,11.2,43.4C30,10.5,64.6-6.4,92.3,2.2z"/>
			<path class="st0" d="M38,147.6c-2.7-0.9-4.5-3.4-4.5-6.2c-0.1-1.1-0.1-2-0.1-2s0-33,38.6-63.4c15.6-12.3,29.1-32.1,32.8-50.7
				c0.5-2.6,2.5-4.6,5.1-5.1c2.6-0.5,5.2,0.6,6.6,2.8c10.9,16.6,22.9,47.2,2.3,83.4C100.1,139.2,65.6,156.1,38,147.6z"/>
		</g>
	</g>
	<path class="st1" d="M177,50.9c1.7,0.7,5.8,1.7,8.8,0.2c1.8-0.9,8.1-5,9.5,2.5c0.7,3.9-3.4,15.9-18.7,16.2
		c-17,0.3-29.8-15.3-29.8-34.4s13.8-34.6,30.8-34.6c14.3,0,24,5.1,25.9,23c0.4,3.4,0,7.7-9.5,8.5c-8.9,0.7-9.6-5.6-9.7-8.2
		c-0.4-5.8-5.8-5.8-6.7-5.8c-5,0.1-9.1,9-9.1,16.9S172.3,49,177,50.9z"/>
	<path class="st1" d="M262.6,35.4c0,19.2-12.1,34.8-27,34.8s-27-15.6-27-34.8s12.1-34.8,27-34.8S262.6,16.2,262.6,35.4z M245.3,35.4
		c0-8.5-4.3-15.4-9.6-15.4s-9.6,6.9-9.6,15.4s4.3,15.4,9.6,15.4S245.3,43.9,245.3,35.4L245.3,35.4z"/>
	<path class="st1" d="M288.4,59.8c0.1,2.1,0.9,4.1,2.3,5.8c0.5,0.6,0.4,1.4-0.2,1.9c0,0-0.1,0-0.1,0.1c-3,1.7-6.5,2.5-9.9,2.2
		c-11.1-0.8-10.1-12.5-10.1-12.5V14.8c-0.3-6.8-1.9-7.7,0.2-9.8c5.2-5.4,14.1-4.9,14.1-4.9L312.4,0c8.2-0.2,7.1,0.8,7.1,8.1
		c0,11.3-12.1,10.2-12.1,10.2h-16c-2.6-0.1-3.2,1.1-3.1,2.7v7.6h12.9c2.1-0.1,4.1-0.9,5.7-2.3c0.6-0.5,1.4-0.4,1.9,0.1
		c0,0,0.1,0.1,0.1,0.1c1.7,3,2.5,6.5,2.1,10c-0.8,11.2-12.4,10.2-12.4,10.2h-10.3V59.8z"/>
	<path class="st1" d="M344.1,59.8c0.1,2.1,0.9,4.1,2.3,5.8c0.5,0.6,0.4,1.4-0.2,1.9c0,0-0.1,0.1-0.1,0.1c-3,1.7-6.5,2.5-9.9,2.2
		c-11.1-0.8-10.1-12.5-10.1-12.5V14.8c-0.3-6.8-1.9-7.7,0.2-9.8c5.2-5.4,14.1-4.9,14.1-4.9L368.1,0c8.2-0.2,7.1,0.8,7.1,8.1
		c0,11.3-12.1,10.2-12.1,10.2h-16c-2.6-0.1-3.2,1.1-3.1,2.7v7.6H357c2.1-0.1,4.1-0.9,5.7-2.3c0.6-0.5,1.4-0.4,1.9,0.2
		c0,0,0.1,0.1,0.1,0.1c1.7,3,2.4,6.5,2.1,10c-0.8,11.2-12.4,10.2-12.4,10.2h-10.3V59.8z"/>
	<path class="st1" d="M399.6,45.1c0,0-0.9,9.3,10.9,9c8.2-0.3,10.9-2.9,12.1-4.5c1.8-2.4,4.4,1.4,5.1,3.7c0.4,1.6,0.4,3.2,0,4.8
		c-2,8.5-8.9,11.3-22.6,12.1c-24.4,1.5-23.5-20.9-23.5-20.9V14.8c-0.3-6.8-1.9-7.7,0.2-9.8c5.2-5.4,14.1-4.9,14.1-4.9L425.1,0
		c8.2-0.2,7.1,0.8,7.1,8.1c0,11.3-12.1,10.2-12.1,10.2h-18.1c-1.5-0.1-2.6,0.4-2.5,2.3v5.9h12.9c2.1-0.1,4.1-0.9,5.7-2.3
		c0.6-0.5,1.4-0.4,1.9,0.1c0,0,0.1,0.1,0.1,0.1c1.7,3,2.5,6.5,2.1,10c-0.8,11.3-12.4,10.2-12.4,10.2h-10.3V45.1z"/>
	<path class="st1" d="M457.3,45.1c0,0-0.9,9.3,10.9,9c8.2-0.3,10.9-2.9,12.1-4.5c1.8-2.4,4.4,1.4,5.2,3.7c0.4,1.6,0.4,3.2,0,4.8
		c-2,8.5-8.9,11.3-22.6,12.1c-24.4,1.5-23.5-20.9-23.5-20.9V14.8C439,8,437.3,7.1,439.4,5c5.2-5.4,14.1-4.9,14.1-4.9L482.8,0
		c8.2-0.2,7.1,0.8,7.1,8.1c0,11.3-12.1,10.2-12.1,10.2h-18.2c-1.5-0.1-2.6,0.4-2.5,2.3v5.9h12.9c2.1-0.1,4.1-0.9,5.7-2.3
		c0.6-0.5,1.4-0.4,1.9,0.1c0,0,0.1,0.1,0.1,0.1c1.7,3,2.5,6.5,2.1,10c-0.8,11.3-12.4,10.2-12.4,10.2h-10.3V45.1z"/>
	<path class="st1" d="M177,130.6c1.7,0.7,5.8,1.7,8.8,0.2c1.8-0.9,8.1-5,9.5,2.5c0.7,3.9-3.4,15.9-18.7,16.2
		c-17,0.3-29.8-15.3-29.8-34.4s13.8-34.6,30.8-34.6c14.3,0,24,5.1,25.9,23c0.4,3.4,0,7.7-9.5,8.5c-8.9,0.7-9.6-5.6-9.7-8.2
		c-0.4-5.8-5.8-5.8-6.7-5.8c-5,0.1-9.1,9-9.1,16.9S172.3,128.7,177,130.6z"/>
	<path class="st1" d="M262.6,115.2c0,19.2-12.1,34.8-27,34.8s-27-15.6-27-34.8s12.1-34.8,27-34.8S262.6,96,262.6,115.2z
		 M245.3,115.2c0-8.5-4.3-15.4-9.6-15.4s-9.6,6.9-9.6,15.4s4.3,15.4,9.6,15.4S245.3,123.7,245.3,115.2L245.3,115.2z"/>
	<path class="st1" d="M313.9,149.4c-6,0.7-13.3-2.1-15.2-11.4c-1.1-5.5-0.4-15.4-9.9-12.6h-0.2l-0.3,11.9c0.3,7,2.1,8.1-0.2,10.1
		c-3.2,2.8-7,2.5-9.3,2.1c-9.6-1.5-8.4-14.9-8.4-14.9l0.3-40.6c-0.3-6.9-2.1-8,0.2-9.9c0.8-0.7,1.7-1.2,2.6-1.6
		c2.8-0.8,5.7-1.6,12.5-1.8c12.6-0.3,29.4,1.2,30.4,18.7c0.5,8.8-2,14.6-5.8,18.4c4.3,5.8,4.1,13,4.3,14.2c0.6,3.5-0.4,7.1,5.7,7.4
		C323.4,139.4,321.6,148.5,313.9,149.4z M300.7,102.4c0.1-6.9-5.7-7.3-6.3-7.4c-1.5-0.1-3,0.1-4.1,0.1c-2.3,0-1.8,2.2-1.8,2.2v11.2
		c0,0-0.2,1.7,1.1,1.7c1,0,2.5,0.1,4.7-0.1C295.1,110.1,300.6,109.5,300.7,102.4L300.7,102.4z"/>
	<path class="st1" d="M347.6,85.9c1.6,2.5,5.5,10.1,5.5,10.1l10.1,17.2V92.8c-0.3-6.8-2.1-7.9,0.2-9.9c3.2-2.7,6.9-2.4,9.2-2.1
		c9.5,1.4,8.6,14.6,8.6,14.6v44c0,0,0.1,3.6,2.3,5.8c0.5,0.6,0.4,1.5-0.2,1.9c0,0-0.1,0-0.1,0.1c-1,0.6-2,1.1-3.2,1.4
		c-3.9,1.2-8,1.3-12,0.4c-5.9-1.4-8.8-8.2-8.8-8.2l-12.4-21v19.6c0.1,2.1,0.9,4.1,2.3,5.8c0.5,0.6,0.4,1.5-0.2,2c0,0,0,0,0,0
		c-3,1.7-6.5,2.5-9.9,2.2c-11.1-0.8-10.1-12.6-10.1-12.6v-44c-0.3-6.8-2.1-7.9,0.2-9.9c2.3-1.9,5.5-3,10.4-2.6
		C343.2,80.6,345.8,83.3,347.6,85.9z"/>
	<path class="st1" d="M408.8,124.8c0,0-0.9,9.3,10.9,9c8.2-0.3,10.9-2.9,12.1-4.5c1.8-2.4,4.4,1.4,5.2,3.7c0.4,1.6,0.4,3.2,0,4.8
		c-2,8.5-8.9,11.3-22.6,12.1c-24.4,1.5-23.5-20.9-23.5-20.9V94.6c-0.3-6.8-1.9-7.7,0.2-9.8c5.2-5.4,14.1-4.9,14.1-4.9l29.3-0.1
		c8.2-0.2,7.1,0.8,7.1,8.1c0,11.3-12.1,10.2-12.1,10.2h-18.2c-1.5-0.1-2.6,0.4-2.5,2.3v5.9h12.9c2.1-0.1,4.1-0.9,5.7-2.3
		c0.6-0.5,1.4-0.4,1.9,0.2c0,0,0.1,0.1,0.1,0.1c1.7,3,2.5,6.5,2.1,10c-0.8,11.2-12.4,10.2-12.4,10.2h-10.3V124.8z"/>
	<path class="st1" d="M492.1,149.4c-6,0.7-13.2-2.1-15.2-11.4c-1.1-5.5-0.4-15.4-9.9-12.6h-0.2l-0.4,11.9c0.3,7,2.1,8.1-0.2,10.1
		c-3.2,2.8-7,2.5-9.3,2.1c-9.6-1.5-8.4-14.9-8.4-14.9l0.3-40.6c-0.3-6.9-2.1-8,0.2-9.9c0.8-0.7,1.7-1.2,2.6-1.6
		c2.8-0.8,5.7-1.6,12.5-1.8c12.6-0.3,29.4,1.2,30.4,18.7c0.5,8.8-2,14.6-5.8,18.4c4.3,5.8,4.1,13,4.3,14.2c0.6,3.5-0.4,7.1,5.7,7.4
		C501.6,139.4,499.8,148.5,492.1,149.4z M478.9,102.4c0.1-6.9-5.7-7.3-6.3-7.4c-1.5-0.1-3,0.1-4.1,0.1c-2.3,0-1.8,2.2-1.8,2.2v11.2
		c0,0-0.2,1.7,1.1,1.7c1,0,2.5,0.1,4.7-0.1C473.3,110.1,478.8,109.5,478.9,102.4L478.9,102.4z"/>
</g>
</svg>
