<svg width="290" height="25" viewBox="0 0 290 25" fill="none" xmlns="http://www.w3.org/2000/svg">
<path fill-rule="evenodd" clip-rule="evenodd" d="M15.4045 0.370388C15.6127 0.439696 15.7939 0.572719 15.9224 0.750643C16.0509 0.928568 16.1202 1.14239 16.1205 1.36186C16.1205 1.56049 16.1205 1.72241 16.1205 1.72241C16.1205 1.72241 16.1205 7.2306 9.67594 12.3048C7.06371 14.3679 4.792 17.7229 4.19945 20.8642C4.16224 21.0681 4.06525 21.2563 3.9208 21.4049C3.77635 21.5535 3.59098 21.6558 3.38824 21.6988C3.18569 21.741 2.97513 21.7212 2.78399 21.642C2.59285 21.5628 2.42999 21.4279 2.31664 21.2548C0.482245 18.4941 -1.59919 13.3531 1.87098 7.2473C5.00732 1.74911 10.7776 -1.06174 15.4045 0.370388Z" fill="#492D12"/>
<path fill-rule="evenodd" clip-rule="evenodd" d="M6.34276 24.6398C6.12512 24.5684 5.93563 24.43 5.80133 24.2445C5.66704 24.0589 5.59481 23.8357 5.59498 23.6066C5.58496 23.423 5.58496 23.2728 5.58496 23.2728C5.58496 23.2728 5.58496 17.7646 12.0312 12.6904C14.6268 10.6457 16.8801 7.3324 17.4994 4.2211C17.5398 4.01036 17.642 3.81641 17.793 3.66394C17.944 3.51146 18.137 3.40734 18.3473 3.36483C18.5575 3.32272 18.7756 3.34495 18.973 3.42862C19.1704 3.51229 19.338 3.6535 19.4539 3.83386C21.275 6.60966 23.2763 11.7139 19.8429 17.7479C16.7149 23.2361 10.958 26.0486 6.34276 24.6398Z" fill="#492D12"/>
<path d="M37.7251 18.1154C38.3264 18.3645 39.8032 18.7097 40.8707 18.1937C41.5255 17.8735 43.7673 16.4145 44.2654 19.0869C44.5288 20.4782 43.0662 24.7412 37.6005 24.8444C31.5512 24.9583 27 19.3858 27 12.5999C27 5.814 31.9106 0.305573 37.9599 0.305573C43.0485 0.305573 46.5001 2.13104 47.1798 8.48993C47.3079 9.69267 47.1798 11.237 43.785 11.5217C40.6252 11.785 40.3868 9.529 40.3263 8.61092C40.1946 6.53637 38.2695 6.55772 37.9599 6.56484C36.1807 6.60398 34.7218 9.7674 34.7218 12.5821C34.7218 15.3968 36.0668 17.4358 37.7251 18.1154Z" fill="#492D12"/>
<path d="M68.1998 12.6106C68.1998 19.4499 63.8977 25.001 58.5921 25.001C53.2865 25.001 48.9844 19.4499 48.9844 12.6106C48.9844 5.77131 53.2829 0.216614 58.5921 0.216614C63.9013 0.216614 68.1998 5.77131 68.1998 12.6106ZM62.0189 12.6106C62.0189 9.58593 60.4852 7.12707 58.5992 7.12707C56.7133 7.12707 55.1831 9.58593 55.1831 12.6106C55.1831 15.6352 56.7133 18.0905 58.5992 18.0905C60.4852 18.0905 62.0189 15.6352 62.0189 12.6106Z" fill="#492D12"/>
<path d="M77.3763 21.2646C77.4193 22.0162 77.7038 22.7339 78.1876 23.3107C78.2306 23.3628 78.2623 23.4233 78.2806 23.4884C78.299 23.5534 78.3037 23.6216 78.2943 23.6885C78.2849 23.7554 78.2617 23.8196 78.2262 23.8771C78.1907 23.9346 78.1436 23.9841 78.088 24.0224C77.022 24.6416 75.7885 24.9104 74.5616 24.791C70.6117 24.4957 70.9783 20.3323 70.9783 20.3323V5.27667C70.8751 2.86051 70.2986 2.5438 71.0423 1.77874C72.8962 -0.125011 76.0526 0.052918 76.0526 0.052918L85.8987 0.0137589C88.8237 -0.0645262 88.4323 0.309106 88.4323 2.90319C88.4323 6.91353 84.1444 6.53278 84.1444 6.53278H78.4687C77.5435 6.48652 77.3443 6.91354 77.3692 7.48289V10.1695H81.9453C82.6905 10.1275 83.4005 9.83827 83.9629 9.3475C84.0146 9.30306 84.0752 9.27021 84.1406 9.25117C84.206 9.23214 84.2748 9.22734 84.3422 9.23712C84.4097 9.2469 84.4742 9.27102 84.5316 9.30786C84.5889 9.3447 84.6377 9.3934 84.6746 9.45068C85.2864 10.5309 85.551 11.7733 85.4325 13.0091C85.1408 17.0088 81.0343 16.6387 81.0343 16.6387H77.3763V21.2646Z" fill="#492D12"/>
<path d="M97.1937 21.2646C97.2366 22.0162 97.5212 22.7339 98.005 23.3107C98.0485 23.3626 98.0806 23.4231 98.0993 23.4882C98.118 23.5533 98.1228 23.6216 98.1134 23.6887C98.104 23.7558 98.0806 23.8201 98.0448 23.8776C98.0089 23.9351 97.9614 23.9844 97.9053 24.0224C96.8405 24.6411 95.6083 24.9099 94.3825 24.791C90.4327 24.4957 90.7956 20.3323 90.7956 20.3323V5.27667C90.6924 2.86051 90.116 2.5438 90.8597 1.77874C92.7136 -0.125011 95.8699 0.052918 95.8699 0.052918L105.716 0.0137589C108.641 -0.0645262 108.25 0.309106 108.25 2.90319C108.25 6.91353 103.962 6.53278 103.962 6.53278H98.2861C97.3609 6.48652 97.1616 6.91355 97.1901 7.48289V10.1695H101.777C102.522 10.1275 103.232 9.83827 103.795 9.3475C103.847 9.30416 103.907 9.27224 103.973 9.25385C104.038 9.23545 104.106 9.23098 104.173 9.24071C104.24 9.25044 104.305 9.27416 104.362 9.31034C104.419 9.34651 104.469 9.39432 104.506 9.45068C105.114 10.5323 105.377 11.7738 105.261 13.0091C104.969 17.0088 100.862 16.6387 100.862 16.6387H97.1937V21.2646Z" fill="#492D12"/>
<path d="M116.935 16.048C116.935 16.048 116.601 19.3644 120.81 19.2328C123.742 19.1438 124.675 18.2008 125.112 17.6315C125.76 16.7881 126.682 18.1225 126.945 18.9374C127.101 19.4961 127.101 20.0868 126.945 20.6455C126.233 23.6844 123.774 24.6665 118.91 24.9583C110.22 25.4814 110.534 17.5105 110.534 17.5105V5.27311C110.43 2.85694 109.85 2.54024 110.598 1.77518C112.452 -0.128573 115.608 0.0493563 115.608 0.0493563L126.02 0.0102189C128.945 -0.0680662 128.553 0.305566 128.553 2.89965C128.553 6.90999 124.265 6.52922 124.265 6.52922H117.81C117.273 6.50075 116.889 6.68224 116.935 7.34411V9.44712H121.515C122.26 9.40329 122.969 9.11427 123.532 8.62513C123.584 8.5807 123.645 8.54786 123.71 8.52883C123.776 8.50979 123.844 8.505 123.912 8.51478C123.979 8.52456 124.044 8.54868 124.101 8.58551C124.158 8.62235 124.207 8.67106 124.244 8.72834C124.854 9.80934 125.118 11.0511 125.002 12.2868C124.71 16.29 120.6 15.9199 120.6 15.9199H116.935V16.048Z" fill="#492D12"/>
<path d="M137.45 16.048C137.45 16.048 137.115 19.3644 141.325 19.2328C144.257 19.1438 145.186 18.2008 145.623 17.6315C146.271 16.7881 147.196 18.1225 147.459 18.9374C147.615 19.4961 147.615 20.0868 147.459 20.6455C146.748 23.6844 144.289 24.6665 139.425 24.9583C130.735 25.4814 131.048 17.5105 131.048 17.5105V5.27311C130.945 2.85694 130.365 2.54024 131.109 1.77518C132.962 -0.128573 136.119 0.0493563 136.119 0.0493563L146.531 0.0102189C149.456 -0.0680662 149.068 0.305566 149.068 2.89965C149.068 6.90999 144.78 6.52922 144.78 6.52922H138.321C137.788 6.50075 137.403 6.68224 137.45 7.34411V9.44712H142.026C142.772 9.40353 143.482 9.11454 144.047 8.62513C144.099 8.5807 144.159 8.54786 144.225 8.52883C144.29 8.50979 144.359 8.505 144.426 8.51478C144.494 8.52456 144.558 8.54868 144.616 8.58551C144.673 8.62235 144.722 8.67106 144.759 8.72834C145.368 9.80934 145.633 11.0511 145.517 12.2868C145.221 16.29 141.115 15.9199 141.115 15.9199H137.45V16.048Z" fill="#492D12"/>
<path d="M174.724 18.1155C175.325 18.361 176.801 18.7096 177.869 18.1902C178.523 17.8735 180.765 16.4112 181.263 19.0868C181.526 20.4779 180.064 24.7403 174.599 24.8399C168.551 24.9538 164 19.3821 164 12.5971C164 5.81217 168.91 0.304504 174.958 0.304504C180.046 0.304504 183.497 2.13328 184.177 8.48773C184.305 9.69031 184.177 11.238 180.783 11.5191C177.623 11.7823 177.385 9.52663 177.324 8.60868C177.193 6.53442 175.268 6.55576 174.958 6.56288C173.179 6.60202 171.721 9.76502 171.721 12.5793C171.721 15.3937 173.066 17.4359 174.724 18.1155Z" fill="#492D12"/>
<path d="M205.193 12.6077C205.193 19.4461 200.892 25 195.587 25C190.282 25 185.98 19.4461 185.98 12.6077C185.98 5.76942 190.278 0.219055 195.587 0.219055C200.895 0.219055 205.193 5.78721 205.193 12.6077ZM199.013 12.6077C199.013 9.58351 197.48 7.12856 195.594 7.12856C193.708 7.12856 192.178 9.58351 192.178 12.6077C192.178 15.632 193.708 18.0905 195.594 18.0905C197.48 18.0905 199.013 15.632 199.013 12.6077Z" fill="#492D12"/>
<path d="M223.417 24.7865C221.282 25.0427 218.703 24.0358 218.009 20.7163C217.6 18.7737 217.852 15.2477 214.494 16.2297H214.419L214.298 20.4459C214.405 22.9364 215.059 23.3242 214.234 24.0251C213.085 25.0036 211.743 24.9075 210.921 24.7794C207.492 24.2528 207.933 19.4852 207.933 19.4852L208.032 5.04717C207.929 2.60288 207.278 2.20083 208.093 1.5106C208.369 1.2731 208.683 1.08315 209.021 0.948461C210.011 0.653154 211.039 0.382741 213.469 0.315141C217.952 0.190613 223.919 0.749201 224.274 6.95778C224.452 10.0923 223.563 12.1523 222.218 13.4937C223.744 15.5502 223.669 18.119 223.737 18.5459C223.936 19.7877 223.609 21.0721 225.772 21.161C226.797 21.2215 226.171 24.4557 223.417 24.7865ZM218.72 8.06431C218.749 5.61646 216.689 5.45279 216.497 5.43856C215.956 5.39586 215.429 5.48125 215.041 5.48125C214.237 5.48125 214.401 6.27822 214.401 6.27822V10.256C214.401 10.256 214.326 10.8679 214.785 10.8466C215.141 10.8466 215.689 10.8751 216.443 10.8075C216.728 10.7968 218.692 10.5975 218.72 8.07853V8.06431Z" fill="#492D12"/>
<path d="M235.404 2.20085C235.984 3.07966 237.364 5.80859 237.364 5.80859L240.958 11.9247V4.64514C240.855 2.2222 240.204 1.82727 241.022 1.13704C242.153 0.179955 243.47 0.276016 244.288 0.400544C247.672 0.912884 247.355 5.58444 247.355 5.58444V21.2393C247.355 21.2393 247.394 22.5202 248.163 23.2887C248.205 23.341 248.236 23.4015 248.254 23.4665C248.272 23.5314 248.277 23.5994 248.268 23.6661C248.258 23.7329 248.235 23.797 248.2 23.8545C248.165 23.912 248.118 23.9616 248.063 24.0003C247.713 24.22 247.335 24.3912 246.939 24.509C245.552 24.9221 244.082 24.9747 242.669 24.662C240.577 24.1639 239.531 21.7516 239.531 21.7516L235.137 14.28V21.2393C235.18 21.9919 235.464 22.7107 235.948 23.2887C235.99 23.3414 236.02 23.402 236.038 23.4668C236.055 23.5316 236.059 23.5992 236.05 23.6657C236.041 23.7321 236.018 23.796 235.984 23.8535C235.949 23.911 235.903 23.9609 235.849 24.0003C234.785 24.6207 233.552 24.8896 232.326 24.7688C228.377 24.4734 228.74 20.2965 228.74 20.2965V4.6416C228.637 2.21866 227.989 1.82371 228.804 1.13347C229.619 0.443238 230.768 0.0660962 232.497 0.197739C233.846 0.297361 234.795 1.27579 235.404 2.20085Z" fill="#492D12"/>
<path d="M257.193 16.0483C257.193 16.0483 256.858 19.3607 261.067 19.2326C263.999 19.1401 264.928 18.2009 265.365 17.628C266.013 16.7848 266.938 18.119 267.201 18.9338C267.357 19.4937 267.357 20.0852 267.201 20.6451C266.49 23.68 264.028 24.6656 259.168 24.9573C250.479 25.4768 250.792 17.507 250.792 17.507V5.27491C250.689 2.85908 250.109 2.54242 250.853 1.77746C252.706 -0.129584 255.862 0.0483171 255.862 0.0483171L266.273 0.00918515C269.197 -0.0690892 268.809 0.308049 268.809 2.89822C268.809 6.91155 264.522 6.53086 264.522 6.53086H258.065C257.531 6.49884 257.147 6.68384 257.193 7.34206V9.44834H261.768C262.513 9.40451 263.222 9.11554 263.786 8.62646C263.837 8.58242 263.898 8.54983 263.963 8.53085C264.028 8.51186 264.097 8.50691 264.164 8.51632C264.231 8.52573 264.296 8.54931 264.353 8.58546C264.411 8.62162 264.46 8.66955 264.497 8.7261C265.106 9.80709 265.37 11.0488 265.252 12.284C264.96 16.2831 260.854 15.9131 260.854 15.9131H257.193V16.0483Z" fill="#492D12"/>
<path d="M286.823 24.7865C284.688 25.0427 282.112 24.0358 281.415 20.7163C281.009 18.7737 281.258 15.2477 277.899 16.2297H277.828L277.704 20.4459C277.81 22.9364 278.469 23.3242 277.643 24.0251C276.494 25.0036 275.153 24.9075 274.327 24.7794C270.901 24.2528 271.342 19.4852 271.342 19.4852L271.438 5.04717C271.335 2.60288 270.687 2.20083 271.502 1.5106C271.777 1.27323 272.09 1.08327 272.427 0.948461C273.42 0.653154 274.448 0.382741 276.875 0.315141C281.358 0.190613 287.328 0.749201 287.68 6.95778C287.858 10.0923 286.968 12.1523 285.627 13.4937C287.153 15.5502 287.079 18.119 287.146 18.5459C287.346 19.7877 287.015 21.0721 289.178 21.161C290.206 21.2215 289.58 24.4557 286.823 24.7865ZM282.13 8.06431C282.158 5.61646 280.098 5.45279 279.902 5.43856C279.365 5.39586 278.835 5.48125 278.451 5.48125C277.643 5.48125 277.807 6.27822 277.807 6.27822V10.256C277.807 10.256 277.732 10.8679 278.191 10.8466C278.547 10.8466 279.095 10.8751 279.849 10.8075C280.134 10.7968 282.101 10.5975 282.13 8.07853V8.06431Z" fill="#492D12"/>
</svg>
