<svg id="Livello_1" data-name="Livello 1" xmlns="http://www.w3.org/2000/svg" viewBox="0 0 50 50"><defs><style>.cls-1{fill:#492d12;}</style></defs><circle class="cls-1" cx="25" cy="24.98" r="4.13"/><path class="cls-1" d="M33.92,16.21a5,5,0,0,0-3.68-1.36H19.86a5.12,5.12,0,0,0-3.68,1.31,5,5,0,0,0-1.36,3.68V30.17a5.06,5.06,0,0,0,1.36,3.73,5.21,5.21,0,0,0,3.68,1.31H30.14a5.21,5.21,0,0,0,3.68-1.31,4.92,4.92,0,0,0,1.46-3.68V19.84A5.2,5.2,0,0,0,33.92,16.21ZM25,31.43A6.45,6.45,0,1,1,31.45,25,6.43,6.43,0,0,1,25,31.43Zm6.7-11.59a1.47,1.47,0,1,1,1.47-1.46A1.47,1.47,0,0,1,31.7,19.84Zm2.22-3.63a5,5,0,0,0-3.68-1.36H19.86a5.12,5.12,0,0,0-3.68,1.31,5,5,0,0,0-1.36,3.68V30.17a5.06,5.06,0,0,0,1.36,3.73,5.21,5.21,0,0,0,3.68,1.31H30.14a5.21,5.21,0,0,0,3.68-1.31,4.92,4.92,0,0,0,1.46-3.68V19.84A5.2,5.2,0,0,0,33.92,16.21ZM25,31.43A6.45,6.45,0,1,1,31.45,25,6.43,6.43,0,0,1,25,31.43Zm6.7-11.59a1.47,1.47,0,1,1,1.47-1.46A1.47,1.47,0,0,1,31.7,19.84Zm2.22-3.63a5,5,0,0,0-3.68-1.36H19.86a5.12,5.12,0,0,0-3.68,1.31,5,5,0,0,0-1.36,3.68V30.17a5.06,5.06,0,0,0,1.36,3.73,5.21,5.21,0,0,0,3.68,1.31H30.14a5.21,5.21,0,0,0,3.68-1.31,4.92,4.92,0,0,0,1.46-3.68V19.84A5.2,5.2,0,0,0,33.92,16.21ZM25,31.43A6.45,6.45,0,1,1,31.45,25,6.43,6.43,0,0,1,25,31.43Zm6.7-11.59a1.47,1.47,0,1,1,1.47-1.46A1.47,1.47,0,0,1,31.7,19.84Zm2.22-3.63a5,5,0,0,0-3.68-1.36H19.86a5.12,5.12,0,0,0-3.68,1.31,5,5,0,0,0-1.36,3.68V30.17a5.06,5.06,0,0,0,1.36,3.73,5.21,5.21,0,0,0,3.68,1.31H30.14a5.21,5.21,0,0,0,3.68-1.31,4.92,4.92,0,0,0,1.46-3.68V19.84A5.2,5.2,0,0,0,33.92,16.21ZM25,31.43A6.45,6.45,0,1,1,31.45,25,6.43,6.43,0,0,1,25,31.43Zm6.7-11.59a1.47,1.47,0,1,1,1.47-1.46A1.47,1.47,0,0,1,31.7,19.84Zm2.22-3.63a5,5,0,0,0-3.68-1.36H19.86a5.12,5.12,0,0,0-3.68,1.31,5,5,0,0,0-1.36,3.68V30.17a5.06,5.06,0,0,0,1.36,3.73,5.21,5.21,0,0,0,3.68,1.31H30.14a5.21,5.21,0,0,0,3.68-1.31,4.92,4.92,0,0,0,1.46-3.68V19.84A5.2,5.2,0,0,0,33.92,16.21ZM25,31.43A6.45,6.45,0,1,1,31.45,25,6.43,6.43,0,0,1,25,31.43Zm6.7-11.59a1.47,1.47,0,1,1,1.47-1.46A1.47,1.47,0,0,1,31.7,19.84Zm2.22-3.63a5,5,0,0,0-3.68-1.36H19.86a5.12,5.12,0,0,0-3.68,1.31,5,5,0,0,0-1.36,3.68V30.17a5.06,5.06,0,0,0,1.36,3.73,5.21,5.21,0,0,0,3.68,1.31H30.14a5.21,5.21,0,0,0,3.68-1.31,4.92,4.92,0,0,0,1.46-3.68V19.84A5.2,5.2,0,0,0,33.92,16.21ZM25,31.43A6.45,6.45,0,1,1,31.45,25,6.43,6.43,0,0,1,25,31.43Zm6.7-11.59a1.47,1.47,0,1,1,1.47-1.46A1.47,1.47,0,0,1,31.7,19.84Zm2.22-3.63a5,5,0,0,0-3.68-1.36H19.86a5.12,5.12,0,0,0-3.68,1.31,5,5,0,0,0-1.36,3.68V30.17a5.06,5.06,0,0,0,1.36,3.73,5.21,5.21,0,0,0,3.68,1.31H30.14a5.21,5.21,0,0,0,3.68-1.31,4.92,4.92,0,0,0,1.46-3.68V19.84A5.2,5.2,0,0,0,33.92,16.21ZM25,31.43A6.45,6.45,0,1,1,31.45,25,6.43,6.43,0,0,1,25,31.43Zm6.7-11.59a1.47,1.47,0,1,1,1.47-1.46A1.47,1.47,0,0,1,31.7,19.84Zm2.22-3.63a5,5,0,0,0-3.68-1.36H19.86a5.12,5.12,0,0,0-3.68,1.31,5,5,0,0,0-1.36,3.68V30.17a5.06,5.06,0,0,0,1.36,3.73,5.21,5.21,0,0,0,3.68,1.31H30.14a5.21,5.21,0,0,0,3.68-1.31,4.92,4.92,0,0,0,1.46-3.68V19.84A5.2,5.2,0,0,0,33.92,16.21ZM25,31.43A6.45,6.45,0,1,1,31.45,25,6.43,6.43,0,0,1,25,31.43Zm6.7-11.59a1.47,1.47,0,1,1,1.47-1.46A1.47,1.47,0,0,1,31.7,19.84ZM25,0A25,25,0,1,0,50,25,25,25,0,0,0,25,0ZM37.5,30.22a7.21,7.21,0,0,1-2.07,5.34,7.43,7.43,0,0,1-5.29,2H19.86a7.35,7.35,0,0,1-5.24-2,7.25,7.25,0,0,1-2.12-5.39V19.84a6.9,6.9,0,0,1,7.31-7.31H30.19a7,7,0,0,1,7.31,7.31ZM30.24,14.85H19.86a5.12,5.12,0,0,0-3.68,1.31,5,5,0,0,0-1.36,3.68V30.17a5.06,5.06,0,0,0,1.36,3.73,5.21,5.21,0,0,0,3.68,1.31H30.14a5.21,5.21,0,0,0,3.68-1.31,4.92,4.92,0,0,0,1.46-3.68V19.84a5.2,5.2,0,0,0-1.36-3.63A5,5,0,0,0,30.24,14.85ZM25,31.43A6.45,6.45,0,1,1,31.45,25,6.43,6.43,0,0,1,25,31.43Zm6.7-11.59a1.47,1.47,0,1,1,1.47-1.46A1.47,1.47,0,0,1,31.7,19.84Zm2.22-3.63a5,5,0,0,0-3.68-1.36H19.86a5.12,5.12,0,0,0-3.68,1.31,5,5,0,0,0-1.36,3.68V30.17a5.06,5.06,0,0,0,1.36,3.73,5.21,5.21,0,0,0,3.68,1.31H30.14a5.21,5.21,0,0,0,3.68-1.31,4.92,4.92,0,0,0,1.46-3.68V19.84A5.2,5.2,0,0,0,33.92,16.21ZM25,31.43A6.45,6.45,0,1,1,31.45,25,6.43,6.43,0,0,1,25,31.43Zm6.7-11.59a1.47,1.47,0,1,1,1.47-1.46A1.47,1.47,0,0,1,31.7,19.84Zm2.22-3.63a5,5,0,0,0-3.68-1.36H19.86a5.12,5.12,0,0,0-3.68,1.31,5,5,0,0,0-1.36,3.68V30.17a5.06,5.06,0,0,0,1.36,3.73,5.21,5.21,0,0,0,3.68,1.31H30.14a5.21,5.21,0,0,0,3.68-1.31,4.92,4.92,0,0,0,1.46-3.68V19.84A5.2,5.2,0,0,0,33.92,16.21ZM25,31.43A6.45,6.45,0,1,1,31.45,25,6.43,6.43,0,0,1,25,31.43Zm6.7-11.59a1.47,1.47,0,1,1,1.47-1.46A1.47,1.47,0,0,1,31.7,19.84Zm2.22-3.63a5,5,0,0,0-3.68-1.36H19.86a5.12,5.12,0,0,0-3.68,1.31,5,5,0,0,0-1.36,3.68V30.17a5.06,5.06,0,0,0,1.36,3.73,5.21,5.21,0,0,0,3.68,1.31H30.14a5.21,5.21,0,0,0,3.68-1.31,4.92,4.92,0,0,0,1.46-3.68V19.84A5.2,5.2,0,0,0,33.92,16.21ZM25,31.43A6.45,6.45,0,1,1,31.45,25,6.43,6.43,0,0,1,25,31.43Zm6.7-11.59a1.47,1.47,0,1,1,1.47-1.46A1.47,1.47,0,0,1,31.7,19.84Zm2.22-3.63a5,5,0,0,0-3.68-1.36H19.86a5.12,5.12,0,0,0-3.68,1.31,5,5,0,0,0-1.36,3.68V30.17a5.06,5.06,0,0,0,1.36,3.73,5.21,5.21,0,0,0,3.68,1.31H30.14a5.21,5.21,0,0,0,3.68-1.31,4.92,4.92,0,0,0,1.46-3.68V19.84A5.2,5.2,0,0,0,33.92,16.21ZM25,31.43A6.45,6.45,0,1,1,31.45,25,6.43,6.43,0,0,1,25,31.43Zm6.7-11.59a1.47,1.47,0,1,1,1.47-1.46A1.47,1.47,0,0,1,31.7,19.84Zm2.22-3.63a5,5,0,0,0-3.68-1.36H19.86a5.12,5.12,0,0,0-3.68,1.31,5,5,0,0,0-1.36,3.68V30.17a5.06,5.06,0,0,0,1.36,3.73,5.21,5.21,0,0,0,3.68,1.31H30.14a5.21,5.21,0,0,0,3.68-1.31,4.92,4.92,0,0,0,1.46-3.68V19.84A5.2,5.2,0,0,0,33.92,16.21ZM25,31.43A6.45,6.45,0,1,1,31.45,25,6.43,6.43,0,0,1,25,31.43Zm6.7-11.59a1.47,1.47,0,1,1,1.47-1.46A1.47,1.47,0,0,1,31.7,19.84Zm2.22-3.63a5,5,0,0,0-3.68-1.36H19.86a5.12,5.12,0,0,0-3.68,1.31,5,5,0,0,0-1.36,3.68V30.17a5.06,5.06,0,0,0,1.36,3.73,5.21,5.21,0,0,0,3.68,1.31H30.14a5.21,5.21,0,0,0,3.68-1.31,4.92,4.92,0,0,0,1.46-3.68V19.84A5.2,5.2,0,0,0,33.92,16.21ZM25,31.43A6.45,6.45,0,1,1,31.45,25,6.43,6.43,0,0,1,25,31.43Zm6.7-11.59a1.47,1.47,0,1,1,1.47-1.46A1.47,1.47,0,0,1,31.7,19.84Zm2.22-3.63a5,5,0,0,0-3.68-1.36H19.86a5.12,5.12,0,0,0-3.68,1.31,5,5,0,0,0-1.36,3.68V30.17a5.06,5.06,0,0,0,1.36,3.73,5.21,5.21,0,0,0,3.68,1.31H30.14a5.21,5.21,0,0,0,3.68-1.31,4.92,4.92,0,0,0,1.46-3.68V19.84A5.2,5.2,0,0,0,33.92,16.21ZM25,31.43A6.45,6.45,0,1,1,31.45,25,6.43,6.43,0,0,1,25,31.43Zm6.7-11.59a1.47,1.47,0,1,1,1.47-1.46A1.47,1.47,0,0,1,31.7,19.84Zm2.22-3.63a5,5,0,0,0-3.68-1.36H19.86a5.12,5.12,0,0,0-3.68,1.31,5,5,0,0,0-1.36,3.68V30.17a5.06,5.06,0,0,0,1.36,3.73,5.21,5.21,0,0,0,3.68,1.31H30.14a5.21,5.21,0,0,0,3.68-1.31,4.92,4.92,0,0,0,1.46-3.68V19.84A5.2,5.2,0,0,0,33.92,16.21ZM25,31.43A6.45,6.45,0,1,1,31.45,25,6.43,6.43,0,0,1,25,31.43Zm6.7-11.59a1.47,1.47,0,1,1,1.47-1.46A1.47,1.47,0,0,1,31.7,19.84Z"/></svg>