<svg id="Livello_1" data-name="Livello 1" xmlns="http://www.w3.org/2000/svg" viewBox="0 0 50 50"><defs><style>.cls-1{fill:#492d12;}</style></defs><path class="cls-1" d="M25,24.37,15,17a1.65,1.65,0,0,1,.32,0H34.72A1.65,1.65,0,0,1,35,17Z"/><path class="cls-1" d="M25.82,27.21l10.29-7.59V32.2a1.39,1.39,0,0,1-1.39,1.39H15.28a1.39,1.39,0,0,1-1.39-1.39V19.62l10.29,7.59a1.38,1.38,0,0,0,1.64,0Z"/><path class="cls-1" d="M25,0A25,25,0,1,0,50,25,25,25,0,0,0,25,0ZM38.89,32.2a4.17,4.17,0,0,1-4.17,4.17H15.28a4.17,4.17,0,0,1-4.17-4.17V18.31a4.17,4.17,0,0,1,4.17-4.16H34.72a4.17,4.17,0,0,1,4.17,4.16Z"/></svg>