<svg id="Livello_1" data-name="Livello 1" xmlns="http://www.w3.org/2000/svg" viewBox="0 0 50 50"><defs><style>.cls-1{fill:#492d12;}</style></defs><path class="cls-1" d="M25,0A25,25,0,1,0,50,25,25,25,0,0,0,25,0ZM36,35.1a7.25,7.25,0,0,1-4.69,2.39c-3,.11-8-.64-13.12-5.72S12.4,21.63,12.51,18.65A7.3,7.3,0,0,1,14.9,14c2.18-2.17,5.65-1.88,7,.6l1,1.81a4.44,4.44,0,0,1-.9,5.24A2,2,0,0,0,21.57,23c0,.82.4,2,1.91,3.52C26.64,29.69,28.39,28,28.39,28a4.66,4.66,0,0,1,3.28-1.4,4.08,4.08,0,0,1,2,.5l1.81,1C37.92,29.45,38.21,32.92,36,35.1Z"/></svg>