<svg id="Livello_1" data-name="Livello 1" xmlns="http://www.w3.org/2000/svg" viewBox="0 0 50 50"><defs><style>.cls-1{fill:#492d12;}</style></defs><path class="cls-1" d="M32.37,17.58a10.25,10.25,0,0,0-7.31-3,10.35,10.35,0,0,0-8.77,15.85l.24.39-1,3.82,3.91-1,.38.22A10.35,10.35,0,0,0,32.37,17.58ZM31.14,29.34A3.18,3.18,0,0,1,29,30.81a4.22,4.22,0,0,1-2-.12A16.89,16.89,0,0,1,25.31,30,13.8,13.8,0,0,1,20,25.34a6,6,0,0,1-1.27-3.22,3.45,3.45,0,0,1,1.09-2.59,1.14,1.14,0,0,1,.83-.39h.59c.19,0,.45-.07.7.53s.88,2.16,1,2.31a.59.59,0,0,1,0,.55,2.35,2.35,0,0,1-.32.52c-.15.18-.32.4-.46.54s-.32.32-.14.64a9.4,9.4,0,0,0,1.73,2.15,8.35,8.35,0,0,0,2.5,1.54c.31.16.5.13.68-.07s.77-.91,1-1.22.42-.26.7-.16,1.82.86,2.13,1,.52.24.59.37A2.57,2.57,0,0,1,31.14,29.34Zm1.23-11.76a10.25,10.25,0,0,0-7.31-3,10.35,10.35,0,0,0-8.77,15.85l.24.39-1,3.82,3.91-1,.38.22A10.35,10.35,0,0,0,32.37,17.58ZM31.14,29.34A3.18,3.18,0,0,1,29,30.81a4.22,4.22,0,0,1-2-.12A16.89,16.89,0,0,1,25.31,30,13.8,13.8,0,0,1,20,25.34a6,6,0,0,1-1.27-3.22,3.45,3.45,0,0,1,1.09-2.59,1.14,1.14,0,0,1,.83-.39h.59c.19,0,.45-.07.7.53s.88,2.16,1,2.31a.59.59,0,0,1,0,.55,2.35,2.35,0,0,1-.32.52c-.15.18-.32.4-.46.54s-.32.32-.14.64a9.4,9.4,0,0,0,1.73,2.15,8.35,8.35,0,0,0,2.5,1.54c.31.16.5.13.68-.07s.77-.91,1-1.22.42-.26.7-.16,1.82.86,2.13,1,.52.24.59.37A2.57,2.57,0,0,1,31.14,29.34ZM25,0A25,25,0,1,0,50,25,25,25,0,0,0,25,0Zm8.85,33.69A12.45,12.45,0,0,1,19.1,35.83l-6.6,1.73,1.77-6.45a12.45,12.45,0,1,1,19.58,2.58ZM25.06,14.54a10.35,10.35,0,0,0-8.77,15.85l.24.39-1,3.82,3.91-1,.38.22A10.35,10.35,0,0,0,32.37,17.58,10.25,10.25,0,0,0,25.06,14.54Zm6.08,14.8A3.18,3.18,0,0,1,29,30.81a4.22,4.22,0,0,1-2-.12A16.89,16.89,0,0,1,25.31,30,13.8,13.8,0,0,1,20,25.34a6,6,0,0,1-1.27-3.22,3.45,3.45,0,0,1,1.09-2.59,1.14,1.14,0,0,1,.83-.39h.59c.19,0,.45-.07.7.53s.88,2.16,1,2.31a.59.59,0,0,1,0,.55,2.35,2.35,0,0,1-.32.52c-.15.18-.32.4-.46.54s-.32.32-.14.64a9.4,9.4,0,0,0,1.73,2.15,8.35,8.35,0,0,0,2.5,1.54c.31.16.5.13.68-.07s.77-.91,1-1.22.42-.26.7-.16,1.82.86,2.13,1,.52.24.59.37A2.57,2.57,0,0,1,31.14,29.34Zm1.23-11.76a10.25,10.25,0,0,0-7.31-3,10.35,10.35,0,0,0-8.77,15.85l.24.39-1,3.82,3.91-1,.38.22A10.35,10.35,0,0,0,32.37,17.58ZM31.14,29.34A3.18,3.18,0,0,1,29,30.81a4.22,4.22,0,0,1-2-.12A16.89,16.89,0,0,1,25.31,30,13.8,13.8,0,0,1,20,25.34a6,6,0,0,1-1.27-3.22,3.45,3.45,0,0,1,1.09-2.59,1.14,1.14,0,0,1,.83-.39h.59c.19,0,.45-.07.7.53s.88,2.16,1,2.31a.59.59,0,0,1,0,.55,2.35,2.35,0,0,1-.32.52c-.15.18-.32.4-.46.54s-.32.32-.14.64a9.4,9.4,0,0,0,1.73,2.15,8.35,8.35,0,0,0,2.5,1.54c.31.16.5.13.68-.07s.77-.91,1-1.22.42-.26.7-.16,1.82.86,2.13,1,.52.24.59.37A2.57,2.57,0,0,1,31.14,29.34Zm1.23-11.76a10.25,10.25,0,0,0-7.31-3,10.35,10.35,0,0,0-8.77,15.85l.24.39-1,3.82,3.91-1,.38.22A10.35,10.35,0,0,0,32.37,17.58ZM31.14,29.34A3.18,3.18,0,0,1,29,30.81a4.22,4.22,0,0,1-2-.12A16.89,16.89,0,0,1,25.31,30,13.8,13.8,0,0,1,20,25.34a6,6,0,0,1-1.27-3.22,3.45,3.45,0,0,1,1.09-2.59,1.14,1.14,0,0,1,.83-.39h.59c.19,0,.45-.07.7.53s.88,2.16,1,2.31a.59.59,0,0,1,0,.55,2.35,2.35,0,0,1-.32.52c-.15.18-.32.4-.46.54s-.32.32-.14.64a9.4,9.4,0,0,0,1.73,2.15,8.35,8.35,0,0,0,2.5,1.54c.31.16.5.13.68-.07s.77-.91,1-1.22.42-.26.7-.16,1.82.86,2.13,1,.52.24.59.37A2.57,2.57,0,0,1,31.14,29.34Z"/></svg>