<?xml version="1.0" encoding="utf-8"?>
<svg version="1.1" id="level_1" xmlns="http://www.w3.org/2000/svg" xmlns:xlink="http://www.w3.org/1999/xlink" x="0px" y="0px"
	 viewBox="0 0 130 150" style="enable-background:new 0 0 130 150;" xml:space="preserve">
<style type="text/css">
	.st0{fill-rule:evenodd;clip-rule:evenodd;fill:#F0E6DA;}
</style>
<g id="Icons1-5">
	<g id="coffee-bean-filled-5">
		<path class="st0" d="M92.3,2.2c2.6,0.9,4.3,3.2,4.3,5.9c0,1.2,0,2.2,0,2.2s0,33-38.6,63.5c-15.7,12.4-29.3,32.5-32.8,51.4
			c-0.5,2.5-2.4,4.5-4.9,5s-5-0.5-6.4-2.7c-11-16.5-23.5-47.4-2.7-84C30,10.5,64.6-6.4,92.3,2.2z"/>
		<path class="st0" d="M38,147.8c-2.7-0.9-4.5-3.4-4.5-6.2c-0.1-1.1-0.1-2-0.1-2s0-33,38.6-63.5c15.6-12.3,29.1-32.1,32.8-50.8
			c0.5-2.6,2.5-4.6,5.1-5.1s5.2,0.6,6.6,2.8c10.9,16.6,22.9,47.3,2.3,83.5C100.1,139.4,65.6,156.3,38,147.8z"/>
	</g>
</g>
</svg>