<svg id="Livello_1" data-name="Livello 1" xmlns="http://www.w3.org/2000/svg" viewBox="0 0 500 830"><defs><style>.cls-1,.cls-2{fill:#f0e6da;}.cls-1,.cls-3,.cls-5,.cls-7,.cls-9{fill-rule:evenodd;}.cls-3,.cls-4{fill:#e2ccba;}.cls-5,.cls-6{fill:#a7856c;}.cls-7,.cls-8{fill:#775a41;}.cls-10,.cls-9{fill:#492d12;}</style></defs><g id="Icons1"><g id="coffee-bean-filled"><path class="cls-1" d="M92.29,2.22a6.27,6.27,0,0,1,4.29,5.94c0,1.19,0,2.16,0,2.16s0,33-38.61,63.4C42.32,86.08,28.71,106.18,25.16,125a6.26,6.26,0,0,1-4.86,5,6.17,6.17,0,0,1-6.42-2.66C2.89,110.8-9.58,80,11.21,43.42,30,10.48,64.57-6.36,92.29,2.22Z"/><path class="cls-1" d="M38,147.62a6.51,6.51,0,0,1-4.48-6.19c-.06-1.1-.06-2-.06-2s0-33,38.62-63.4C87.59,63.81,101.09,44,104.8,25.32a6.48,6.48,0,0,1,5.08-5.13A6.39,6.39,0,0,1,116.51,23c10.91,16.63,22.9,47.21,2.33,83.36C100.14,139.21,65.65,156.06,38,147.62Z"/></g></g><path class="cls-2" d="M177,50.91c1.69.7,5.84,1.67,8.84.22,1.84-.9,8.14-5,9.54,2.51.74,3.91-3.37,15.89-18.73,16.18-17,.32-29.79-15.34-29.79-34.41S160.64.86,177.64.86c14.3,0,24,5.13,25.91,23.05.36,3.38,0,7.72-9.54,8.52-8.88.74-9.55-5.6-9.72-8.18-.37-5.83-5.78-5.77-6.65-5.75-5,.11-9.1,9-9.1,16.91S172.34,49,177,50.91Z"/><path class="cls-2" d="M262.64,35.44c0,19.22-12.09,34.82-27,34.82s-27-15.6-27-34.82S220.77.61,235.66.61,262.64,16.22,262.64,35.44Zm-17.37,0c0-8.5-4.31-15.41-9.61-15.41s-9.6,6.91-9.6,15.41,4.3,15.4,9.6,15.4S245.27,43.94,245.27,35.44Z"/><path class="cls-2" d="M288.43,59.76a9.82,9.82,0,0,0,2.28,5.75,1.37,1.37,0,0,1-.28,2,16.54,16.54,0,0,1-9.91,2.16c-11.1-.83-10.07-12.53-10.07-12.53l0-42.31c-.29-6.79-1.91-7.68.18-9.83C275.82-.36,284.69.14,284.69.14L312.36,0c8.22-.22,7.12.83,7.12,8.12,0,11.27-12.05,10.2-12.05,10.2H291.5c-2.6-.13-3.16,1.07-3.09,2.67v7.55h12.86A9.43,9.43,0,0,0,307,26.25a1.34,1.34,0,0,1,2,.29,17,17,0,0,1,2.13,10c-.82,11.24-12.36,10.2-12.36,10.2H288.43Z"/><path class="cls-2" d="M344.12,59.76a9.82,9.82,0,0,0,2.28,5.75,1.36,1.36,0,0,1-.28,2,16.53,16.53,0,0,1-9.9,2.16c-11.1-.83-10.08-12.53-10.08-12.53l0-42.31c-.29-6.79-1.91-7.68.18-9.83C331.51-.36,340.38.14,340.38.14L368.05,0c8.22-.22,7.12.83,7.12,8.12,0,11.27-12.05,10.2-12.05,10.2H347.19c-2.6-.13-3.16,1.07-3.08,2.67v7.55H357a9.43,9.43,0,0,0,5.67-2.31,1.36,1.36,0,0,1,2,.29,17.12,17.12,0,0,1,2.12,10c-.82,11.24-12.36,10.2-12.36,10.2H344.12Z"/><path class="cls-2" d="M399.6,45.1s-.94,9.32,10.89,8.95c8.24-.25,10.86-2.9,12.09-4.5,1.82-2.37,4.41,1.38,5.15,3.67a8.93,8.93,0,0,1,0,4.8c-2,8.54-8.91,11.3-22.58,12.12-24.42,1.47-23.54-20.93-23.54-20.93V14.82C381.33,8,379.7,7.14,381.8,5,387-.36,395.88.14,395.88.14L425.14,0c8.22-.22,7.12.83,7.12,8.12,0,11.27-12.05,10.2-12.05,10.2H402.06c-1.51-.08-2.59.43-2.46,2.29v5.91h12.87a9.5,9.5,0,0,0,5.67-2.31,1.34,1.34,0,0,1,2,.29,17.09,17.09,0,0,1,2.13,10c-.82,11.25-12.37,10.21-12.37,10.21H399.6Z"/><path class="cls-2" d="M457.25,45.1s-.94,9.32,10.89,8.95c8.24-.25,10.85-2.9,12.08-4.5,1.82-2.37,4.42,1.38,5.16,3.67a8.93,8.93,0,0,1,0,4.8c-2,8.54-8.91,11.3-22.58,12.12-24.42,1.47-23.54-20.93-23.54-20.93V14.82C439,8,437.35,7.14,439.44,5,444.65-.36,453.52.14,453.52.14L482.78,0c8.22-.22,7.13.83,7.13,8.12,0,11.27-12.05,10.2-12.05,10.2H459.7c-1.5-.08-2.58.43-2.45,2.29v5.91h12.86a9.52,9.52,0,0,0,5.68-2.31,1.34,1.34,0,0,1,2,.29,17.09,17.09,0,0,1,2.13,10c-.83,11.25-12.37,10.21-12.37,10.21H457.25Z"/><path class="cls-2" d="M177,130.65c1.69.69,5.84,1.67,8.84.21,1.84-.89,8.14-5,9.54,2.52.74,3.91-3.37,15.89-18.73,16.17-17,.32-29.79-15.34-29.79-34.41s13.8-34.55,30.8-34.55c14.3,0,24,5.14,25.91,23,.36,3.38,0,7.73-9.54,8.52-8.88.74-9.55-5.6-9.72-8.18-.37-5.83-5.78-5.77-6.65-5.75-5,.11-9.1,9-9.1,16.91S172.34,128.74,177,130.65Z"/><path class="cls-2" d="M262.64,115.17c0,19.22-12.09,34.83-27,34.83s-27-15.61-27-34.83,12.08-34.82,27-34.82S262.64,96,262.64,115.17Zm-17.37,0c0-8.5-4.31-15.4-9.61-15.4s-9.6,6.9-9.6,15.4,4.3,15.41,9.6,15.41S245.27,123.67,245.27,115.17Z"/><path class="cls-2" d="M313.86,149.4c-6,.72-13.25-2.11-15.2-11.44-1.15-5.46-.44-15.37-9.88-12.61l-.21.05-.34,11.85c.3,6.95,2.14,8.09-.18,10.06-3.23,2.75-7,2.48-9.31,2.12-9.64-1.48-8.4-14.88-8.4-14.88L270.62,94c-.29-6.87-2.12-8,.17-9.94a9.25,9.25,0,0,1,2.61-1.58c2.78-.83,5.67-1.59,12.5-1.78,12.6-.35,29.37,1.22,30.37,18.67.5,8.81-2,14.6-5.78,18.37,4.29,5.78,4.08,13,4.27,14.2.56,3.49-.36,7.1,5.72,7.35C323.36,139.38,321.6,148.47,313.86,149.4Zm-13.2-47c.08-6.88-5.71-7.34-6.25-7.38-1.52-.12-3,.12-4.09.12-2.26,0-1.8,2.24-1.8,2.24l0,11.18s-.21,1.72,1.08,1.66c1,0,2.54.08,4.66-.11C295.06,110.08,300.58,109.52,300.66,102.44Z"/><path class="cls-2" d="M347.55,85.92c1.63,2.47,5.51,10.14,5.51,10.14l10.1,17.19V92.79c-.29-6.81-2.12-7.92.18-9.86,3.18-2.69,6.88-2.42,9.18-2.07,9.51,1.44,8.62,14.57,8.62,14.57v44s.11,3.6,2.27,5.76a1.38,1.38,0,0,1-.28,2,12.81,12.81,0,0,1-3.16,1.43,23.93,23.93,0,0,1-12,.43c-5.88-1.4-8.82-8.18-8.82-8.18l-12.35-21v19.56a9.84,9.84,0,0,0,2.28,5.76,1.4,1.4,0,0,1-.28,2,16.45,16.45,0,0,1-9.9,2.16c-11.1-.83-10.08-12.57-10.08-12.57v-44c-.29-6.81-2.11-7.92.18-9.86s5.52-3,10.38-2.63C343.17,80.57,345.84,83.32,347.55,85.92Z"/><path class="cls-2" d="M408.79,124.84s-.94,9.31,10.89,8.95c8.24-.26,10.85-2.9,12.08-4.51,1.82-2.37,4.42,1.38,5.16,3.67a9,9,0,0,1,0,4.81c-2,8.53-8.92,11.3-22.58,12.12-24.42,1.46-23.54-20.94-23.54-20.94V94.56c-.29-6.79-1.92-7.68.17-9.83,5.21-5.36,14.08-4.86,14.08-4.86l29.26-.11c8.22-.22,7.13.84,7.13,8.12,0,11.28-12.05,10.21-12.05,10.21H411.24c-1.5-.09-2.58.43-2.45,2.28v5.92h12.86a9.5,9.5,0,0,0,5.67-2.31,1.35,1.35,0,0,1,2,.28,17.06,17.06,0,0,1,2.12,10c-.82,11.24-12.36,10.2-12.36,10.2H408.79Z"/><path class="cls-2" d="M492.07,149.4c-6,.72-13.24-2.11-15.2-11.44-1.14-5.46-.44-15.37-9.88-12.61l-.2.05-.35,11.85c.3,6.95,2.15,8.09-.17,10.06-3.23,2.75-7,2.48-9.32,2.12-9.63-1.48-8.39-14.88-8.39-14.88L448.83,94c-.29-6.87-2.11-8,.18-9.94a9.21,9.21,0,0,1,2.6-1.58c2.79-.83,5.68-1.59,12.5-1.78,12.6-.35,29.38,1.22,30.37,18.67.5,8.81-2,14.6-5.77,18.37,4.29,5.78,4.08,13,4.27,14.2.56,3.49-.37,7.1,5.71,7.35C501.58,139.38,499.82,148.47,492.07,149.4Zm-13.19-47c.08-6.88-5.71-7.34-6.26-7.38-1.51-.12-3,.12-4.08.12-2.27,0-1.81,2.24-1.81,2.24l0,11.18s-.21,1.72,1.08,1.66c1,0,2.54.08,4.66-.11C473.27,110.08,478.8,109.52,478.88,102.44Z"/><g id="Icons1-2" data-name="Icons1"><g id="coffee-bean-filled-2" data-name="coffee-bean-filled"><path class="cls-3" d="M92.29,172.22a6.27,6.27,0,0,1,4.29,5.94c0,1.19,0,2.16,0,2.16s0,33-38.61,63.4C42.32,256.08,28.71,276.18,25.16,295a6.26,6.26,0,0,1-4.86,5,6.17,6.17,0,0,1-6.42-2.66C2.89,280.8-9.58,250,11.21,213.42,30,180.48,64.57,163.64,92.29,172.22Z"/><path class="cls-3" d="M38,317.62a6.51,6.51,0,0,1-4.48-6.19c-.06-1.1-.06-2-.06-2s0-33,38.62-63.4c15.55-12.25,29.05-32.1,32.76-50.74a6.48,6.48,0,0,1,5.08-5.13,6.39,6.39,0,0,1,6.63,2.81c10.91,16.63,22.9,47.21,2.33,83.36C100.14,309.21,65.65,326.06,38,317.62Z"/></g></g><path class="cls-4" d="M177,220.91c1.69.7,5.84,1.67,8.84.22,1.84-.9,8.14-5,9.54,2.51.74,3.91-3.37,15.89-18.73,16.18-17,.32-29.79-15.34-29.79-34.41s13.8-34.55,30.8-34.55c14.3,0,24,5.13,25.91,23,.36,3.38,0,7.72-9.54,8.52-8.88.74-9.55-5.6-9.72-8.18-.37-5.83-5.78-5.77-6.65-5.75-5,.11-9.1,9-9.1,16.91S172.34,219,177,220.91Z"/><path class="cls-4" d="M262.64,205.44c0,19.22-12.09,34.82-27,34.82s-27-15.6-27-34.82,12.08-34.83,27-34.83S262.64,186.22,262.64,205.44Zm-17.37,0c0-8.5-4.31-15.41-9.61-15.41s-9.6,6.91-9.6,15.41,4.3,15.4,9.6,15.4S245.27,213.94,245.27,205.44Z"/><path class="cls-4" d="M288.43,229.76a9.82,9.82,0,0,0,2.28,5.75,1.37,1.37,0,0,1-.28,2,16.54,16.54,0,0,1-9.91,2.16c-11.1-.83-10.07-12.53-10.07-12.53l0-42.31c-.29-6.79-1.91-7.68.18-9.83,5.21-5.35,14.08-4.85,14.08-4.85l27.67-.11c8.22-.22,7.12.83,7.12,8.12,0,11.27-12.05,10.2-12.05,10.2H291.5c-2.6-.13-3.16,1.07-3.09,2.67v7.55h12.86a9.43,9.43,0,0,0,5.67-2.31,1.34,1.34,0,0,1,2,.29,17,17,0,0,1,2.13,10c-.82,11.24-12.36,10.2-12.36,10.2H288.43Z"/><path class="cls-4" d="M344.12,229.76a9.82,9.82,0,0,0,2.28,5.75,1.36,1.36,0,0,1-.28,2,16.53,16.53,0,0,1-9.9,2.16c-11.1-.83-10.08-12.53-10.08-12.53l0-42.31c-.29-6.79-1.91-7.68.18-9.83,5.21-5.35,14.08-4.85,14.08-4.85l27.67-.11c8.22-.22,7.12.83,7.12,8.12,0,11.27-12.05,10.2-12.05,10.2H347.19c-2.6-.13-3.16,1.07-3.08,2.67v7.55H357a9.43,9.43,0,0,0,5.67-2.31,1.36,1.36,0,0,1,2,.29,17.12,17.12,0,0,1,2.12,10c-.82,11.24-12.36,10.2-12.36,10.2H344.12Z"/><path class="cls-4" d="M399.6,215.1s-.94,9.32,10.89,9c8.24-.25,10.86-2.9,12.09-4.5,1.82-2.37,4.41,1.38,5.15,3.67a8.93,8.93,0,0,1,0,4.8c-2,8.54-8.91,11.3-22.58,12.12-24.42,1.47-23.54-20.93-23.54-20.93V184.82c-.29-6.79-1.92-7.68.18-9.83,5.21-5.35,14.08-4.85,14.08-4.85l29.26-.11c8.22-.22,7.12.83,7.12,8.12,0,11.27-12.05,10.2-12.05,10.2H402.06c-1.51-.08-2.59.43-2.46,2.29v5.91h12.87a9.5,9.5,0,0,0,5.67-2.31,1.34,1.34,0,0,1,2,.29,17.09,17.09,0,0,1,2.13,10c-.82,11.25-12.37,10.21-12.37,10.21H399.6Z"/><path class="cls-4" d="M457.25,215.1s-.94,9.32,10.89,9c8.24-.25,10.85-2.9,12.08-4.5,1.82-2.37,4.42,1.38,5.16,3.67a8.93,8.93,0,0,1,0,4.8c-2,8.54-8.91,11.3-22.58,12.12-24.42,1.47-23.54-20.93-23.54-20.93V184.82c-.29-6.79-1.92-7.68.17-9.83,5.21-5.35,14.08-4.85,14.08-4.85l29.26-.11c8.22-.22,7.13.83,7.13,8.12,0,11.27-12.05,10.2-12.05,10.2H459.7c-1.5-.08-2.58.43-2.45,2.29v5.91h12.86a9.52,9.52,0,0,0,5.68-2.31,1.34,1.34,0,0,1,2,.29,17.09,17.09,0,0,1,2.13,10c-.83,11.25-12.37,10.21-12.37,10.21H457.25Z"/><path class="cls-4" d="M177,300.65c1.69.69,5.84,1.67,8.84.21,1.84-.89,8.14-5,9.54,2.52.74,3.91-3.37,15.89-18.73,16.17-17,.32-29.79-15.34-29.79-34.41s13.8-34.55,30.8-34.55c14.3,0,24,5.14,25.91,23,.36,3.38,0,7.73-9.54,8.52-8.88.74-9.55-5.6-9.72-8.18-.37-5.83-5.78-5.77-6.65-5.75-5,.11-9.1,9-9.1,16.91S172.34,298.74,177,300.65Z"/><path class="cls-4" d="M262.64,285.17c0,19.22-12.09,34.83-27,34.83s-27-15.61-27-34.83,12.08-34.82,27-34.82S262.64,266,262.64,285.17Zm-17.37,0c0-8.5-4.31-15.4-9.61-15.4s-9.6,6.9-9.6,15.4,4.3,15.41,9.6,15.41S245.27,293.67,245.27,285.17Z"/><path class="cls-4" d="M313.86,319.4c-6,.72-13.25-2.11-15.2-11.44-1.15-5.46-.44-15.37-9.88-12.61l-.21,0-.34,11.85c.3,6.95,2.14,8.09-.18,10.06-3.23,2.75-7,2.48-9.31,2.12-9.64-1.48-8.4-14.88-8.4-14.88l.28-40.58c-.29-6.87-2.12-8,.17-9.94a9.25,9.25,0,0,1,2.61-1.58c2.78-.83,5.67-1.59,12.5-1.78,12.6-.35,29.37,1.22,30.37,18.67.5,8.81-2,14.6-5.78,18.37,4.29,5.78,4.08,13,4.27,14.2.56,3.49-.36,7.1,5.72,7.35C323.36,309.38,321.6,318.47,313.86,319.4Zm-13.2-47c.08-6.88-5.71-7.34-6.25-7.38-1.52-.12-3,.12-4.09.12-2.26,0-1.8,2.24-1.8,2.24l0,11.18s-.21,1.72,1.08,1.66c1,0,2.54.08,4.66-.11C295.06,280.08,300.58,279.52,300.66,272.44Z"/><path class="cls-4" d="M347.55,255.92c1.63,2.47,5.51,10.14,5.51,10.14l10.1,17.19V262.79c-.29-6.81-2.12-7.92.18-9.86,3.18-2.69,6.88-2.42,9.18-2.07,9.51,1.44,8.62,14.57,8.62,14.57v44s.11,3.6,2.27,5.76a1.38,1.38,0,0,1-.28,2,12.81,12.81,0,0,1-3.16,1.43,23.93,23.93,0,0,1-12,.43c-5.88-1.4-8.82-8.18-8.82-8.18l-12.35-21v19.56a9.84,9.84,0,0,0,2.28,5.76,1.4,1.4,0,0,1-.28,2,16.45,16.45,0,0,1-9.9,2.16c-11.1-.83-10.08-12.57-10.08-12.57v-44c-.29-6.81-2.11-7.92.18-9.86s5.52-3,10.38-2.63C343.17,250.57,345.84,253.32,347.55,255.92Z"/><path class="cls-4" d="M408.79,294.84s-.94,9.31,10.89,9c8.24-.26,10.85-2.9,12.08-4.51,1.82-2.37,4.42,1.38,5.16,3.67a9,9,0,0,1,0,4.81c-2,8.53-8.92,11.3-22.58,12.12-24.42,1.46-23.54-20.94-23.54-20.94V264.56c-.29-6.79-1.92-7.68.17-9.83,5.21-5.36,14.08-4.86,14.08-4.86l29.26-.11c8.22-.22,7.13.84,7.13,8.12,0,11.28-12.05,10.21-12.05,10.21H411.24c-1.5-.09-2.58.43-2.45,2.28v5.92h12.86a9.5,9.5,0,0,0,5.67-2.31,1.35,1.35,0,0,1,2,.28,17.06,17.06,0,0,1,2.12,10c-.82,11.24-12.36,10.2-12.36,10.2H408.79Z"/><path class="cls-4" d="M492.07,319.4c-6,.72-13.24-2.11-15.2-11.44-1.14-5.46-.44-15.37-9.88-12.61l-.2,0-.35,11.85c.3,6.95,2.15,8.09-.17,10.06-3.23,2.75-7,2.48-9.32,2.12-9.63-1.48-8.39-14.88-8.39-14.88l.27-40.58c-.29-6.87-2.11-8,.18-9.94a9.21,9.21,0,0,1,2.6-1.58c2.79-.83,5.68-1.59,12.5-1.78,12.6-.35,29.38,1.22,30.37,18.67.5,8.81-2,14.6-5.77,18.37,4.29,5.78,4.08,13,4.27,14.2.56,3.49-.37,7.1,5.71,7.35C501.58,309.38,499.82,318.47,492.07,319.4Zm-13.19-47c.08-6.88-5.71-7.34-6.26-7.38-1.51-.12-3,.12-4.08.12-2.27,0-1.81,2.24-1.81,2.24l0,11.18s-.21,1.72,1.08,1.66c1,0,2.54.08,4.66-.11C473.27,280.08,478.8,279.52,478.88,272.44Z"/><g id="Icons1-3" data-name="Icons1"><g id="coffee-bean-filled-3" data-name="coffee-bean-filled"><path class="cls-5" d="M92.29,342.22a6.27,6.27,0,0,1,4.29,5.94c0,1.19,0,2.16,0,2.16s0,33-38.61,63.4C42.32,426.08,28.71,446.18,25.16,465a6.26,6.26,0,0,1-4.86,5,6.17,6.17,0,0,1-6.42-2.66C2.89,450.8-9.58,420,11.21,383.42,30,350.48,64.57,333.64,92.29,342.22Z"/><path class="cls-5" d="M38,487.62a6.51,6.51,0,0,1-4.48-6.19c-.06-1.1-.06-2-.06-2s0-33,38.62-63.4c15.55-12.25,29.05-32.1,32.76-50.74a6.48,6.48,0,0,1,5.08-5.13,6.39,6.39,0,0,1,6.63,2.81c10.91,16.63,22.9,47.21,2.33,83.36C100.14,479.21,65.65,496.06,38,487.62Z"/></g></g><path class="cls-6" d="M177,390.91c1.69.7,5.84,1.67,8.84.22,1.84-.9,8.14-5,9.54,2.51.74,3.91-3.37,15.89-18.73,16.18-17,.32-29.79-15.34-29.79-34.41s13.8-34.55,30.8-34.55c14.3,0,24,5.13,25.91,23.05.36,3.38,0,7.72-9.54,8.52-8.88.74-9.55-5.6-9.72-8.18-.37-5.83-5.78-5.77-6.65-5.75-5,.11-9.1,9-9.1,16.91S172.34,389,177,390.91Z"/><path class="cls-6" d="M262.64,375.44c0,19.22-12.09,34.82-27,34.82s-27-15.6-27-34.82,12.08-34.83,27-34.83S262.64,356.22,262.64,375.44Zm-17.37,0c0-8.5-4.31-15.41-9.61-15.41s-9.6,6.91-9.6,15.41,4.3,15.4,9.6,15.4S245.27,383.94,245.27,375.44Z"/><path class="cls-6" d="M288.43,399.76a9.82,9.82,0,0,0,2.28,5.75,1.37,1.37,0,0,1-.28,2,16.54,16.54,0,0,1-9.91,2.16c-11.1-.83-10.07-12.53-10.07-12.53l0-42.31c-.29-6.79-1.91-7.68.18-9.83,5.21-5.35,14.08-4.85,14.08-4.85l27.67-.11c8.22-.22,7.12.83,7.12,8.12,0,11.27-12.05,10.2-12.05,10.2H291.5c-2.6-.13-3.16,1.07-3.09,2.67v7.55h12.86a9.43,9.43,0,0,0,5.67-2.31,1.34,1.34,0,0,1,2,.29,17,17,0,0,1,2.13,10c-.82,11.24-12.36,10.2-12.36,10.2H288.43Z"/><path class="cls-6" d="M344.12,399.76a9.82,9.82,0,0,0,2.28,5.75,1.36,1.36,0,0,1-.28,2,16.53,16.53,0,0,1-9.9,2.16c-11.1-.83-10.08-12.53-10.08-12.53l0-42.31c-.29-6.79-1.91-7.68.18-9.83,5.21-5.35,14.08-4.85,14.08-4.85l27.67-.11c8.22-.22,7.12.83,7.12,8.12,0,11.27-12.05,10.2-12.05,10.2H347.19c-2.6-.13-3.16,1.07-3.08,2.67v7.55H357a9.43,9.43,0,0,0,5.67-2.31,1.36,1.36,0,0,1,2,.29,17.12,17.12,0,0,1,2.12,10c-.82,11.24-12.36,10.2-12.36,10.2H344.12Z"/><path class="cls-6" d="M399.6,385.1s-.94,9.32,10.89,8.95c8.24-.25,10.86-2.9,12.09-4.5,1.82-2.37,4.41,1.38,5.15,3.67a8.93,8.93,0,0,1,0,4.8c-2,8.54-8.91,11.3-22.58,12.12-24.42,1.47-23.54-20.93-23.54-20.93V354.82c-.29-6.79-1.92-7.68.18-9.83,5.21-5.35,14.08-4.85,14.08-4.85l29.26-.11c8.22-.22,7.12.83,7.12,8.12,0,11.27-12.05,10.2-12.05,10.2H402.06c-1.51-.08-2.59.43-2.46,2.29v5.91h12.87a9.5,9.5,0,0,0,5.67-2.31,1.34,1.34,0,0,1,2,.29,17.09,17.09,0,0,1,2.13,10c-.82,11.25-12.37,10.21-12.37,10.21H399.6Z"/><path class="cls-6" d="M457.25,385.1s-.94,9.32,10.89,8.95c8.24-.25,10.85-2.9,12.08-4.5,1.82-2.37,4.42,1.38,5.16,3.67a8.93,8.93,0,0,1,0,4.8c-2,8.54-8.91,11.3-22.58,12.12-24.42,1.47-23.54-20.93-23.54-20.93V354.82c-.29-6.79-1.92-7.68.17-9.83,5.21-5.35,14.08-4.85,14.08-4.85l29.26-.11c8.22-.22,7.13.83,7.13,8.12,0,11.27-12.05,10.2-12.05,10.2H459.7c-1.5-.08-2.58.43-2.45,2.29v5.91h12.86a9.52,9.52,0,0,0,5.68-2.31,1.34,1.34,0,0,1,2,.29,17.09,17.09,0,0,1,2.13,10c-.83,11.25-12.37,10.21-12.37,10.21H457.25Z"/><path class="cls-6" d="M177,470.65c1.69.69,5.84,1.67,8.84.21,1.84-.89,8.14-5,9.54,2.52.74,3.91-3.37,15.89-18.73,16.17-17,.32-29.79-15.34-29.79-34.41s13.8-34.55,30.8-34.55c14.3,0,24,5.14,25.91,23.05.36,3.38,0,7.73-9.54,8.52-8.88.74-9.55-5.6-9.72-8.18-.37-5.83-5.78-5.77-6.65-5.75-5,.11-9.1,9-9.1,16.91S172.34,468.74,177,470.65Z"/><path class="cls-6" d="M262.64,455.17c0,19.22-12.09,34.83-27,34.83s-27-15.61-27-34.83,12.08-34.82,27-34.82S262.64,436,262.64,455.17Zm-17.37,0c0-8.5-4.31-15.4-9.61-15.4s-9.6,6.9-9.6,15.4,4.3,15.41,9.6,15.41S245.27,463.67,245.27,455.17Z"/><path class="cls-6" d="M313.86,489.4c-6,.72-13.25-2.11-15.2-11.44-1.15-5.46-.44-15.37-9.88-12.61l-.21,0-.34,11.85c.3,6.95,2.14,8.09-.18,10.06-3.23,2.75-7,2.48-9.31,2.12-9.64-1.48-8.4-14.88-8.4-14.88l.28-40.58c-.29-6.87-2.12-8,.17-9.94a9.25,9.25,0,0,1,2.61-1.58c2.78-.83,5.67-1.59,12.5-1.78,12.6-.35,29.37,1.22,30.37,18.67.5,8.81-2,14.6-5.78,18.37,4.29,5.78,4.08,13,4.27,14.2.56,3.49-.36,7.1,5.72,7.35C323.36,479.38,321.6,488.47,313.86,489.4Zm-13.2-47c.08-6.88-5.71-7.34-6.25-7.38-1.52-.12-3,.12-4.09.12-2.26,0-1.8,2.24-1.8,2.24l0,11.18s-.21,1.72,1.08,1.66c1,0,2.54.08,4.66-.11C295.06,450.08,300.58,449.52,300.66,442.44Z"/><path class="cls-6" d="M347.55,425.92c1.63,2.47,5.51,10.14,5.51,10.14l10.1,17.19V432.79c-.29-6.81-2.12-7.92.18-9.86,3.18-2.69,6.88-2.42,9.18-2.07,9.51,1.44,8.62,14.57,8.62,14.57v44s.11,3.6,2.27,5.76a1.38,1.38,0,0,1-.28,2,12.81,12.81,0,0,1-3.16,1.43,23.93,23.93,0,0,1-12,.43c-5.88-1.4-8.82-8.18-8.82-8.18l-12.35-21v19.56a9.84,9.84,0,0,0,2.28,5.76,1.4,1.4,0,0,1-.28,2,16.45,16.45,0,0,1-9.9,2.16c-11.1-.83-10.08-12.57-10.08-12.57v-44c-.29-6.81-2.11-7.92.18-9.86s5.52-3,10.38-2.63C343.17,420.57,345.84,423.32,347.55,425.92Z"/><path class="cls-6" d="M408.79,464.84s-.94,9.31,10.89,9c8.24-.26,10.85-2.9,12.08-4.51,1.82-2.37,4.42,1.38,5.16,3.67a9,9,0,0,1,0,4.81c-2,8.53-8.92,11.3-22.58,12.12-24.42,1.46-23.54-20.94-23.54-20.94V434.56c-.29-6.79-1.92-7.68.17-9.83,5.21-5.36,14.08-4.86,14.08-4.86l29.26-.11c8.22-.22,7.13.84,7.13,8.12,0,11.28-12.05,10.21-12.05,10.21H411.24c-1.5-.09-2.58.43-2.45,2.28v5.92h12.86a9.5,9.5,0,0,0,5.67-2.31,1.35,1.35,0,0,1,2,.28,17.06,17.06,0,0,1,2.12,10c-.82,11.24-12.36,10.2-12.36,10.2H408.79Z"/><path class="cls-6" d="M492.07,489.4c-6,.72-13.24-2.11-15.2-11.44-1.14-5.46-.44-15.37-9.88-12.61l-.2,0-.35,11.85c.3,6.95,2.15,8.09-.17,10.06-3.23,2.75-7,2.48-9.32,2.12-9.63-1.48-8.39-14.88-8.39-14.88l.27-40.58c-.29-6.87-2.11-8,.18-9.94a9.21,9.21,0,0,1,2.6-1.58c2.79-.83,5.68-1.59,12.5-1.78,12.6-.35,29.38,1.22,30.37,18.67.5,8.81-2,14.6-5.77,18.37,4.29,5.78,4.08,13,4.27,14.2.56,3.49-.37,7.1,5.71,7.35C501.58,479.38,499.82,488.47,492.07,489.4Zm-13.19-47c.08-6.88-5.71-7.34-6.26-7.38-1.51-.12-3,.12-4.08.12-2.27,0-1.81,2.24-1.81,2.24l0,11.18s-.21,1.72,1.08,1.66c1,0,2.54.08,4.66-.11C473.27,450.08,478.8,449.52,478.88,442.44Z"/><g id="Icons1-4" data-name="Icons1"><g id="coffee-bean-filled-4" data-name="coffee-bean-filled"><path class="cls-7" d="M92.29,512.22a6.27,6.27,0,0,1,4.29,5.94c0,1.19,0,2.16,0,2.16s0,33-38.61,63.4C42.32,596.08,28.71,616.18,25.16,635a6.26,6.26,0,0,1-4.86,5,6.17,6.17,0,0,1-6.42-2.66C2.89,620.8-9.58,590,11.21,553.42,30,520.48,64.57,503.64,92.29,512.22Z"/><path class="cls-7" d="M38,657.62a6.51,6.51,0,0,1-4.48-6.19c-.06-1.1-.06-2-.06-2s0-33,38.62-63.4c15.55-12.25,29.05-32.1,32.76-50.74a6.48,6.48,0,0,1,5.08-5.13,6.39,6.39,0,0,1,6.63,2.81c10.91,16.63,22.9,47.21,2.33,83.36C100.14,649.21,65.65,666.06,38,657.62Z"/></g></g><path class="cls-8" d="M177,560.91c1.69.7,5.84,1.67,8.84.22,1.84-.9,8.14-5,9.54,2.51.74,3.91-3.37,15.89-18.73,16.18-17,.32-29.79-15.34-29.79-34.41s13.8-34.55,30.8-34.55c14.3,0,24,5.13,25.91,23,.36,3.38,0,7.72-9.54,8.52-8.88.74-9.55-5.6-9.72-8.18-.37-5.83-5.78-5.77-6.65-5.75-5,.11-9.1,9-9.1,16.91S172.34,559,177,560.91Z"/><path class="cls-8" d="M262.64,545.44c0,19.22-12.09,34.82-27,34.82s-27-15.6-27-34.82,12.08-34.83,27-34.83S262.64,526.22,262.64,545.44Zm-17.37,0c0-8.5-4.31-15.41-9.61-15.41s-9.6,6.91-9.6,15.41,4.3,15.4,9.6,15.4S245.27,553.94,245.27,545.44Z"/><path class="cls-8" d="M288.43,569.76a9.82,9.82,0,0,0,2.28,5.75,1.37,1.37,0,0,1-.28,2,16.54,16.54,0,0,1-9.91,2.16c-11.1-.83-10.07-12.53-10.07-12.53l0-42.31c-.29-6.79-1.91-7.68.18-9.83,5.21-5.35,14.08-4.85,14.08-4.85l27.67-.11c8.22-.22,7.12.83,7.12,8.12,0,11.27-12.05,10.2-12.05,10.2H291.5c-2.6-.13-3.16,1.07-3.09,2.67v7.55h12.86a9.43,9.43,0,0,0,5.67-2.31,1.34,1.34,0,0,1,2,.29,17,17,0,0,1,2.13,10c-.82,11.24-12.36,10.2-12.36,10.2H288.43Z"/><path class="cls-8" d="M344.12,569.76a9.82,9.82,0,0,0,2.28,5.75,1.36,1.36,0,0,1-.28,2,16.53,16.53,0,0,1-9.9,2.16c-11.1-.83-10.08-12.53-10.08-12.53l0-42.31c-.29-6.79-1.91-7.68.18-9.83,5.21-5.35,14.08-4.85,14.08-4.85l27.67-.11c8.22-.22,7.12.83,7.12,8.12,0,11.27-12.05,10.2-12.05,10.2H347.19c-2.6-.13-3.16,1.07-3.08,2.67v7.55H357a9.43,9.43,0,0,0,5.67-2.31,1.36,1.36,0,0,1,2,.29,17.12,17.12,0,0,1,2.12,10c-.82,11.24-12.36,10.2-12.36,10.2H344.12Z"/><path class="cls-8" d="M399.6,555.1s-.94,9.32,10.89,8.95c8.24-.25,10.86-2.9,12.09-4.5,1.82-2.37,4.41,1.38,5.15,3.67a8.93,8.93,0,0,1,0,4.8c-2,8.54-8.91,11.3-22.58,12.12-24.42,1.47-23.54-20.93-23.54-20.93V524.82c-.29-6.79-1.92-7.68.18-9.83,5.21-5.35,14.08-4.85,14.08-4.85l29.26-.11c8.22-.22,7.12.83,7.12,8.12,0,11.27-12.05,10.2-12.05,10.2H402.06c-1.51-.08-2.59.43-2.46,2.29v5.91h12.87a9.5,9.5,0,0,0,5.67-2.31,1.34,1.34,0,0,1,2,.29,17.09,17.09,0,0,1,2.13,10c-.82,11.25-12.37,10.21-12.37,10.21H399.6Z"/><path class="cls-8" d="M457.25,555.1s-.94,9.32,10.89,8.95c8.24-.25,10.85-2.9,12.08-4.5,1.82-2.37,4.42,1.38,5.16,3.67a8.93,8.93,0,0,1,0,4.8c-2,8.54-8.91,11.3-22.58,12.12-24.42,1.47-23.54-20.93-23.54-20.93V524.82c-.29-6.79-1.92-7.68.17-9.83,5.21-5.35,14.08-4.85,14.08-4.85l29.26-.11c8.22-.22,7.13.83,7.13,8.12,0,11.27-12.05,10.2-12.05,10.2H459.7c-1.5-.08-2.58.43-2.45,2.29v5.91h12.86a9.52,9.52,0,0,0,5.68-2.31,1.34,1.34,0,0,1,2,.29,17.09,17.09,0,0,1,2.13,10c-.83,11.25-12.37,10.21-12.37,10.21H457.25Z"/><path class="cls-8" d="M177,640.65c1.69.69,5.84,1.67,8.84.21,1.84-.89,8.14-5,9.54,2.52.74,3.91-3.37,15.89-18.73,16.17-17,.32-29.79-15.34-29.79-34.41s13.8-34.55,30.8-34.55c14.3,0,24,5.14,25.91,23,.36,3.38,0,7.73-9.54,8.52-8.88.74-9.55-5.6-9.72-8.18-.37-5.83-5.78-5.77-6.65-5.75-5,.11-9.1,9-9.1,16.91S172.34,638.74,177,640.65Z"/><path class="cls-8" d="M262.64,625.17c0,19.22-12.09,34.83-27,34.83s-27-15.61-27-34.83,12.08-34.82,27-34.82S262.64,606,262.64,625.17Zm-17.37,0c0-8.5-4.31-15.4-9.61-15.4s-9.6,6.9-9.6,15.4,4.3,15.41,9.6,15.41S245.27,633.67,245.27,625.17Z"/><path class="cls-8" d="M313.86,659.4c-6,.72-13.25-2.11-15.2-11.44-1.15-5.46-.44-15.37-9.88-12.61l-.21,0-.34,11.85c.3,7,2.14,8.09-.18,10.06-3.23,2.75-7,2.48-9.31,2.12-9.64-1.48-8.4-14.88-8.4-14.88l.28-40.58c-.29-6.87-2.12-8,.17-9.94a9.25,9.25,0,0,1,2.61-1.58c2.78-.83,5.67-1.59,12.5-1.78,12.6-.35,29.37,1.22,30.37,18.67.5,8.81-2,14.6-5.78,18.37,4.29,5.78,4.08,13,4.27,14.2.56,3.49-.36,7.1,5.72,7.35C323.36,649.38,321.6,658.47,313.86,659.4Zm-13.2-47c.08-6.88-5.71-7.34-6.25-7.38-1.52-.12-3,.12-4.09.12-2.26,0-1.8,2.24-1.8,2.24l0,11.18s-.21,1.72,1.08,1.66c1,0,2.54.08,4.66-.11C295.06,620.08,300.58,619.52,300.66,612.44Z"/><path class="cls-8" d="M347.55,595.92c1.63,2.47,5.51,10.14,5.51,10.14l10.1,17.19V602.79c-.29-6.81-2.12-7.92.18-9.86,3.18-2.69,6.88-2.42,9.18-2.07,9.51,1.44,8.62,14.57,8.62,14.57v44s.11,3.6,2.27,5.76a1.38,1.38,0,0,1-.28,2,12.81,12.81,0,0,1-3.16,1.43,23.93,23.93,0,0,1-12,.43c-5.88-1.4-8.82-8.18-8.82-8.18l-12.35-21v19.56a9.84,9.84,0,0,0,2.28,5.76,1.4,1.4,0,0,1-.28,2,16.45,16.45,0,0,1-9.9,2.16c-11.1-.83-10.08-12.57-10.08-12.57v-44c-.29-6.81-2.11-7.92.18-9.86s5.52-3,10.38-2.63C343.17,590.57,345.84,593.32,347.55,595.92Z"/><path class="cls-8" d="M408.79,634.84s-.94,9.31,10.89,8.95c8.24-.26,10.85-2.9,12.08-4.51,1.82-2.37,4.42,1.38,5.16,3.67a9,9,0,0,1,0,4.81c-2,8.53-8.92,11.3-22.58,12.12-24.42,1.46-23.54-20.94-23.54-20.94V604.56c-.29-6.79-1.92-7.68.17-9.83,5.21-5.36,14.08-4.86,14.08-4.86l29.26-.11c8.22-.22,7.13.84,7.13,8.12,0,11.28-12.05,10.21-12.05,10.21H411.24c-1.5-.09-2.58.43-2.45,2.28v5.92h12.86a9.5,9.5,0,0,0,5.67-2.31,1.35,1.35,0,0,1,2,.28,17.06,17.06,0,0,1,2.12,10c-.82,11.24-12.36,10.2-12.36,10.2H408.79Z"/><path class="cls-8" d="M492.07,659.4c-6,.72-13.24-2.11-15.2-11.44-1.14-5.46-.44-15.37-9.88-12.61l-.2,0-.35,11.85c.3,7,2.15,8.09-.17,10.06-3.23,2.75-7,2.48-9.32,2.12-9.63-1.48-8.39-14.88-8.39-14.88l.27-40.58c-.29-6.87-2.11-8,.18-9.94a9.21,9.21,0,0,1,2.6-1.58c2.79-.83,5.68-1.59,12.5-1.78,12.6-.35,29.38,1.22,30.37,18.67.5,8.81-2,14.6-5.77,18.37,4.29,5.78,4.08,13,4.27,14.2.56,3.49-.37,7.1,5.71,7.35C501.58,649.38,499.82,658.47,492.07,659.4Zm-13.19-47c.08-6.88-5.71-7.34-6.26-7.38-1.51-.12-3,.12-4.08.12-2.27,0-1.81,2.24-1.81,2.24l0,11.18s-.21,1.72,1.08,1.66c1,0,2.54.08,4.66-.11C473.27,620.08,478.8,619.52,478.88,612.44Z"/><g id="Icons1-5" data-name="Icons1"><g id="coffee-bean-filled-5" data-name="coffee-bean-filled"><path class="cls-9" d="M92.29,682.22a6.27,6.27,0,0,1,4.29,5.94c0,1.19,0,2.16,0,2.16s0,33-38.61,63.4C42.32,766.08,28.71,786.18,25.16,805a6.26,6.26,0,0,1-4.86,5,6.17,6.17,0,0,1-6.42-2.66C2.89,790.8-9.58,760,11.21,723.42,30,690.48,64.57,673.64,92.29,682.22Z"/><path class="cls-9" d="M38,827.62a6.51,6.51,0,0,1-4.48-6.19c-.06-1.1-.06-2-.06-2s0-33,38.62-63.4c15.55-12.25,29.05-32.1,32.76-50.74a6.48,6.48,0,0,1,5.08-5.13,6.39,6.39,0,0,1,6.63,2.81c10.91,16.63,22.9,47.21,2.33,83.36C100.14,819.21,65.65,836.06,38,827.62Z"/></g></g><path class="cls-10" d="M177,730.91c1.69.7,5.84,1.67,8.84.22,1.84-.9,8.14-5,9.54,2.51.74,3.91-3.37,15.89-18.73,16.18-17,.32-29.79-15.34-29.79-34.41s13.8-34.55,30.8-34.55c14.3,0,24,5.13,25.91,23,.36,3.38,0,7.72-9.54,8.52-8.88.74-9.55-5.6-9.72-8.18-.37-5.83-5.78-5.77-6.65-5.75-5,.11-9.1,9-9.1,16.91S172.34,729,177,730.91Z"/><path class="cls-10" d="M262.64,715.44c0,19.22-12.09,34.82-27,34.82s-27-15.6-27-34.82,12.08-34.83,27-34.83S262.64,696.22,262.64,715.44Zm-17.37,0c0-8.5-4.31-15.41-9.61-15.41s-9.6,6.91-9.6,15.41,4.3,15.4,9.6,15.4S245.27,723.94,245.27,715.44Z"/><path class="cls-10" d="M288.43,739.76a9.82,9.82,0,0,0,2.28,5.75,1.37,1.37,0,0,1-.28,2,16.54,16.54,0,0,1-9.91,2.16c-11.1-.83-10.07-12.53-10.07-12.53l0-42.31c-.29-6.79-1.91-7.68.18-9.83,5.21-5.35,14.08-4.85,14.08-4.85l27.67-.11c8.22-.22,7.12.83,7.12,8.12,0,11.27-12.05,10.2-12.05,10.2H291.5c-2.6-.13-3.16,1.07-3.09,2.67v7.55h12.86a9.43,9.43,0,0,0,5.67-2.31,1.34,1.34,0,0,1,2,.29,17,17,0,0,1,2.13,10c-.82,11.24-12.36,10.2-12.36,10.2H288.43Z"/><path class="cls-10" d="M344.12,739.76a9.82,9.82,0,0,0,2.28,5.75,1.36,1.36,0,0,1-.28,2,16.53,16.53,0,0,1-9.9,2.16c-11.1-.83-10.08-12.53-10.08-12.53l0-42.31c-.29-6.79-1.91-7.68.18-9.83,5.21-5.35,14.08-4.85,14.08-4.85l27.67-.11c8.22-.22,7.12.83,7.12,8.12,0,11.27-12.05,10.2-12.05,10.2H347.19c-2.6-.13-3.16,1.07-3.08,2.67v7.55H357a9.43,9.43,0,0,0,5.67-2.31,1.36,1.36,0,0,1,2,.29,17.12,17.12,0,0,1,2.12,10c-.82,11.24-12.36,10.2-12.36,10.2H344.12Z"/><path class="cls-10" d="M399.6,725.1s-.94,9.32,10.89,8.95c8.24-.25,10.86-2.9,12.09-4.5,1.82-2.37,4.41,1.38,5.15,3.67a8.93,8.93,0,0,1,0,4.8c-2,8.54-8.91,11.3-22.58,12.12-24.42,1.47-23.54-20.93-23.54-20.93V694.82c-.29-6.79-1.92-7.68.18-9.83,5.21-5.35,14.08-4.85,14.08-4.85l29.26-.11c8.22-.22,7.12.83,7.12,8.12,0,11.27-12.05,10.2-12.05,10.2H402.06c-1.51-.08-2.59.43-2.46,2.29v5.91h12.87a9.5,9.5,0,0,0,5.67-2.31,1.34,1.34,0,0,1,2,.29,17.09,17.09,0,0,1,2.13,10c-.82,11.25-12.37,10.21-12.37,10.21H399.6Z"/><path class="cls-10" d="M457.25,725.1s-.94,9.32,10.89,8.95c8.24-.25,10.85-2.9,12.08-4.5,1.82-2.37,4.42,1.38,5.16,3.67a8.93,8.93,0,0,1,0,4.8c-2,8.54-8.91,11.3-22.58,12.12-24.42,1.47-23.54-20.93-23.54-20.93V694.82c-.29-6.79-1.92-7.68.17-9.83,5.21-5.35,14.08-4.85,14.08-4.85l29.26-.11c8.22-.22,7.13.83,7.13,8.12,0,11.27-12.05,10.2-12.05,10.2H459.7c-1.5-.08-2.58.43-2.45,2.29v5.91h12.86a9.52,9.52,0,0,0,5.68-2.31,1.34,1.34,0,0,1,2,.29,17.09,17.09,0,0,1,2.13,10c-.83,11.25-12.37,10.21-12.37,10.21H457.25Z"/><path class="cls-10" d="M177,810.65c1.69.69,5.84,1.67,8.84.21,1.84-.89,8.14-5,9.54,2.52.74,3.91-3.37,15.89-18.73,16.17-17,.32-29.79-15.34-29.79-34.41s13.8-34.55,30.8-34.55c14.3,0,24,5.14,25.91,23,.36,3.38,0,7.73-9.54,8.52-8.88.74-9.55-5.6-9.72-8.18-.37-5.83-5.78-5.77-6.65-5.75-5,.11-9.1,9-9.1,16.91S172.34,808.74,177,810.65Z"/><path class="cls-10" d="M262.64,795.17c0,19.22-12.09,34.83-27,34.83s-27-15.61-27-34.83,12.08-34.82,27-34.82S262.64,776,262.64,795.17Zm-17.37,0c0-8.5-4.31-15.4-9.61-15.4s-9.6,6.9-9.6,15.4,4.3,15.41,9.6,15.41S245.27,803.67,245.27,795.17Z"/><path class="cls-10" d="M313.86,829.4c-6,.72-13.25-2.11-15.2-11.44-1.15-5.46-.44-15.37-9.88-12.61l-.21,0-.34,11.85c.3,7,2.14,8.09-.18,10.06-3.23,2.75-7,2.48-9.31,2.12-9.64-1.48-8.4-14.88-8.4-14.88l.28-40.58c-.29-6.87-2.12-8,.17-9.94a9.25,9.25,0,0,1,2.61-1.58c2.78-.83,5.67-1.59,12.5-1.78,12.6-.35,29.37,1.22,30.37,18.67.5,8.81-2,14.6-5.78,18.37,4.29,5.78,4.08,13,4.27,14.2.56,3.49-.36,7.1,5.72,7.35C323.36,819.38,321.6,828.47,313.86,829.4Zm-13.2-47c.08-6.88-5.71-7.34-6.25-7.38-1.52-.12-3,.12-4.09.12-2.26,0-1.8,2.24-1.8,2.24l0,11.18s-.21,1.72,1.08,1.66c1,0,2.54.08,4.66-.11C295.06,790.08,300.58,789.52,300.66,782.44Z"/><path class="cls-10" d="M347.55,765.92c1.63,2.47,5.51,10.14,5.51,10.14l10.1,17.19V772.79c-.29-6.81-2.12-7.92.18-9.86,3.18-2.69,6.88-2.42,9.18-2.07,9.51,1.44,8.62,14.57,8.62,14.57v44s.11,3.6,2.27,5.76a1.38,1.38,0,0,1-.28,2,12.81,12.81,0,0,1-3.16,1.43,23.93,23.93,0,0,1-12,.43c-5.88-1.4-8.82-8.18-8.82-8.18l-12.35-21v19.56a9.84,9.84,0,0,0,2.28,5.76,1.4,1.4,0,0,1-.28,2,16.45,16.45,0,0,1-9.9,2.16c-11.1-.83-10.08-12.57-10.08-12.57v-44c-.29-6.81-2.11-7.92.18-9.86s5.52-3,10.38-2.63C343.17,760.57,345.84,763.32,347.55,765.92Z"/><path class="cls-10" d="M408.79,804.84s-.94,9.31,10.89,8.95c8.24-.26,10.85-2.9,12.08-4.51,1.82-2.37,4.42,1.38,5.16,3.67a9,9,0,0,1,0,4.81c-2,8.53-8.92,11.3-22.58,12.12-24.42,1.46-23.54-20.94-23.54-20.94V774.56c-.29-6.79-1.92-7.68.17-9.83,5.21-5.36,14.08-4.86,14.08-4.86l29.26-.11c8.22-.22,7.13.84,7.13,8.12,0,11.28-12.05,10.21-12.05,10.21H411.24c-1.5-.09-2.58.43-2.45,2.28v5.92h12.86a9.5,9.5,0,0,0,5.67-2.31,1.35,1.35,0,0,1,2,.28,17.06,17.06,0,0,1,2.12,10c-.82,11.24-12.36,10.2-12.36,10.2H408.79Z"/><path class="cls-10" d="M492.07,829.4c-6,.72-13.24-2.11-15.2-11.44-1.14-5.46-.44-15.37-9.88-12.61l-.2,0-.35,11.85c.3,7,2.15,8.09-.17,10.06-3.23,2.75-7,2.48-9.32,2.12-9.63-1.48-8.39-14.88-8.39-14.88l.27-40.58c-.29-6.87-2.11-8,.18-9.94a9.21,9.21,0,0,1,2.6-1.58c2.79-.83,5.68-1.59,12.5-1.78,12.6-.35,29.38,1.22,30.37,18.67.5,8.81-2,14.6-5.77,18.37,4.29,5.78,4.08,13,4.27,14.2.56,3.49-.37,7.1,5.71,7.35C501.58,819.38,499.82,828.47,492.07,829.4Zm-13.19-47c.08-6.88-5.71-7.34-6.26-7.38-1.51-.12-3,.12-4.08.12-2.27,0-1.81,2.24-1.81,2.24l0,11.18s-.21,1.72,1.08,1.66c1,0,2.54.08,4.66-.11C473.27,790.08,478.8,789.52,478.88,782.44Z"/></svg>