<?xml version="1.0" encoding="utf-8"?>
<!-- Generator: Adobe Illustrator 26.1.0, SVG Export Plug-In . SVG Version: 6.00 Build 0)  -->
<svg version="1.1" id="Livello_1" xmlns="http://www.w3.org/2000/svg" xmlns:xlink="http://www.w3.org/1999/xlink" x="0px" y="0px"
	 viewBox="0 0 650 600" style="enable-background:new 0 0 650 600;" xml:space="preserve">
<style type="text/css">
	.st0{fill-rule:evenodd;clip-rule:evenodd;fill:#492D12;}
	.st1{fill:#492D12;}
	.st2{fill:#A7856C;}
</style>
<g>
	<g>
		<g>
			<g id="Icons1_00000142864991547249115490000002956949314821344932_">
				<g id="Strike_00000178901959197646418560000002978804754849010053_">
				</g>
				<g id="H1_00000151504031255057540140000012618322201899791760_">
				</g>
				<g id="H2_00000076567163185998855910000005913345984907706025_">
				</g>
				<g id="H3_00000096738509845523009270000013772107033418943418_">
				</g>
				<g id="list-ul_00000056396334331484649730000003609405343567851412_">
				</g>
				<g id="hamburger-1_00000142154060530732098480000015773439870296358840_">
				</g>
				<g id="hamburger-2_00000176735942847758930920000014665174553651245490_">
				</g>
				<g id="list-ol_00000172439120839673016930000008112983564754133133_">
				</g>
				<g id="list-task_00000080204792144238418710000007031436148969870526_">
				</g>
				<g id="trash_00000052066854546147658940000000806329888264258741_">
				</g>
				<g id="vertical-menu_00000169540597295893772620000004433107800900714431_">
				</g>
				<g id="horizontal-menu_00000004531160132252457620000012354768256397758344_">
				</g>
				<g id="sidebar-2_00000066512593194571461040000003769648782973234332_">
				</g>
				<g id="Pen_00000116214168649052244960000006558955219292419748_">
				</g>
				<g id="Pen1_00000168088272243280249800000009253217531806519177_">
				</g>
				<g id="clock_00000065784028860954085340000005853275211152712366_">
				</g>
				<g id="external-link_00000175308922769562972040000015800782554387575464_">
				</g>
				<g id="hr_00000034806314603236680580000003228375970743128248_">
				</g>
				<g id="info_00000026123585906690506560000002828107910845134235_">
				</g>
				<g id="warning_00000033367994489765579530000001704006533840808862_">
				</g>
				<g id="plus-circle_00000110437996152518714910000017763024250996985498_">
				</g>
				<g id="minus-circle_00000019672505584670962450000004775489093479095955_">
				</g>
				<g id="vue_00000092433927699399572520000009221962146624222350_">
				</g>
				<g id="cog_00000166667767641912506520000012925037979747167662_">
				</g>
				<g id="logo_00000017516509061213423890000005218718984829132950_">
				</g>
				<g id="radio-check_00000152247658998294727480000016454021774577906864_">
				</g>
				<g id="eye-slash_00000124865222245217852590000007969037438865724863_">
				</g>
				<g id="eye_00000108987894044006819880000007221703101281134731_">
				</g>
				<g id="toggle-off_00000039096006955517297620000014212695360940415126_">
				</g>
				<g id="shredder_00000044136957889456431540000006608378386287537292_">
				</g>
				<g id="spinner--loading--dots-_00000139282928320164978450000003470240437560266372_">
				</g>
				<g id="react_00000021091407042625237890000005332440809965751714_">
				</g>
				<g id="check-selected_00000093163056136136346320000005735896882682963619_">
				</g>
				<g id="turn-off_00000023258902460368225090000002706019705548359572_">
				</g>
				<g id="code-block_00000124843930473207275730000011274852927749376391_">
				</g>
				<g id="user_00000114075982994243530330000017736121028834643628_">
				</g>
				<g id="coffee-bean_00000090979427721284331480000018237306014961036451_">
				</g>
				<g transform="matrix(0.638317,0.368532,-0.368532,0.638317,785.021,-208.975)">
					<g id="coffee-beans_00000055697381699574716410000011083682874579236536_">
						<g id="coffee-bean1_00000078007952519206165210000009841958757890153402_">
						</g>
					</g>
				</g>
				
					<g id="coffee-bean-filled_00000164514317250828999740000016629773864012581517_" transform="matrix(0.866025,0.5,-0.5,0.866025,717.879,-387.292)">
					<g transform="matrix(1,0,0,1,0,-0.699553)">
						<path class="st0" d="M-104.7,513.3c4.3-0.9,8.7,1.1,10.9,4.9c1,1.6,1.8,3,1.8,3s26.8,46.5-3,120.7
							c-12.1,30.2-15,69.6-4.7,98.9c1.4,3.9,0.3,8.3-2.8,11c-3.1,2.7-7.5,3.3-11.2,1.5c-28.9-14.3-71.6-47.6-72-115.9
							C-186,575.7-150.8,523.8-104.7,513.3z"/>
					</g>
					<g>
						<path class="st0" d="M-63.2,761.6c-4.5,1-9-1.1-11.4-5.1c-1-1.5-1.7-2.7-1.7-2.7s-26.8-46.5,3-120.7c12-29.9,14.9-68.9,5-98.1
							c-1.4-4.1-0.2-8.6,3-11.4c3.2-2.8,7.8-3.4,11.6-1.4c28.9,14.5,70.7,47.8,71,115.5C17.7,699.1-17.2,750.9-63.2,761.6z"/>
					</g>
				</g>
				<g transform="matrix(0.638317,0.368532,-0.368532,0.638317,913.062,-208.975)">
					<g id="coffee-beans-filled_00000072995109271037125530000005931946776204604852_">
						<g id="coffee-bean2_00000176025062965128828800000011987689638453551244_">
						</g>
					</g>
				</g>
				<g id="clipboard_00000129198075545396701880000012696919786375480753_">
				</g>
				<g transform="matrix(1,0,0,1,128.011,1.35415)">
					<g id="clipboard-paste_00000153689634058299696090000016155391079442675858_">
					</g>
				</g>
				<g id="clipboard-copy_00000165913750237302669850000001152112176823497600_">
				</g>
				<g id="Layer1_00000139277115030008279750000000770781788041334423_">
				</g>
			</g>
		</g>
		<g>
			<path class="st1" d="M135.6,185.5l-88-0.1c-23.9,1-27.4,7.2-34.6-0.6c-16.8-18.4-7-43.3-7-43.3L42.8,34.7
				C49.5,11.8,44.6,6,54.5,2.2C68.3-3,80.4,2.1,87.7,5.9C118,21.6,100.2,64,100.2,64l-19.7,57.7l55.2,0l0.1-76.3
				c-1-23.8-7.5-27.7,0.6-34.5c11.3-9.4,24.5-8.5,32.6-7.2c33.7,5,30.6,50.9,30.6,50.9l0,118.2l-0.5,27.9c1,24.3,7.6,28.3-0.6,35.2
				c-11.5,9.6-24.8,8.6-33.1,7.4c-34.2-5.2-29.8-52-29.8-52L135.6,185.5L135.6,185.5z"/>
			<path class="st1" d="M583,185.5l-88-0.1c-23.9,1-27.4,7.2-34.6-0.6c-16.8-18.4-7-43.3-7-43.3l36.7-106.8
				C496.9,11.8,492.1,6,502,2.2c13.7-5.3,25.9-0.1,33.2,3.7C565.5,21.6,547.6,64,547.6,64l-19.7,57.7l55.2,0l0.1-76.3
				c-1-23.8-7.5-27.7,0.6-34.5c11.3-9.4,24.5-8.5,32.6-7.2c33.7,5,30.6,50.9,30.6,50.9l0,118.2l-0.5,27.9c1,24.3,7.6,28.3-0.6,35.2
				c-11.5,9.6-24.8,8.6-33.1,7.4c-34.2-5.2-29.8-52-29.8-52L583,185.5L583,185.5z"/>
		</g>
	</g>
	<g>
		<path class="st2" d="M36,351.7l-0.7,23.9c0.6,13,4.1,15.2-0.3,18.9c-6.1,5.1-13.3,4.6-17.7,4c-18.3-2.8-16-27.9-16-27.9l0.5-76
			c-0.6-12.9-4-15,0.3-18.6c1.6-1.3,3.3-2.3,4.9-3h0c5.3-1.6,10.8-3,23.8-3.3c24-0.7,55.9,2.3,57.8,35
			C91.3,349.5,51.3,352.4,36,351.7z M59,310.3c0.2-12.9-10.9-13.7-11.9-13.8c-2.9-0.2-5.7,0.2-7.8,0.2c-4.3,0-3.4,4.2-3.4,4.2
			l0,20.9c0,0-0.4,3.2,2,3.1c1.8-0.1,4.8,0.2,8.9-0.2C48.3,324.6,58.8,323.6,59,310.3z"/>
		<path class="st2" d="M167.8,394.8c-3.3,2.1-9.9,4.8-18.8,4.1c-4.8-0.4-8.4-1.8-11.1-3.8c-5.6,3.5-12.1,4.8-16.7,4.6
			c-37.4-1.9-36.1-42.5-36.1-42.5s0.4-47.1,39-48.9c6.2-0.3,11.6,0.6,16.1,2.1c1.4-0.1,2.9-0.1,4.5,0.1c21.1,1.6,19.2,24,19.2,24
			l0,45.4c0,0,0.1,6.4,4.3,11C168.8,391.5,169.5,393.7,167.8,394.8z M125.8,337.3c-6.3-0.2-11.7,7.3-12.1,16.8
			c-0.3,9.5,4.5,17.4,10.8,17.6c6.3,0.2,11.7-7.3,12-16.8C136.9,345.4,132.1,337.5,125.8,337.3z"/>
		<path class="st2" d="M231,310.5c21.1,1.6,19.2,24,19.2,24l0,34.9l0,0l0,40.5c0,0,0.4,31.3-31.5,32.3c-16.9,0.5-29.7-5.5-32.1-19.3
			c-2.7-15.3,13.1-21.9,18.4-13.2c3.6,6,11.1,2,11.1-9.5v-1.5c-3.1,0.9-6.1,1.2-8.6,1c-37.4-1.9-36.1-42.5-36.1-42.5
			s0.4-47.1,39-48.9c6.2-0.3,11.6,0.6,16.1,2.1C227.9,310.4,229.5,310.4,231,310.5L231,310.5z M212,337.3
			c-6.3-0.2-11.7,7.3-12.1,16.8c-0.3,9.5,4.5,17.4,10.8,17.6c6.3,0.2,11.7-7.3,12-16.8C223.1,345.4,218.3,337.5,212,337.3z"/>
		<path class="st2" d="M313.9,363c6.1-5.8,17.8-1.1,15.9,13.6c-1.9,15.4-16.9,23.2-33.9,23.2c-22.5,0-40.7-20.6-40.7-46
			c0-25.4,18.2-46,40.7-46c16,0,30.6,4.5,33.6,20.8c3.7,20.3-13.7,29.2-20.1,31.5c-9.5,3.4-19.1,2.2-25,0.7
			c1,9.3,6.9,11.5,10.8,11.8C306.7,373.7,306.9,369.7,313.9,363L313.9,363z M286.7,340.4c1.7,1,4.3,2,8.1,1.8
			c3.7-0.2,7.9-1.5,7.7-5.7c-1.8-4.3-5.6-3.3-6.5-3.2C292.2,333.3,288.9,336.1,286.7,340.4z"/>
		<path class="st2" d="M433.9,279.4c3.1,4.6,10.5,19,10.5,19l19.2,32.2v-38.3c-0.6-12.8-4-14.8,0.3-18.5c6.1-5,13.1-4.5,17.5-3.9
			c18.1,2.7,16.4,27.3,16.4,27.3l0,82.4c0,0,0.2,6.7,4.3,10.8c0.6,0.6,1.2,2.7-0.5,3.8c-1.4,0.9-3.4,1.9-6,2.7
			c-11.1,3.3-20.4,1.4-22.8,0.8c-11.2-2.6-16.8-15.3-16.8-15.3L432.5,343l0,36.6c0,0,0.1,6.3,4.3,10.8c0.5,0.6,1.2,2.7-0.5,3.8
			c-3.3,2-9.8,4.7-18.8,4c-21.1-1.6-19.2-23.5-19.2-23.5v-82.4c-0.6-12.8-4-14.8,0.3-18.5c4.5-3.7,10.5-5.6,19.8-4.9
			C425.5,269.4,430.6,274.5,433.9,279.4z"/>
		<path class="st2" d="M588.7,354.6c0,25.4-18.7,46.1-41.8,46.1c-23,0-41.8-20.7-41.8-46.1c0-25.4,18.7-46.1,41.8-46.1
			C570,308.4,588.7,329.1,588.7,354.6z M558.4,355c0.4-9.5-4.5-17.4-10.8-17.6c-6.3-0.2-11.7,7.3-12.1,16.8
			c-0.3,9.5,4.5,17.4,10.8,17.6C552.6,372,558,364.5,558.4,355L558.4,355z"/>
		<path class="st2" d="M595.6,293.7c-0.5-13-4-15.2,0.3-18.9c6.1-5.1,13.1-4.6,17.5-4c13.2,2,15.9,16,16.3,23.4l5.5,0
			c8.3-0.4,9.7-3,12,0.2c3.3,4.5,3,9.7,2.5,13c-1.8,13.4-17.8,12.2-17.8,12.2l-2.2,0v50.1c0,0-0.5,5.6,3.8,6.1
			c3.9,0.5,11-6.5,11.6,1.8c1.4,20.3-23.5,21.7-30.5,21.2c-21.1-1.6-19.2-24-19.2-24v-54.5c-3.8,0.7-5,1.5-6.7-0.9
			c-3.3-4.5-2.9-9.7-2.5-13c0.9-6.5,5.1-9.6,9.2-11V293.7z"/>
		<path class="st2" d="M141.9,579.1c0,0,0.1,6.2,4.3,10.8c0.5,0.6,1.2,2.7-0.5,3.7c-3.3,2-9.9,4.7-18.8,4
			c-21.1-1.6-19.2-23.5-19.2-23.5l0-79.2c-0.6-12.7-3.6-14.4,0.3-18.4c9.9-10,26.8-9.1,26.8-9.1s52-0.2,52.6-0.2
			c15.6-0.4,13.6,1.6,13.6,15.2c0,21.1-22.9,19.1-22.9,19.1l-30.3,0c-5-0.2-6,2-5.9,5l0,14.1l24.5,0c0,0,6.3-0.1,10.8-4.3
			c0.6-0.5,2.7-1.2,3.8,0.5c2,3.3,4.7,9.8,4,18.8c-1.6,21.1-23.5,19.1-23.5,19.1l-19.5,0L141.9,579.1z"/>
		<path class="st2" d="M274.6,553.9c0,25.4-18.7,46.1-41.8,46.1c-23,0-41.8-20.7-41.8-46.1c0-25.4,18.7-46.1,41.8-46.1
			C255.9,507.8,274.6,528.4,274.6,553.9z M244.3,554.3c0.4-9.5-4.5-17.4-10.8-17.6c-6.3-0.2-11.7,7.3-12.1,16.8
			c-0.3,9.5,4.5,17.4,10.8,17.6C238.5,571.3,243.9,563.8,244.3,554.3L244.3,554.3z"/>
		<path class="st2" d="M335.8,595.1c-5.2,2.5-11.9,4.3-20.4,3.9c-15.5-0.7-24.9-8.8-30.5-18.1c-8.4-13.9-5.2-50-5.2-50
			c-0.6-13-4-15.2,0.3-18.9c6.1-5.1,13.1-4.6,17.5-4c18.1,2.8,15.8,27.9,15.8,27.9l-0.6,24.3c0,0-0.4,9.8,5.4,9.9
			c5,0.1,7.8-5.2,8.6-12.1v-29.2c0,0-0.2-6.4-4.3-11c-0.5-0.6-1.2-2.7,0.5-3.8c3.3-2.1,9.9-4.8,18.8-4.1c21.1,1.6,19.2,24,19.2,24
			v45.4c0,0,0.2,6.4,4.3,11c0.5,0.6,1.2,2.7-0.5,3.8c-3.3,2.1-9.8,4.8-18.8,4.1C341.6,597.9,338.3,596.8,335.8,595.1L335.8,595.1z"
			/>
		<path class="st2" d="M416.8,507.7c15.5,0.7,24.9,8.8,30.5,18.1c8.4,13.9,5.2,50,5.2,50c0.6,13,4,15.2-0.3,18.9
			c-6.1,5.1-13.1,4.6-17.5,4c-18.1-2.8-15.8-27.9-15.8-27.9l0.6-24.3c0,0,0.4-9.8-5.4-9.9c-5.9-0.1-8.7,7.1-8.9,15.8v26.8
			c0,0,0.2,6.4,4.3,11c0.5,0.6,1.2,2.7-0.5,3.8c-3.3,2.1-9.8,4.8-18.8,4.1c-21.1-1.6-19.2-24-19.2-24l0-33.2c0,0,0-5.7,0-6.6
			c0-3.8-0.1-8.8-0.3-10.3c-1-7.2-2.5-9.2,1-12.1c6.1-5.1,13.1-4.6,17.5-4c3.2,0.5,5.7,1.7,7.8,3.3
			C402.1,508.9,408.7,507.3,416.8,507.7z"/>
		<path class="st2" d="M540.4,594.1c-3.3,2.1-9.9,4.8-18.8,4.1c-4.8-0.4-8.4-1.8-11.1-3.8c-5.6,3.5-12.1,4.8-16.7,4.6
			c-37.4-1.9-36.1-42.5-36.1-42.5s0.4-48.2,39-48.9c1.9,0,3.8,0.1,5.6,0.4v-15c-0.6-13-4-15.2,0.3-18.9c6.1-5.1,13.1-4.6,17.5-4
			c18.1,2.8,16.4,27.9,16.4,27.9l0,81.1c0,0,0.1,6.4,4.3,11C541.5,590.9,542.2,593,540.4,594.1z M498.4,536.6
			c-6.3-0.2-11.7,7.3-12.1,16.8c-0.3,9.5,4.5,17.4,10.8,17.6c6.3,0.2,11.7-7.3,12-16.8C509.6,544.8,504.7,536.9,498.4,536.6z"/>
	</g>
</g>
</svg>
