<svg width="39" height="24" viewBox="0 0 39 24" fill="none" xmlns="http://www.w3.org/2000/svg">
<path d="M19.7154 0.846082C18.721 0.846082 17.7674 1.24563 17.0641 1.95686L2.0638 17.1322C1.70563 17.4822 1.41994 17.9008 1.2234 18.3636C1.02686 18.8265 0.923414 19.3243 0.919087 19.8281C0.91476 20.3318 1.00964 20.8314 1.1982 21.2976C1.38676 21.7639 1.66521 22.1875 2.01732 22.5437C2.36942 22.8999 2.78813 23.1816 3.249 23.3724C3.70987 23.5631 4.20368 23.6591 4.70161 23.6547C5.19955 23.6504 5.69163 23.5457 6.14916 23.3469C6.60668 23.148 7.02048 22.859 7.36641 22.4967L19.7154 10.0036L32.0644 22.4967C32.7717 23.1877 33.719 23.5701 34.7023 23.5615C35.6855 23.5528 36.6261 23.1539 37.3214 22.4504C38.0167 21.747 38.4111 20.7955 38.4196 19.8008C38.4282 18.806 38.0502 17.8477 37.3671 17.1322L22.3667 1.95686C21.6635 1.24563 20.7098 0.846082 19.7154 0.846082Z" fill="white"/>
</svg>
