<?xml version="1.0" encoding="utf-8"?>
<!-- Generator: Adobe Illustrator 26.1.0, SVG Export Plug-In . SVG Version: 6.00 Build 0)  -->
<svg version="1.1" id="Livello_1" xmlns="http://www.w3.org/2000/svg" xmlns:xlink="http://www.w3.org/1999/xlink" x="0px" y="0px"
	 viewBox="0 0 24 24" style="enable-background:new 0 0 24 24;" xml:space="preserve">
<style type="text/css">
	.st0{fill:#492D12;}
</style>
<path class="st0" d="M24,9.2c-0.1-0.2-0.2-0.4-0.4-0.6c-0.2-0.1-0.4-0.2-0.6-0.3l-6.8-1l-3.1-6.2C13,1,12.8,0.8,12.6,0.7
	c-0.2-0.1-0.4-0.2-0.6-0.2c-0.2,0-0.4,0.1-0.6,0.2C11.1,0.8,11,1,10.9,1.2L7.8,7.4L1,8.4c-0.2,0-0.4,0.1-0.6,0.3
	C0.3,8.8,0.1,9,0,9.2C0,9.4,0,9.6,0,9.9c0,0.2,0.2,0.4,0.3,0.6l4.9,4.8L4.1,22c0,0.2,0,0.5,0.1,0.7c0.1,0.2,0.2,0.4,0.4,0.5
	c0.2,0.1,0.4,0.2,0.6,0.2c0.2,0,0.5,0,0.7-0.2l6.1-3.2l6.1,3.2c0.2,0.1,0.4,0.1,0.6,0.1c0.3,0,0.5-0.1,0.7-0.2
	c0.2-0.1,0.3-0.3,0.4-0.5c0.1-0.2,0.1-0.4,0.1-0.7l-1.2-6.8l4.9-4.8c0.2-0.1,0.3-0.3,0.4-0.6C24,9.7,24,9.4,24,9.2z M16.5,13.9
	c-0.1,0.1-0.2,0.3-0.3,0.5c-0.1,0.2-0.1,0.4,0,0.6l0.9,5L12,17.4L6.9,20l0.9-5c0-0.2,0-0.4,0-0.6c-0.1-0.2-0.2-0.3-0.3-0.5l-3.6-3.6
	l5-0.7c0.2,0,0.4-0.1,0.5-0.2c0.2-0.1,0.3-0.3,0.4-0.4L12,5.7L14.2,9c0.1,0.2,0.2,0.3,0.4,0.4c0.2,0.1,0.3,0.2,0.5,0.2l5,0.7
	L16.5,13.9z"/>
</svg>
