<svg width="256" height="256" viewBox="0 0 256 256" fill="none" xmlns="http://www.w3.org/2000/svg">
<path d="M149.223 18L106.732 39.736V56.236C120.881 49.02 135.074 41.76 149.223 34.544V18Z" fill="#492D12"/>
<path d="M152.199 42.3761L109.019 64.4201L137.533 100.852L180.713 78.8081L152.199 42.3761Z" fill="#492D12"/>
<path d="M101.556 68.2476L86.2858 76.0356L101.556 68.2476Z" fill="black"/>
<path d="M73 215.252L132.357 238V108.992L73 86.2435" fill="#492D12"/>
<path d="M182.999 86.9917C168.85 94.2077 154.658 101.468 140.509 108.684V237.296L182.999 215.604V86.9917Z" fill="#492D12"/>
<path fill-rule="evenodd" clip-rule="evenodd" d="M99.5569 142.972C100.05 143.162 100.485 143.723 100.646 144.324C100.748 144.587 100.775 144.806 100.775 144.806C100.775 144.806 102.849 152.312 98.1948 159.137C96.3183 161.93 95.2578 166.47 95.8011 170.742C95.8871 171.3 95.6674 171.778 95.3134 171.873C94.9379 172.006 94.4282 171.755 94.0472 171.277C91.1115 167.517 87.0535 160.511 88.279 152.217C89.4565 144.808 94.2937 141.029 99.5569 142.972Z" fill="white"/>
<path fill-rule="evenodd" clip-rule="evenodd" d="M99.4273 175.907C98.9336 175.717 98.4613 175.134 98.2626 174.51C98.1981 174.269 98.1122 174.067 98.1122 174.067C98.1122 174.067 96.0383 166.561 100.692 159.735C102.568 156.943 103.623 152.501 103.079 148.229C103.015 147.633 103.213 147.193 103.626 147.083C104.039 146.972 104.549 147.222 104.93 147.701C107.844 151.499 111.849 158.423 110.592 166.596C109.512 174.012 104.712 177.813 99.4273 175.907Z" fill="white"/>
<path d="M123.945 96.8476L94.568 85.5836L79.0386 79.7316L86.2857 76.0356L101.556 68.2476L107.639 76.0356L114.239 84.4396L123.945 96.8476Z" fill="#492D12"/>
</svg>
