<svg width="362" height="630" viewBox="0 0 362 630" fill="none" xmlns="http://www.w3.org/2000/svg">
<path fill-rule="evenodd" clip-rule="evenodd" d="M-11.5596 629.236C-18.5485 628.629 -25.1664 625.83 -30.4679 621.238C-35.7694 616.646 -39.4834 610.497 -41.0795 603.669C-42.6615 598.266 -43.7114 593.788 -43.7114 593.788C-43.7114 593.788 -82.21 429.607 74.55 233.287C137.657 154.192 181.693 39.6778 178.413 -57.3898C178.147 -63.9541 179.84 -70.4498 183.276 -76.0505C186.713 -81.6511 191.739 -86.1036 197.714 -88.8416C203.688 -91.5667 210.346 -92.4285 216.817 -91.315C223.289 -90.2015 229.274 -87.1644 233.992 -82.5994C307.696 -12.5954 403.05 125.552 342.839 329.413C287.922 514.869 135.911 638.956 -11.5596 629.236Z" fill="#F0E6DA"/>
</svg>
